<svg width="24" height="24" viewBox="0 0 24 24" fill="none" xmlns="http://www.w3.org/2000/svg">
<path d="M21.2263 19.6541C22.4581 18.1732 23.3147 16.4177 23.7239 14.536C24.133 12.6543 24.0826 10.7018 23.5769 8.84364C23.0712 6.98551 22.1251 5.27643 20.8186 3.86096C19.5122 2.4455 17.8837 1.36529 16.0711 0.711731C14.2585 0.0581692 12.3151 -0.149525 10.4052 0.10622C8.49523 0.361964 6.67505 1.07362 5.09857 2.18099C3.5221 3.28836 2.23572 4.75887 1.34824 6.46811C0.46077 8.17735 -0.00168325 10.075 4.60364e-06 12.0007C0.000652289 14.8 0.987815 17.5096 2.78827 19.6541L2.77112 19.6687C2.83115 19.7407 2.89977 19.8024 2.96152 19.8735C3.03871 19.9618 3.1219 20.0449 3.20167 20.1307C3.44181 20.3912 3.68882 20.6415 3.94783 20.8763C4.02674 20.9483 4.10822 21.0151 4.18798 21.0837C4.46243 21.3202 4.7446 21.5448 5.03707 21.7539C5.0748 21.7796 5.10911 21.813 5.14685 21.8396V21.8293C7.15559 23.2419 9.5519 24 12.0082 24C14.4644 24 16.8607 23.2419 18.8695 21.8293V21.8396C18.9072 21.813 18.9407 21.7796 18.9793 21.7539C19.2709 21.5439 19.5539 21.3202 19.8283 21.0837C19.9081 21.0151 19.9896 20.9474 20.0685 20.8763C20.3275 20.6406 20.5745 20.3912 20.8147 20.1307C20.8944 20.0449 20.9768 19.9618 21.0548 19.8735C21.1157 19.8024 21.1852 19.7407 21.2452 19.6678L21.2263 19.6541ZM12.0073 5.14424C12.7706 5.14424 13.5168 5.37044 14.1515 5.79422C14.7862 6.218 15.2809 6.82034 15.573 7.52507C15.8651 8.2298 15.9416 9.00526 15.7926 9.75339C15.6437 10.5015 15.2761 11.1887 14.7364 11.7281C14.1966 12.2675 13.5089 12.6348 12.7603 12.7836C12.0116 12.9324 11.2356 12.856 10.5303 12.5641C9.82511 12.2722 9.22234 11.7779 8.79826 11.1437C8.37417 10.5094 8.14782 9.76377 8.14782 9.00098C8.14782 7.97811 8.55444 6.99713 9.27823 6.27386C10.002 5.55058 10.9837 5.14424 12.0073 5.14424ZM5.15199 19.6541C5.16687 18.5288 5.62452 17.4546 6.42593 16.6638C7.22734 15.8731 8.30807 15.4294 9.43431 15.4289H14.5803C15.7065 15.4294 16.7873 15.8731 17.5887 16.6638C18.3901 17.4546 18.8477 18.5288 18.8626 19.6541C16.9816 21.3479 14.5394 22.2853 12.0073 22.2853C9.47526 22.2853 7.03299 21.3479 5.15199 19.6541Z" fill="#9EA8BB"/>
</svg>
