<svg width="54" height="54" viewBox="0 0 54 54" fill="none" xmlns="http://www.w3.org/2000/svg">
<path d="M48.333 5.66732V37.6673H16.333V5.66732H48.333ZM48.333 0.333984H16.333C13.3997 0.333984 10.9997 2.73398 10.9997 5.66732V37.6673C10.9997 40.6007 13.3997 43.0007 16.333 43.0007H48.333C51.2663 43.0007 53.6663 40.6007 53.6663 37.6673V5.66732C53.6663 2.73398 51.2663 0.333984 48.333 0.333984ZM25.6663 26.1207L30.173 32.1473L36.7863 23.8807L45.6663 35.0007H18.9997L25.6663 26.1207ZM0.333008 11.0007V48.334C0.333008 51.2673 2.73301 53.6673 5.66634 53.6673H42.9997V48.334H5.66634V11.0007H0.333008Z" fill="#F4B1A3"/>
</svg>
