<?xml version="1.0" encoding="UTF-8" standalone="no"?>
<!DOCTYPE svg PUBLIC "-//W3C//DTD SVG 1.1//EN" "http://www.w3.org/Graphics/SVG/1.1/DTD/svg11.dtd">
<!-- Generated by Microsoft Visio, SVG Export testslider.svg Page-1 -->
<svg xmlns="http://www.w3.org/2000/svg" xmlns:xlink="http://www.w3.org/1999/xlink" xmlns:ev="http://www.w3.org/2001/xml-events"
		xmlns:v="http://schemas.microsoft.com/visio/2003/SVGExtensions/" width="3.59293in" height="6.42755in"
		viewBox="0 0 258.691 462.784" xml:space="preserve" color-interpolation-filters="sRGB" class="st2">
	<v:documentProperties v:langID="1033" v:metric="true" v:viewMarkup="false">
		<v:userDefs>
			<v:ud v:nameU="msvNoAutoConnect" v:val="VT0(1):26"/>
		</v:userDefs>
	</v:documentProperties>

	<style type="text/css">
	<![CDATA[
		.st1 {fill:#1EFCF1;stroke:#1EFCF1;stroke-linecap:round;stroke-linejoin:round;stroke-width:0.75}
		.st2 {fill:none;fill-rule:evenodd;font-size:12px;overflow:visible;stroke-linecap:square;stroke-miterlimit:3}
	]]>
	</style>

	<g v:mID="0" v:index="1" v:groupContext="foregroundPage">
		<title>Page-1</title>
		<v:pageProperties v:drawingScale="0.0393701" v:pageScale="0.0393701" v:drawingUnits="24" v:shadowOffsetX="8.50394"
				v:shadowOffsetY="-8.50394"/>
		<g id="shape17-1" v:mID="17" v:groupContext="shape" transform="translate(19.5,-19.5)">
			<title>Sheet.17</title>
			<path d="M12.2 199.16 A109.846 109.846 0 1 1 219.41 156.64 A107.437 107.437 0 0 1 181.15 231.76 A327.214 327.214 -180
						 0 0 132.96 285.62 A91.3253 91.3253 -180 0 0 117.37 319.63 A278.681 278.681 -180 0 0 115.95 359.32 A51.912
						 51.912 -180 0 0 132.96 387.67 A40.982 40.982 0 1 1 87.6 387.67 A46.3797 46.3797 -90 0 0 103.19 356.48 A173.28
						 173.28 -180 0 0 102.49 321.05 A73.3462 73.3462 -90 0 0 87.6 285.62 A274.885 274.885 -90 0 0 39.41 232.75
						 A122.416 122.416 90 0 1 12.2 199.16 Z" class="st1"/>
		</g>
	</g>
</svg>
