<svg width="153" height="31" viewBox="0 0 153 31" fill="none" xmlns="http://www.w3.org/2000/svg">
<g clip-path="url(#clip0_53079_65812)">
<path d="M3.86486 19.7834V6.72028L11.6923 11.0483L23.058 4.40708V0L11.6563 6.34792L0 0V21.9844L3.86486 19.7834Z" fill="white"/>
<path d="M49.7062 11.9989L42.9022 17.1048L36.2448 11.851V24.4295H33.4805V6.31152L42.9819 13.7L52.4833 6.31152V9.94328V21.3869L49.719 24.3147L49.7062 11.9989Z" fill="white"/>
<path d="M54.7422 24.4295H57.7045L63.2922 13.1109L66.1156 18.7702H63.8579L61.2608 21.7873H67.7228L68.9648 24.4295H71.9296L63.3359 6.31152L54.7422 24.4295Z" fill="white"/>
<path d="M70.8848 6.31152L77.9125 6.44924C77.9125 6.44924 81.5819 6.31407 84.3179 9.24957C87.2211 12.3636 87.2519 18.1326 84.9659 20.6983C82.6234 23.3303 80.2422 24.8274 75.9916 24.4321C75.6239 23.8047 74.5516 21.369 74.5516 21.369L77.3751 21.2849C77.3751 21.2849 80.1805 21.7898 82.6516 18.5406C84.9094 15.5745 82.8702 10.4432 79.6894 9.752C77.3751 9.24702 72.3222 9.4434 72.3222 9.4434L70.8848 6.31152Z" fill="white"/>
<path d="M88.3867 9.21973L91.997 11.5712L94.9901 20.3063L98.0373 11.7395L101.105 20.3063L104.265 11.6477H107.089L102.609 24.3359H99.7499L98.1684 19.7452L96.5124 24.3359H93.653L88.3867 9.21973Z" fill="white"/>
<path d="M114.267 11.6475C110.698 11.6475 107.805 14.5167 107.805 18.0566C107.805 21.5965 110.698 24.4657 114.267 24.4657C117.836 24.4657 120.729 21.5965 120.729 18.0566C120.726 14.5167 117.833 11.6475 114.267 11.6475ZM114.267 21.5736C112.307 21.5736 110.718 19.9974 110.718 18.054C110.718 16.1106 112.307 14.5345 114.267 14.5345C116.226 14.5345 117.815 16.1106 117.815 18.054C117.815 19.9974 116.226 21.5736 114.267 21.5736Z" fill="white"/>
<path d="M123.533 24.4633H126.544V17.1334C126.544 17.1334 126.13 14.2974 130.571 14.3331C130.646 13.7363 130.571 11.4971 130.571 11.4971H126.771L123.533 14.5346V24.4633Z" fill="white"/>
<path d="M132.903 9.10956L135.727 6.38574V18.5154C135.727 18.5154 135.351 21.5759 137.308 21.5759C138.398 21.5759 138.738 21.5759 138.738 21.5759V24.4655H134.636L132.859 22.7031L132.903 9.10956Z" fill="white"/>
<path d="M150.087 9.0719V12.7011C149.068 12.0355 147.85 11.6478 146.538 11.6478C142.969 11.6478 140.076 14.517 140.076 18.0569C140.076 21.5969 142.969 24.4661 146.538 24.4661C147.85 24.4661 149.068 24.0784 150.087 23.4127V24.4661H153V6.38379L150.087 9.0719ZM146.538 21.5739C144.579 21.5739 142.99 19.9978 142.99 18.0544C142.99 16.111 144.579 14.5348 146.538 14.5348C148.498 14.5348 150.087 16.111 150.087 18.0544C150.087 19.9978 148.498 21.5739 146.538 21.5739Z" fill="white"/>
<mask id="mask0_53079_65812" style="mask-type:alpha" maskUnits="userSpaceOnUse" x="-1" y="8" width="25" height="23">
<path d="M19.1918 11.1278L19.1918 24.1909L11.3644 19.8628L-0.00135955 26.5041L-0.00135994 30.9111L11.4004 24.5632L23.0566 30.9111L23.0566 8.92677L19.1918 11.1278Z" fill="white"/>
</mask>
<g mask="url(#mask0_53079_65812)">
<path d="M1.13165 25.8125H-0.0332031V26.9678H1.13165V25.8125Z" fill="white"/>
<path d="M3.32892 25.8125H2.16406V26.9678H3.32892V25.8125Z" fill="white"/>
<path d="M5.52423 25.8125H4.35938V26.9678H5.52423V25.8125Z" fill="white"/>
<path d="M7.71759 25.8125H6.55273V26.9678H7.71759V25.8125Z" fill="white"/>
<path d="M9.91486 25.8125H8.75V26.9678H9.91486V25.8125Z" fill="white"/>
<path d="M12.1082 25.8125H10.9434V26.9678H12.1082V25.8125Z" fill="white"/>
<path d="M14.3055 25.8125H13.1406V26.9678H14.3055V25.8125Z" fill="white"/>
<path d="M16.4969 25.8125H15.332V26.9678H16.4969V25.8125Z" fill="white"/>
<path d="M18.6942 25.8125H17.5293V26.9678H18.6942V25.8125Z" fill="white"/>
<path d="M20.8914 25.8125H19.7266V26.9678H20.8914V25.8125Z" fill="white"/>
<path d="M23.0867 25.8125H21.9219V26.9678H23.0867V25.8125Z" fill="white"/>
<path d="M1.13165 23.6855H-0.0332031V24.8409H1.13165V23.6855Z" fill="white"/>
<path d="M3.32892 23.6855H2.16406V24.8409H3.32892V23.6855Z" fill="white"/>
<path d="M5.52423 23.6855H4.35938V24.8409H5.52423V23.6855Z" fill="white"/>
<path d="M7.71759 23.6855H6.55273V24.8409H7.71759V23.6855Z" fill="white"/>
<path d="M9.91486 23.6855H8.75V24.8409H9.91486V23.6855Z" fill="white"/>
<path d="M12.1082 23.6855H10.9434V24.8409H12.1082V23.6855Z" fill="white"/>
<path d="M14.3055 23.6855H13.1406V24.8409H14.3055V23.6855Z" fill="white"/>
<path d="M16.4969 23.6855H15.332V24.8409H16.4969V23.6855Z" fill="white"/>
<path d="M18.6942 23.6855H17.5293V24.8409H18.6942V23.6855Z" fill="white"/>
<path d="M20.8914 23.6855H19.7266V24.8409H20.8914V23.6855Z" fill="white"/>
<path d="M23.0867 23.6855H21.9219V24.8409H23.0867V23.6855Z" fill="white"/>
<path d="M1.13165 21.5586H-0.0332031V22.7139H1.13165V21.5586Z" fill="white"/>
<path d="M3.32892 21.5586H2.16406V22.7139H3.32892V21.5586Z" fill="white"/>
<path d="M5.52423 21.5586H4.35938V22.7139H5.52423V21.5586Z" fill="white"/>
<path d="M7.71759 21.5586H6.55273V22.7139H7.71759V21.5586Z" fill="white"/>
<path d="M9.91486 21.5586H8.75V22.7139H9.91486V21.5586Z" fill="white"/>
<path d="M12.1082 21.5586H10.9434V22.7139H12.1082V21.5586Z" fill="white"/>
<path d="M14.3055 21.5586H13.1406V22.7139H14.3055V21.5586Z" fill="white"/>
<path d="M16.4969 21.5586H15.332V22.7139H16.4969V21.5586Z" fill="white"/>
<path d="M18.6942 21.5586H17.5293V22.7139H18.6942V21.5586Z" fill="white"/>
<path d="M20.8914 21.5586H19.7266V22.7139H20.8914V21.5586Z" fill="white"/>
<path d="M23.0867 21.5586H21.9219V22.7139H23.0867V21.5586Z" fill="white"/>
<path d="M1.13165 19.4287H-0.0332031V20.584H1.13165V19.4287Z" fill="white"/>
<path d="M3.32892 19.4287H2.16406V20.584H3.32892V19.4287Z" fill="white"/>
<path d="M5.52423 19.4287H4.35938V20.584H5.52423V19.4287Z" fill="white"/>
<path d="M7.71759 19.4287H6.55273V20.584H7.71759V19.4287Z" fill="white"/>
<path d="M9.91486 19.4287H8.75V20.584H9.91486V19.4287Z" fill="white"/>
<path d="M12.1082 19.4287H10.9434V20.584H12.1082V19.4287Z" fill="white"/>
<path d="M14.3055 19.4287H13.1406V20.584H14.3055V19.4287Z" fill="white"/>
<path d="M16.4969 19.4287H15.332V20.584H16.4969V19.4287Z" fill="white"/>
<path d="M18.6942 19.4287H17.5293V20.584H18.6942V19.4287Z" fill="white"/>
<path d="M20.8914 19.4287H19.7266V20.584H20.8914V19.4287Z" fill="white"/>
<path d="M23.0867 19.4287H21.9219V20.584H23.0867V19.4287Z" fill="white"/>
<path d="M1.13165 17.3018H-0.0332031V18.4571H1.13165V17.3018Z" fill="white"/>
<path d="M3.32892 17.3018H2.16406V18.4571H3.32892V17.3018Z" fill="white"/>
<path d="M5.52423 17.3018H4.35938V18.4571H5.52423V17.3018Z" fill="white"/>
<path d="M7.71759 17.3027H6.55273V18.4581H7.71759V17.3027Z" fill="white"/>
<path d="M9.91486 17.3027H8.75V18.4581H9.91486V17.3027Z" fill="white"/>
<path d="M12.1082 17.3018H10.9434V18.4571H12.1082V17.3018Z" fill="white"/>
<path d="M14.3055 17.3027H13.1406V18.4581H14.3055V17.3027Z" fill="white"/>
<path d="M16.4969 17.3018H15.332V18.4571H16.4969V17.3018Z" fill="white"/>
<path d="M18.6942 17.3018H17.5293V18.4571H18.6942V17.3018Z" fill="white"/>
<path d="M20.8914 17.3018H19.7266V18.4571H20.8914V17.3018Z" fill="white"/>
<path d="M23.0867 17.3018H21.9219V18.4571H23.0867V17.3018Z" fill="white"/>
<path d="M1.13165 15.1748H-0.0332031V16.3301H1.13165V15.1748Z" fill="white"/>
<path d="M3.32892 15.1748H2.16406V16.3301H3.32892V15.1748Z" fill="white"/>
<path d="M5.52423 15.1748H4.35938V16.3301H5.52423V15.1748Z" fill="white"/>
<path d="M7.71759 15.1748H6.55273V16.3301H7.71759V15.1748Z" fill="white"/>
<path d="M9.91486 15.1748H8.75V16.3301H9.91486V15.1748Z" fill="white"/>
<path d="M12.1082 15.1748H10.9434V16.3301H12.1082V15.1748Z" fill="white"/>
<path d="M14.3055 15.1748H13.1406V16.3301H14.3055V15.1748Z" fill="white"/>
<path d="M16.4969 15.1748H15.332V16.3301H16.4969V15.1748Z" fill="white"/>
<path d="M18.6942 15.1748H17.5293V16.3301H18.6942V15.1748Z" fill="white"/>
<path d="M20.8914 15.1748H19.7266V16.3301H20.8914V15.1748Z" fill="white"/>
<path d="M23.0867 15.1748H21.9219V16.3301H23.0867V15.1748Z" fill="white"/>
<path d="M1.13165 13.0479H-0.0332031V14.2032H1.13165V13.0479Z" fill="white"/>
<path d="M3.32892 13.0479H2.16406V14.2032H3.32892V13.0479Z" fill="white"/>
<path d="M5.52423 13.0479H4.35938V14.2032H5.52423V13.0479Z" fill="white"/>
<path d="M7.71759 13.0479H6.55273V14.2032H7.71759V13.0479Z" fill="white"/>
<path d="M9.91486 13.0479H8.75V14.2032H9.91486V13.0479Z" fill="white"/>
<path d="M12.1082 13.0479H10.9434V14.2032H12.1082V13.0479Z" fill="white"/>
<path d="M14.3055 13.0479H13.1406V14.2032H14.3055V13.0479Z" fill="white"/>
<path d="M16.4969 13.0479H15.332V14.2032H16.4969V13.0479Z" fill="white"/>
<path d="M18.6942 13.0479H17.5293V14.2032H18.6942V13.0479Z" fill="white"/>
<path d="M20.8914 13.0479H19.7266V14.2032H20.8914V13.0479Z" fill="white"/>
<path d="M23.0867 13.0479H21.9219V14.2032H23.0867V13.0479Z" fill="white"/>
<path d="M1.13165 10.9209H-0.0332031V12.0762H1.13165V10.9209Z" fill="white"/>
<path d="M3.32892 10.9209H2.16406V12.0762H3.32892V10.9209Z" fill="white"/>
<path d="M5.52423 10.9209H4.35938V12.0762H5.52423V10.9209Z" fill="white"/>
<path d="M7.71759 10.9209H6.55273V12.0762H7.71759V10.9209Z" fill="white"/>
<path d="M9.91486 10.9209H8.75V12.0762H9.91486V10.9209Z" fill="white"/>
<path d="M12.1082 10.9209H10.9434V12.0762H12.1082V10.9209Z" fill="white"/>
<path d="M14.3055 10.9209H13.1406V12.0762H14.3055V10.9209Z" fill="white"/>
<path d="M16.4969 10.9209H15.332V12.0762H16.4969V10.9209Z" fill="white"/>
<path d="M18.6942 10.9209H17.5293V12.0762H18.6942V10.9209Z" fill="white"/>
<path d="M20.8914 10.9209H19.7266V12.0762H20.8914V10.9209Z" fill="white"/>
<path d="M23.0867 10.9209H21.9219V12.0762H23.0867V10.9209Z" fill="white"/>
<path d="M1.13165 8.79395H-0.0332031V9.94927H1.13165V8.79395Z" fill="white"/>
<path d="M3.32892 8.79395H2.16406V9.94927H3.32892V8.79395Z" fill="white"/>
<path d="M5.52423 8.79395H4.35938V9.94927H5.52423V8.79395Z" fill="white"/>
<path d="M7.71759 8.79395H6.55273V9.94927H7.71759V8.79395Z" fill="white"/>
<path d="M9.91486 8.79395H8.75V9.94927H9.91486V8.79395Z" fill="white"/>
<path d="M12.1082 8.79395H10.9434V9.94927H12.1082V8.79395Z" fill="white"/>
<path d="M14.3055 8.79395H13.1406V9.94927H14.3055V8.79395Z" fill="white"/>
<path d="M16.4969 8.79395H15.332V9.94927H16.4969V8.79395Z" fill="white"/>
<path d="M18.6942 8.79395H17.5293V9.94927H18.6942V8.79395Z" fill="white"/>
<path d="M20.8914 8.79395H19.7266V9.94927H20.8914V8.79395Z" fill="white"/>
<path d="M23.0867 8.79395H21.9219V9.94927H23.0867V8.79395Z" fill="white"/>
<path d="M1.13165 27.9395H-0.0332031V29.0948H1.13165V27.9395Z" fill="white"/>
<path d="M3.32892 27.9395H2.16406V29.0948H3.32892V27.9395Z" fill="white"/>
<path d="M5.52423 27.9395H4.35938V29.0948H5.52423V27.9395Z" fill="white"/>
<path d="M7.71759 27.9395H6.55273V29.0948H7.71759V27.9395Z" fill="white"/>
<path d="M9.91486 27.9395H8.75V29.0948H9.91486V27.9395Z" fill="white"/>
<path d="M12.1082 27.9395H10.9434V29.0948H12.1082V27.9395Z" fill="white"/>
<path d="M14.3055 27.9395H13.1406V29.0948H14.3055V27.9395Z" fill="white"/>
<path d="M16.4969 27.9395H15.332V29.0948H16.4969V27.9395Z" fill="white"/>
<path d="M18.6942 27.9395H17.5293V29.0948H18.6942V27.9395Z" fill="white"/>
<path d="M20.8914 27.9395H19.7266V29.0948H20.8914V27.9395Z" fill="white"/>
<path d="M23.0867 27.9395H21.9219V29.0948H23.0867V27.9395Z" fill="white"/>
<path d="M1.13165 30.0664H-0.0332031V31.2217H1.13165V30.0664Z" fill="white"/>
<path d="M3.32892 30.0664H2.16406V31.2217H3.32892V30.0664Z" fill="white"/>
<path d="M5.52423 30.0664H4.35938V31.2217H5.52423V30.0664Z" fill="white"/>
<path d="M7.71759 30.0664H6.55273V31.2217H7.71759V30.0664Z" fill="white"/>
<path d="M9.91486 30.0664H8.75V31.2217H9.91486V30.0664Z" fill="white"/>
<path d="M12.1082 30.0664H10.9434V31.2217H12.1082V30.0664Z" fill="white"/>
<path d="M14.3055 30.0664H13.1406V31.2217H14.3055V30.0664Z" fill="white"/>
<path d="M16.4969 30.0664H15.332V31.2217H16.4969V30.0664Z" fill="white"/>
<path d="M18.6942 30.0664H17.5293V31.2217H18.6942V30.0664Z" fill="white"/>
<path d="M20.8914 30.0664H19.7266V31.2217H20.8914V30.0664Z" fill="white"/>
<path d="M23.0867 30.0664H21.9219V31.2217H23.0867V30.0664Z" fill="white"/>
</g>
</g>
<defs>
<clipPath id="clip0_53079_65812">
<rect width="153" height="31" fill="white"/>
</clipPath>
</defs>
</svg>
