<svg width="24" height="24" viewBox="0 0 24 24" fill="none" xmlns="http://www.w3.org/2000/svg">
<rect width="24" height="24" rx="12" fill="white"/>
<path d="M19.7431 16.0381L17.1306 18.809C17.074 18.8691 17.0056 18.9172 16.9295 18.95C16.8534 18.9829 16.7713 18.9999 16.6883 19H4.30355C4.24448 19 4.1867 18.9829 4.13729 18.9509C4.08788 18.9189 4.04898 18.8733 4.02535 18.8198C4.00173 18.7662 3.9944 18.707 4.00427 18.6494C4.01414 18.5918 4.04077 18.5383 4.08092 18.4954L6.69055 15.7246C6.74707 15.6644 6.81549 15.6164 6.8916 15.5835C6.96769 15.5507 7.04983 15.5336 7.13286 15.5336H19.5176C19.5771 15.5323 19.6358 15.5486 19.6861 15.5803C19.7364 15.6119 19.7762 15.6576 19.8002 15.7115C19.8244 15.7655 19.8318 15.8253 19.8216 15.8834C19.8114 15.9415 19.7841 15.9954 19.7431 16.0381ZM17.1306 10.4571C17.0738 10.3972 17.0054 10.3494 16.9293 10.3165C16.8533 10.2837 16.7712 10.2665 16.6883 10.2661H4.30355C4.24448 10.2661 4.1867 10.2832 4.13729 10.3152C4.08788 10.3472 4.04898 10.3928 4.02535 10.4463C4.00173 10.4999 3.9944 10.5591 4.00427 10.6167C4.01414 10.6743 4.04077 10.7278 4.08092 10.7707L6.69055 13.543C6.74727 13.6029 6.81576 13.6507 6.8918 13.6836C6.96785 13.7164 7.04989 13.7336 7.13286 13.734H19.5176C19.5765 13.7337 19.634 13.7164 19.6833 13.6843C19.7325 13.6522 19.7712 13.6066 19.7946 13.5531C19.818 13.4996 19.8253 13.4405 19.8152 13.383C19.8054 13.3255 19.7788 13.2722 19.7387 13.2294L17.1306 10.4571ZM4.30355 8.4665H16.6883C16.7713 8.46643 16.8534 8.44941 16.9295 8.41654C17.0056 8.38368 17.074 8.33565 17.1306 8.27546L19.7431 5.50465C19.7841 5.46185 19.8114 5.408 19.8216 5.34989C19.8318 5.29178 19.8244 5.23199 19.8002 5.17805C19.7762 5.12412 19.7364 5.07844 19.6861 5.04677C19.6358 5.0151 19.5771 4.99885 19.5176 5.00006H7.13286C7.04983 5.00015 6.96769 5.01716 6.8916 5.05003C6.81549 5.0829 6.74707 5.13092 6.69055 5.1911L4.08092 7.96192C4.04077 8.00478 4.01414 8.0583 4.00427 8.1159C3.9944 8.17351 4.00173 8.2327 4.02535 8.28625C4.04898 8.3398 4.08788 8.38537 4.13729 8.41738C4.1867 8.44941 4.24448 8.46647 4.30355 8.4665Z" fill="url(#paint0_linear_1099_261441)"/>
<defs>
<linearGradient id="paint0_linear_1099_261441" x1="5.33561" y1="19.334" x2="18.163" y2="4.71344" gradientUnits="userSpaceOnUse">
<stop offset="0.08" stop-color="#9945FF"/>
<stop offset="0.3" stop-color="#8752F3"/>
<stop offset="0.5" stop-color="#5497D5"/>
<stop offset="0.6" stop-color="#43B4CA"/>
<stop offset="0.72" stop-color="#28E0B9"/>
<stop offset="0.97" stop-color="#19FB9B"/>
</linearGradient>
</defs>
</svg>
