<svg width="24" height="24" viewBox="0 0 24 24" fill="none" xmlns="http://www.w3.org/2000/svg">
<path d="M12 24C5.37258 24 0 18.6274 0 12C0 5.37258 5.37258 0 12 0C18.6274 0 24 5.37258 24 12C24 18.6274 18.6274 24 12 24Z" fill="white"/>
<path d="M12.7585 19.3691C11.742 19.3691 11.0017 19.1139 10.5365 18.6034C10.0719 18.0932 9.8393 17.5429 9.8393 16.9532C9.8393 16.7376 9.87974 16.5562 9.96084 16.4087C10.04 16.2633 10.1548 16.1428 10.2935 16.0598C10.434 15.9747 10.6069 15.9323 10.8125 15.9323C11.018 15.9323 11.1907 15.9747 11.3314 16.0598C11.4719 16.1448 11.5828 16.2613 11.6638 16.4087C11.7449 16.5562 11.7854 16.7376 11.7854 16.9532C11.7854 17.2141 11.726 17.4266 11.6071 17.5912C11.488 17.7557 11.3475 17.8633 11.1853 17.9146C11.3261 18.1185 11.5477 18.2631 11.8504 18.3482C12.1531 18.4391 12.4558 18.4844 12.7585 18.4844C13.1801 18.4844 13.5612 18.3653 13.9019 18.1272C14.2424 17.8888 14.4939 17.5373 14.6561 17.0723C14.8183 16.6073 14.8994 16.0797 14.8994 15.4898C14.8994 14.849 14.81 14.3015 14.6318 13.848C14.4586 13.3886 14.2019 13.0483 13.8613 12.827C13.5311 12.609 13.1486 12.494 12.7585 12.4954C12.4989 12.4954 12.1748 12.6088 11.7854 12.8357L11.0718 13.21V12.8357L14.283 8.34391H9.8393V13.0056C9.8393 13.3914 9.9204 13.709 10.0826 13.9586C10.2448 14.2082 10.4934 14.3329 10.8288 14.3329C11.0879 14.3329 11.3368 14.2422 11.5747 14.0605C11.8142 13.8773 12.0225 13.6531 12.1909 13.3973C12.2125 13.3459 12.2396 13.3091 12.272 13.2864C12.3011 13.2594 12.3385 13.2444 12.3774 13.244C12.4368 13.244 12.507 13.2752 12.5883 13.3377C12.664 13.4282 12.7018 13.5332 12.7018 13.6523C12.6925 13.7325 12.6789 13.812 12.6611 13.8906C12.4775 14.3216 12.2233 14.6505 11.8989 14.8773C11.5831 15.1015 11.21 15.2201 10.8288 15.2177C9.86634 15.2177 9.20126 15.0191 8.83376 14.6223C8.46626 14.2251 8.2824 13.6862 8.2824 13.0059V8.34391H6.01172V7.47602H8.2824V5.50258L7.76343 4.95766V4.51562H9.27163L9.83908 4.82172V7.47602L15.7101 7.45914L16.2941 8.07156L12.6937 11.8488C12.9117 11.7576 13.1412 11.7003 13.3749 11.6786C13.7641 11.6786 14.2019 11.8091 14.6885 12.07C15.1805 12.3252 15.5589 12.677 15.8236 13.1247C16.0886 13.5672 16.2588 13.9926 16.3346 14.4009C16.4157 14.8094 16.4563 15.1722 16.4563 15.4898C16.4563 16.2159 16.3102 16.8906 16.0184 17.5148C15.7265 18.1384 15.2832 18.6034 14.6885 18.9098C14.0938 19.2161 13.4504 19.3691 12.7585 19.3691Z" fill="#2C7DF7"/>
</svg>
