<svg width="60" height="60" viewBox="0 0 60 60" fill="none" xmlns="http://www.w3.org/2000/svg">
<path d="M22.9232 42.1409C22.7002 42.1409 22.4857 42.0167 22.3808 41.8033L9.30993 15.306C9.16166 15.0071 9.28462 14.6442 9.58478 14.4972C9.88614 14.3501 10.2466 14.4731 10.3936 14.772L23.4645 41.2681C23.6128 41.5671 23.4898 41.9299 23.1896 42.0782C23.1041 42.1204 23.0124 42.1409 22.9232 42.1409Z" fill="#66757F"/>
<path d="M22.922 42.1405C22.6616 42.1405 22.4205 41.9706 22.3421 41.709L13.3964 11.6749C13.3011 11.3554 13.4832 11.0179 13.8038 10.9226C14.1269 10.8274 14.4608 11.0106 14.556 11.3301L23.5018 41.363C23.597 41.6837 23.415 42.02 23.0943 42.1152C23.0377 42.1321 22.9798 42.1405 22.922 42.1405Z" fill="#66757F"/>
<path d="M22.9218 42.1415C22.6095 42.1415 22.3443 41.9016 22.319 41.5846L19.6308 7.83764C19.6043 7.50493 19.8527 7.21321 20.1854 7.18669C20.5205 7.16258 20.8098 7.4085 20.8363 7.7412L23.5245 41.4882C23.551 41.8209 23.3027 42.1126 22.97 42.1391L22.9218 42.1415Z" fill="#66757F"/>
<path d="M22.9224 42.1418C22.7175 42.1418 22.5174 42.037 22.4041 41.8489C22.2317 41.5632 22.3245 41.1907 22.6102 41.0196L47.925 25.7825C48.2107 25.6101 48.5831 25.7029 48.7543 25.9886C48.9255 26.2743 48.8339 26.6468 48.5482 26.818L23.2334 42.0551C23.1358 42.1129 23.0285 42.1418 22.9224 42.1418Z" fill="#66757F"/>
<path d="M22.922 42.142C22.752 42.142 22.5832 42.0697 22.4639 41.931C22.2457 41.6779 22.2746 41.297 22.5278 41.0788L46.2815 20.6377C46.5346 20.4207 46.9167 20.4485 47.1337 20.7016C47.3519 20.9548 47.323 21.3369 47.0698 21.5551L23.3162 41.9949C23.2028 42.0938 23.063 42.142 22.922 42.142Z" fill="#66757F"/>
<path d="M22.922 42.1414C22.7943 42.1414 22.6665 42.1004 22.5568 42.0173C22.2916 41.8148 22.2397 41.4362 22.4411 41.1698L42.9351 14.2241C43.1377 13.9577 43.5162 13.9083 43.7826 14.1084C44.049 14.3109 44.1008 14.6894 43.8983 14.9558L23.4042 41.9028C23.2849 42.0583 23.1041 42.1414 22.922 42.1414Z" fill="#66757F"/>
<path d="M48.5825 27.5C48.5825 27.5 44.8058 22.991 29.5893 18.4796C14.3727 13.9681 8.78541 15.6997 8.78541 15.6997C8.78541 15.6997 6.74381 -3.54308 33.6651 4.4389C60.5865 12.4209 48.5825 27.5 48.5825 27.5Z" fill="#DD3730"/>
<path d="M17.5 15.3083C18.8513 15.4696 20.3929 15.7098 22.1417 16.0564L22.238 2.5C20.4507 2.54063 18.9103 2.77725 17.5867 3.16085L17.5 15.3083ZM37.8961 20.6417C39.557 21.2882 40.9842 21.912 42.209 22.5L48.75 12.2311C47.8443 11.1986 46.6773 10.1745 45.1959 9.18141L37.8961 20.6417Z" fill="#F7CFC7"/>
<path d="M37.48 21.25L45 9.4105C42.3163 7.6068 38.6376 5.90433 33.6225 4.44013C28.6075 2.97593 24.5876 2.43149 21.3493 2.5068L21.25 16.5117C23.6161 16.9809 26.3308 17.6315 29.4636 18.5451C32.5964 19.4611 35.233 20.3735 37.48 21.25Z" fill="#BC3722"/>
<path d="M34.3974 44.6333C34.3974 51.2816 29.0077 56.6713 22.3593 56.6713C15.711 56.6713 10.3213 51.2816 10.3213 44.6333C10.3213 37.9849 15.711 32.5952 22.3593 32.5952C29.0077 32.5952 34.3974 37.9849 34.3974 44.6333ZM22.3593 42.6269C21.2512 42.6269 20.353 43.5251 20.353 44.6333C20.353 45.7414 21.2512 46.6396 22.3593 46.6396C23.4675 46.6396 24.3657 45.7414 24.3657 44.6333C24.3657 43.5251 23.4675 42.6269 22.3593 42.6269Z" fill="#BBA2EA"/>
<ellipse cx="22.5" cy="44.375" rx="5" ry="4.375" fill="#BBA2EA"/>
<g clip-path="url(#clip0_12313_121377)">
<path d="M18.6937 40.8762V46.5192L17 47.4958V37.9995L22.0162 40.7406L27 37.9995V39.8445L22.0162 42.7488L18.6937 40.8762Z" fill="#B0B8C7"/>
<path d="M25.3063 48.5057L25.3063 42.9594L27 41.9997L27 51.333L21.9838 48.6389L17 51.333L17 49.5196L21.9838 46.6652L25.3063 48.5057Z" fill="#E3EBFB"/>
</g>
<defs>
<clipPath id="clip0_12313_121377">
<rect width="10" height="13.3333" fill="white" transform="translate(17 37.9995)"/>
</clipPath>
</defs>
</svg>
