<svg width="24" height="24" viewBox="0 0 24 24" fill="none" xmlns="http://www.w3.org/2000/svg">
<g clip-path="url(#clip0_10312_304616)">
<path d="M9.04181 17.636L10.2177 17.0972L9.16518 16.8417L10.08 15.7917L8.37286 16.3403L7.92423 14.9011L7.57097 15.938L6.52115 14.4712L6.8596 16.1836L4.3308 15.3879L6.5817 17.0644L5.40514 17.6022L6.45888 17.8594L5.54387 18.9093L7.251 18.3606L7.69918 19.7992L8.05243 18.7624L9.10235 20.2293L8.76337 18.5173L11.2924 19.3129L9.04181 17.636Z" fill="#FC5E44"/>
<path d="M8.37853 17.4674L8.92677 17.2165L8.44214 17.1104L8.87442 16.632L8.07966 16.8913L7.88448 16.2504L7.7121 16.7181L7.23913 16.0695L7.38096 16.8345L6.2176 16.4984L7.2453 17.2313L6.69617 17.4826L7.18107 17.5882L6.74824 18.067L7.54368 17.8077L7.73884 18.449L7.91102 17.9814L8.38417 18.6303L8.24178 17.8647L9.40531 18.2004L8.37853 17.4674Z" fill="#FEFCFC"/>
<path d="M11.7548 19.4961L8.86321 18.6179L9.2357 20.5453L8.07131 18.9311L7.68068 20.0396L7.19507 18.4654L5.2341 19.1L6.2843 17.9128L5.12467 17.6416L6.40152 17.058L3.86823 15.2041L6.75979 16.0823L6.38839 14.1556L7.55295 15.7694L7.94302 14.6608L8.42901 16.2358L10.391 15.6007L9.33966 16.7876L10.4997 17.0583L9.22258 17.6427L11.7553 19.4963L11.7548 19.4961ZM7.99734 18.4654L8.84386 19.639L8.58536 18.2981L10.579 18.904L8.77901 17.5862L9.78797 17.1247L8.91235 16.9203L9.64902 16.0873L8.29648 16.5252L7.93487 15.3559L7.62613 16.2342L6.77966 15.0607L7.03876 16.4018L5.04419 15.7957L6.84481 17.1136L5.83516 17.5747L6.71097 17.7795L5.97411 18.6121L7.32769 18.1749L7.68814 19.3438L7.99719 18.4654" fill="#F15840"/>
<path d="M7.27297 6.97715L7.39812 8.21746L8.02136 7.34613L8.74737 8.51536L8.7985 6.79022L10.39 6.84951L9.48027 6.19356L11.3098 5.71682L9.48468 5.46922L11.1633 3.43451L8.70417 4.93214L8.58024 3.69149L7.95494 4.56345L7.22904 3.3941L7.17804 5.11923L5.58736 5.05975L6.49686 5.71561L4.6673 6.19246L6.49215 6.43942L4.81353 8.47435L7.27297 6.97715Z" fill="#A8362F"/>
<path d="M7.63419 6.50168L7.70107 7.16883L8.00992 6.70234L8.37759 7.33387L8.39783 6.406L9.19347 6.44298L8.73611 6.08706L9.64921 5.8367L8.73515 5.69731L9.56786 4.6081L8.34291 5.40637L8.27592 4.73815L7.96749 5.20508L7.59963 4.57284L7.57921 5.50146L6.78306 5.46428L7.24039 5.81996L6.32679 6.07037L7.24182 6.20943L6.40952 7.29896L7.63419 6.50168Z" fill="#FCFCFC"/>
<path d="M4.23728 8.89036L6.20047 6.51094L4.07305 6.22349L6.16598 5.678L5.16331 4.95482L6.96718 5.02232L7.0275 3.00592L7.87068 4.36321L8.57421 3.38242L8.711 4.75116L11.5515 3.02161L9.58828 5.40103L11.7145 5.68925L9.62201 6.23503L10.625 6.95775L8.82016 6.89032L8.76006 8.90782L7.91754 7.54958L7.2143 8.5309L7.07685 7.16167L4.23695 8.89083L4.23728 8.89036ZM6.67414 5.76224L5.15255 6.1588L6.63231 6.35936L5.27841 7.99983L7.29714 6.77103L7.40562 7.85273L7.93651 7.11203L8.52814 8.06418L8.56959 6.67336L9.90976 6.72266L9.11504 6.15036L10.6365 5.75381L9.1563 5.55373L10.5109 3.91254L8.4917 5.14182L8.3839 4.05962L7.85253 4.80036L7.26139 3.84817L7.2189 5.23974L5.8795 5.18949L6.67426 5.76212" fill="#F15840"/>
<path d="M15.0015 9.66713L12.593 8.92918L13.5871 10.2583L10.7199 10.2558L13.8489 11.5389L12.1779 13.3111L14.2795 12.7397L13.3626 15.1638L15.61 13.259L17.7124 16.6172L17.3657 12.7506L19.7736 13.4901L18.7803 12.1582L21.6476 12.161L18.5185 10.878L20.189 9.10692L18.0879 9.67806L19.0045 7.25387L16.7586 9.1588L14.6558 5.80047L15.0015 9.66713Z" fill="#FC5E44"/>
<path d="M15.5918 10.4374L14.389 10.0686L14.8853 10.7332L13.4517 10.7321L15.0147 11.3746L14.1803 12.2598L15.2307 11.9744L14.7725 13.1858L15.8964 12.2334L16.9469 13.9128L16.7728 11.9791L17.9775 12.3485L17.4801 11.6841L18.915 11.6854L17.351 11.0422L18.1862 10.1565L17.1362 10.4421L17.5948 9.23012L16.4706 10.1838L15.4192 8.50463L15.5918 10.4374Z" fill="#FEFCFC"/>
<path d="M14.1955 4.83666L16.8088 8.8499L19.4844 6.61045L18.4439 9.42326L20.8343 8.80038L18.9043 10.829L22.7191 12.3827L19.2693 12.355L20.452 13.8875L17.6851 13.0376L18.174 17.5833L15.5607 13.57L12.8848 15.8076L13.9243 12.995L11.5345 13.6186L13.4653 11.5888L9.64823 10.0346L13.0992 10.0637L11.9152 8.53113L14.6837 9.38061L14.1949 4.83594L14.1955 4.83666ZM17.7749 9.94672L18.5313 7.90177L16.6691 9.45901L14.8678 6.69166L15.2145 9.92195L13.0275 9.25074L13.9211 10.4076L11.5009 10.3884L14.1323 11.4599L12.7001 12.9676L14.593 12.4732L13.8367 14.5181L15.6984 12.9599L17.5004 15.7286L17.1532 12.4974L19.3405 13.1698L18.4473 12.0124L20.8671 12.0322L18.2353 10.9589L19.6686 9.45277L17.775 9.94694" fill="#F15840"/>
</g>
<defs>
<clipPath id="clip0_10312_304616">
<rect width="24" height="24" fill="white"/>
</clipPath>
</defs>
</svg>
