<svg width="48" height="48" viewBox="0 0 48 48" fill="none" xmlns="http://www.w3.org/2000/svg">
<g clip-path="url(#clip0_52025_229548)">
<path d="M28.6804 14.4814L28.6504 6.11214L24.3949 11.5796L20.7102 3.33789L19.3977 14.8481L9.86143 13.5296L14.9502 18.4444L3.67018 20.5736L14.5017 23.2871L3.22168 35.9254L18.8824 27.3319L18.9049 35.7026L23.1732 30.2321L26.8572 38.4746L28.1689 26.9644L37.6999 28.2836L32.6127 23.3696L43.8927 21.2396L33.0627 18.5306L44.3427 5.89089L28.6804 14.4814Z" fill="#FBB041"/>
<path d="M26.2249 17.7041L26.2114 13.5378L24.0896 16.2603L22.2529 12.1533L21.5929 17.8871L16.8461 17.2316L19.3804 19.6803L13.7629 20.7408L19.1599 22.0938L13.5371 28.3908L21.3416 24.1053L21.3551 28.2783L23.4746 25.5528L25.3121 29.6643L25.9736 23.9261L30.7234 24.5831L28.1891 22.1358L33.8096 21.0753L28.4066 19.7238L34.0271 13.4246L26.2249 17.7041Z" fill="white"/>
<path d="M47.775 3.17968L34.422 18.1422L47.202 21.3364L34.1407 23.8032L39.8175 29.2887L28.8772 27.7737L27.321 41.3937L22.989 31.7074L18.1282 37.9369L18.1027 28.5874L-0.207031 38.6344L13.146 23.6719L0.373469 20.4732L13.4325 18.0042L7.75347 12.5217L18.6997 14.0367L20.2552 0.40918L24.5827 10.1014L29.442 3.86818L29.4712 13.2214L47.7772 3.17668L47.775 3.17968ZM31.0972 22.9347L40.593 21.1414L31.704 18.9154L40.9125 8.59993L27.9 15.7377L27.8775 8.34868L24.2092 13.0534L21.1695 6.25843L20.097 15.6529L11.9685 14.5332L16.4685 18.8749L6.97347 20.6682L15.8655 22.8912L6.65247 33.2112L19.668 26.0704L19.686 33.4624L23.3572 28.7577L26.394 35.5527L27.4732 26.1537L35.5965 27.2794L31.0965 22.9354" fill="#DF394C"/>
</g>
<defs>
<clipPath id="clip0_52025_229548">
<rect width="48" height="48" fill="white"/>
</clipPath>
</defs>
</svg>
