<svg width="24" height="24" viewBox="0 0 24 24" fill="none" xmlns="http://www.w3.org/2000/svg">
<g clip-path="url(#clip0_53316_27030)">
<g filter="url(#filter0_d_53316_27030)">
<path d="M13.1668 23.7248C19.6679 23.0831 24.4159 17.3133 23.7718 10.8375C23.1277 4.36174 17.3354 -0.367804 10.8343 0.273807C4.33317 0.915418 -0.414851 6.68522 0.229266 13.161C0.873383 19.6368 6.66572 24.3664 13.1668 23.7248Z" fill="#EDF0F2"/>
</g>
<path d="M19.5112 21.1036C17.7036 22.583 15.4962 23.4953 13.168 23.7251C10.0461 24.0332 6.92913 23.0933 4.50288 21.1123C2.07663 19.1312 0.539809 16.2712 0.230495 13.1614C-0.000172287 10.8423 0.464711 8.50718 1.56636 6.45129C2.668 4.3954 4.35693 2.71108 6.41957 1.61134C8.4822 0.511588 10.8259 0.0458001 13.1543 0.272873C15.4827 0.499947 17.6912 1.40969 19.5006 2.88704L17.1146 5.7865C15.8809 4.77921 14.3751 4.15894 12.7875 4.00411C11.2001 3.84929 9.60209 4.16688 8.1957 4.9167C6.78936 5.66653 5.63782 6.81494 4.88669 8.21668C4.13558 9.61841 3.81861 11.2105 3.97589 12.7917C4.18678 14.912 5.23461 16.862 6.88888 18.2127C8.54314 19.5635 10.6683 20.2044 12.7969 19.9943C14.3843 19.8376 15.8893 19.2156 17.1218 18.2069L19.5112 21.1036Z" fill="url(#paint0_linear_53316_27030)"/>
<path d="M12.0005 22.3643C17.7477 22.3643 22.4067 17.7235 22.4067 11.9986C22.4067 6.27372 17.7477 1.63281 12.0005 1.63281C6.25328 1.63281 1.59424 6.27372 1.59424 11.9986C1.59424 17.7235 6.25328 22.3643 12.0005 22.3643Z" fill="white"/>
<path d="M16.31 10.742H15.4043C14.9057 9.36331 13.5649 8.41797 11.7965 8.41797H8.88849V10.742H7.87842V11.5758H8.88849V12.4502H7.87842V13.2839H8.88849V15.58H11.7965C13.5445 15.58 14.8751 14.6424 15.3865 13.2839H16.31V12.4502H15.59C15.6079 12.3032 15.6181 12.151 15.6181 11.999V11.9787C15.6181 11.8418 15.6104 11.7076 15.5976 11.5758H16.3126V10.742H16.31ZM9.70264 9.16053H11.7965C13.0941 9.16053 14.0585 9.79661 14.5037 10.7394H9.70264V9.16053ZM11.7965 14.8299H9.70264V13.2814H14.4986C14.0508 14.209 13.0891 14.8299 11.7965 14.8299ZM14.7759 12.0168C14.7759 12.1637 14.7657 12.3082 14.7454 12.4476H9.70264V11.5733H14.7479C14.7657 11.7101 14.7759 11.852 14.7759 11.9965V12.0168Z" fill="url(#paint1_linear_53316_27030)"/>
</g>
<defs>
<filter id="filter0_d_53316_27030" x="-45.8291" y="-41.7852" width="115.66" height="115.568" filterUnits="userSpaceOnUse" color-interpolation-filters="sRGB">
<feFlood flood-opacity="0" result="BackgroundImageFix"/>
<feColorMatrix in="SourceAlpha" type="matrix" values="0 0 0 0 0 0 0 0 0 0 0 0 0 0 0 0 0 0 127 0" result="hardAlpha"/>
<feOffset dy="4"/>
<feGaussianBlur stdDeviation="23"/>
<feColorMatrix type="matrix" values="0 0 0 0 0 0 0 0 0 0 0 0 0 0 0 0 0 0 0.08 0"/>
<feBlend mode="normal" in2="BackgroundImageFix" result="effect1_dropShadow_53316_27030"/>
<feBlend mode="normal" in="SourceGraphic" in2="effect1_dropShadow_53316_27030" result="shape"/>
</filter>
<linearGradient id="paint0_linear_53316_27030" x1="9.04451" y1="1.44415" x2="12.7259" y2="21.934" gradientUnits="userSpaceOnUse">
<stop stop-color="#27D3A2"/>
<stop offset="1" stop-color="#9388FD"/>
</linearGradient>
<linearGradient id="paint1_linear_53316_27030" x1="12.0955" y1="7.40334" x2="12.0955" y2="16.3321" gradientUnits="userSpaceOnUse">
<stop stop-color="#283947"/>
<stop offset="1" stop-color="#657786"/>
</linearGradient>
<clipPath id="clip0_53316_27030">
<rect width="24" height="24" fill="white"/>
</clipPath>
</defs>
</svg>
