<svg width="8" height="13" viewBox="0 0 8 13" fill="none" xmlns="http://www.w3.org/2000/svg">
<path d="M4.3752 5.8125C2.95645 5.44375 2.5002 5.0625 2.5002 4.46875C2.5002 3.7875 3.13145 3.3125 4.1877 3.3125C5.3002 3.3125 5.7127 3.84375 5.7502 4.625H7.13144C7.0877 3.55 6.43145 2.5625 5.1252 2.24375V0.875H3.2502V2.225C2.0377 2.4875 1.0627 3.275 1.0627 4.48125C1.0627 5.925 2.25645 6.64375 4.0002 7.0625C5.5627 7.4375 5.8752 7.9875 5.8752 8.56875C5.8752 9 5.56895 9.6875 4.1877 9.6875C2.9002 9.6875 2.39395 9.1125 2.3252 8.375H0.950195C1.0252 9.74375 2.0502 10.5125 3.2502 10.7688V12.125H5.1252V10.7812C6.34395 10.55 7.3127 9.84375 7.3127 8.5625C7.3127 6.7875 5.79395 6.18125 4.3752 5.8125Z" fill="#4B526A"/>
</svg>
