<svg width="10" height="10" viewBox="0 0 10 10" fill="none" xmlns="http://www.w3.org/2000/svg">
<path fill-rule="evenodd" clip-rule="evenodd" d="M1.87467 1.66659C1.75962 1.66659 1.66634 1.75986 1.66634 1.87492V8.12492C1.66634 8.23998 1.75961 8.33325 1.87467 8.33325H8.12467C8.23974 8.33325 8.33301 8.23999 8.33301 8.12492V6.14027C8.33301 5.91015 8.51956 5.72361 8.74967 5.72361C8.97979 5.72361 9.16634 5.91015 9.16634 6.14027V8.12492C9.16634 8.70023 8.69998 9.16659 8.12467 9.16659H1.87467C1.29938 9.16659 0.833008 8.70023 0.833008 8.12492V1.87492C0.833008 1.29962 1.29938 0.833252 1.87467 0.833252H3.74967C3.97979 0.833252 4.16634 1.0198 4.16634 1.24992C4.16634 1.48004 3.97979 1.66659 3.74967 1.66659H1.87467ZM8.33301 2.25578V4.58325C8.33301 4.81337 8.51956 4.99992 8.74967 4.99992C8.97979 4.99992 9.16634 4.81337 9.16634 4.58325V1.24992C9.16634 1.0198 8.97979 0.833252 8.74967 0.833252H5.41634C5.18622 0.833252 4.99967 1.0198 4.99967 1.24992C4.99967 1.48004 5.18622 1.66659 5.41634 1.66659H7.74369L5.08001 4.33027C4.91729 4.49299 4.91729 4.75681 5.08001 4.91953C5.24272 5.08225 5.50654 5.08225 5.66926 4.91953L8.33301 2.25578Z" fill="#B794F6"/>
</svg>
