<svg width="24" height="24" viewBox="0 0 24 24" fill="none" xmlns="http://www.w3.org/2000/svg">
<path d="M0 12C0 5.37258 5.37258 0 12 0C18.6274 0 24 5.37258 24 12C24 18.6274 18.6274 24 12 24C5.37258 24 0 18.6274 0 12Z" fill="#000F45" fill-opacity="0.12"/>
<path d="M11.9983 2.22852L11.8672 2.67386V15.5956L11.9983 15.7264L17.9963 12.1809L11.9983 2.22852Z" fill="#607EE8"/>
<path d="M11.9982 2.22852L6 12.1809L11.9982 15.7264V9.45454V2.22852Z" fill="#607EE8"/>
<path d="M11.9977 16.862L11.9238 16.9521V21.555L11.9977 21.7707L17.9994 13.3184L11.9977 16.862Z" fill="#607EE8"/>
<path d="M11.9982 21.7707V16.862L6 13.3184L11.9982 21.7707Z" fill="#607EE8"/>
<path d="M11.998 15.7264L17.9961 12.181L11.998 9.45459V15.7264Z" fill="#607EE8"/>
<path d="M6 12.181L11.9982 15.7264V9.45459L6 12.181Z" fill="#607EE8"/>
</svg>
