<svg width="60" height="60" viewBox="0 0 60 60" fill="none" xmlns="http://www.w3.org/2000/svg">
  <path d="M36.0729 54.8601C39.7339 53.231 42.1139 49.9127 43.5271 46.7134C45.7366 41.7113 53.5408 39.6432 55.4797 38.2179C58.1713 36.24 55.6989 32.2364 51.6971 32.8985C47.3849 33.6124 46.3442 35.5561 43.745 36.7338C42.419 37.3329 41.4826 37.14 41.3056 34.6055C41.1762 32.7466 43.4927 18.1411 44.198 11.4073C44.4397 9.10254 43.5125 7.78944 41.7216 7.54187C39.693 7.26146 38.643 8.40496 38.2138 10.51C37.144 15.7515 35.4482 26.0265 34.7363 26.6065C30.9115 29.0918 25.8121 32.3431 21.2543 26.0279C21.2543 26.0279 19.0738 14.1812 18.7343 11.7903C18.1466 7.65129 12.7501 8.39812 13.1926 12.7136C13.6073 16.7787 14.895 26.3712 13.7671 29.7785C12.7765 32.7726 11.0279 43.049 14.8805 49.3068C18.6815 55.4811 28.8274 58.0841 36.0729 54.8601Z" fill="#7340D3" />
  <path d="M22.449 38.2349C23.5914 43.9196 30.2228 43.2808 29.8041 37.8656C29.4647 33.4612 28.173 25.7659 27.753 23.8427C26.8972 19.9075 20.279 20.7816 20.8205 25.428C21.1718 28.4441 21.5601 33.81 22.449 38.2349Z" fill="#2D2D39" />
  <path d="M23.6692 37.6577C24.7192 42.3753 29.5188 41.0636 29.2744 36.6537C29.0301 32.2425 28.0448 25.5211 27.7437 23.5733C27.0384 19.0239 21.3963 21.0715 21.8546 24.4227C22.3129 27.7739 22.8861 34.1397 23.6692 37.6577Z" fill="#7340D3" />
  <path d="M27.5945 39.4752C27.6856 46.2363 34.9654 45.8684 35.536 40.8074C36.0313 36.4195 34.9826 26.7463 34.9047 24.7739C34.7581 21.104 28.2812 21.078 28.0686 25.2458C27.8969 28.627 27.5456 35.8655 27.5945 39.4752Z" fill="#2D2D39" />
  <path d="M28.8328 39.6747C28.6465 43.8793 34.1342 44.3553 34.5317 39.9578C34.9306 35.5603 34.8355 26.1579 34.8038 24.1869C34.7496 20.7564 29.2118 20.8781 29.056 25.091C28.9318 28.4723 28.9912 36.0677 28.8328 39.6747Z" fill="#7340D3" />
  <path d="M46.7764 15.4902L48.2157 18.4376" stroke="#693BCC" stroke-width="1.31201" stroke-linecap="round" />
  <path d="M6.74414 2.62891L7.41384 5.83983" stroke="#693BCC" stroke-width="1.31201" stroke-linecap="round" />
  <path d="M49.9238 21.9355L51.3631 24.8829" stroke="#693BCC" stroke-width="1.31201" stroke-linecap="round" />
  <path d="M8.20898 9.6543L8.87868 12.8652" stroke="#693BCC" stroke-width="1.31201" stroke-linecap="round" />
  <path d="M50.6973 19.2773L53.6446 17.8381" stroke="#693BCC" stroke-width="1.31201" stroke-linecap="round" />
  <path d="M9.61133 7.26758L12.8223 6.59788" stroke="#693BCC" stroke-width="1.31201" stroke-linecap="round" />
  <path d="M44.2363 22.4336L47.1837 20.9943" stroke="#693BCC" stroke-width="1.31201" stroke-linecap="round" />
  <path d="M2.57227 8.73438L5.78319 8.06468" stroke="#693BCC" stroke-width="1.31201" stroke-linecap="round" />
</svg>
  