<svg width="48" height="48" viewBox="0 0 48 48" fill="none" xmlns="http://www.w3.org/2000/svg">
  <path d="M38.4284 27.9801C38.4284 25.9157 38.0954 23.9364 37.4846 22.1053C37.0671 27.5006 34.4597 30.2718 31.7352 28.9813C29.1831 27.7719 30.9029 23.0574 31.03 20.8078C31.2442 16.9943 31.0191 12.6292 24.7397 9C27.3489 14.5064 25.0419 17.9274 22.6223 18.1357C19.9377 18.3669 17.4792 15.5907 18.3867 11.0854C15.448 13.4742 15.3627 17.4949 16.2694 20.0959C17.2151 22.8071 16.2313 25.0597 13.9251 25.31C11.3477 25.5904 9.91552 22.2655 11.236 16.9673C8.95079 19.9358 7.57129 23.7802 7.57129 27.9801C7.57129 37.3801 14.4788 45 22.9999 45C31.521 45 38.4284 37.3801 38.4284 27.9801Z" fill="#150662" />
  <path d="M31.9087 30.0158C32.0356 32.9855 29.7136 34.1497 28.4639 33.5873C26.6587 32.7756 27.143 31.3813 26.6784 28.4924C26.2139 25.6036 24.4284 23.5979 21.7859 22.7148C23.7144 28.8131 20.717 31.0606 19.1459 31.4621C17.5413 31.8723 15.929 31.4612 15.7447 27.6037C13.8727 29.6971 12.7139 32.5936 12.7139 35.7944C12.7139 36.1487 12.7336 36.4973 12.761 36.844C15.3924 39.7655 19.007 41.572 22.9996 41.572C26.9922 41.572 30.6067 39.7655 33.2382 36.844C33.2656 36.4973 33.2853 36.1487 33.2853 35.7944C33.2853 33.6884 32.7847 31.7154 31.9087 30.0158Z" fill="#B794F6" />
  <path d="M40.5 13L35 20L41 17.5L40.5 13Z" fill="#7340D3" />
  <path d="M39.2763 10.7335L34.9996 8.43741L36.7476 11.2632L39.2763 10.7335Z" fill="#7340D3" />
  <path d="M7.18678 38.9677L4.3448 30.9999L3.78282 35.1044L7.18678 38.9677Z" fill="#7340D3" />
  <path d="M11.0139 10.3269L8 9.14648L12.9819 9.19074L13.8249 10.651L12.2549 13.9913L11.0139 10.3269Z" fill="#7340D3" />
</svg>
  