<svg width="24" height="24" viewBox="0 0 24 24" fill="none" xmlns="http://www.w3.org/2000/svg">
<path d="M22.41 11.58L13.41 2.58C13.05 2.22 12.55 2 12 2H5C3.9 2 3 2.9 3 4V11C3 11.55 3.22 12.05 3.59 12.42L12.59 21.42C12.95 21.78 13.45 22 14 22C14.55 22 15.05 21.78 15.41 21.41L22.41 14.41C22.78 14.05 23 13.55 23 13C23 12.45 22.77 11.94 22.41 11.58ZM14 20.01L5 11V4H12V3.99L21 12.99L14 20.01Z" fill="#F4B1A3"/>
<path d="M8.5 9C9.32843 9 10 8.32843 10 7.5C10 6.67157 9.32843 6 8.5 6C7.67157 6 7 6.67157 7 7.5C7 8.32843 7.67157 9 8.5 9Z" fill="#F4B1A3"/>
</svg>
