<svg width="32" height="32" viewBox="0 0 32 32" fill="none" xmlns="http://www.w3.org/2000/svg">
<path fill-rule="evenodd" clip-rule="evenodd" d="M5 16C5 9.92487 9.92487 5 16 5C22.0751 5 27 9.92487 27 16C27 22.0751 22.0751 27 16 27C9.92487 27 5 22.0751 5 16ZM16 3C8.8203 3 3 8.8203 3 16C3 23.1797 8.8203 29 16 29C23.1797 29 29 23.1797 29 16C29 8.8203 23.1797 3 16 3ZM11.7929 11.7929C12.1834 11.4024 12.8166 11.4024 13.2071 11.7929L18.5 17.0858V13.5C18.5 12.9477 18.9477 12.5 19.5 12.5C20.0523 12.5 20.5 12.9477 20.5 13.5V19.4993V19.5L20.5 19.503C20.4992 19.7579 20.4016 20.0126 20.2071 20.2071C20.1112 20.303 20.0007 20.3753 19.8828 20.4241C19.7657 20.4727 19.6375 20.4996 19.503 20.5L19.5 20.5H19.4993H13.5C12.9477 20.5 12.5 20.0523 12.5 19.5C12.5 18.9477 12.9477 18.5 13.5 18.5H17.0858L11.7929 13.2071C11.4024 12.8166 11.4024 12.1834 11.7929 11.7929Z" fill="white"/>
</svg>
