<svg width="43" height="37" viewBox="0 0 43 37" fill="none" xmlns="http://www.w3.org/2000/svg">
<path d="M0 6C0 2.68629 2.68629 0 6 0H43V37H6C2.68629 37 0 34.3137 0 31V6Z" fill="#373D4A"/>
<path d="M18 16.5H18.5V16V12V11.5H18H14H13.5V12V16V16.5H14H18ZM18 26.5H18.5V26V22V21.5H18H14H13.5V22V26V26.5H14H18ZM28 16.5H28.5V16V12V11.5H28H24H23.5V12V16V16.5H24H28ZM28 26.5H28.5V26V22V21.5H28H24H23.5V22V26V26.5H24H28ZM19.5 17.5H12.5V10.5H19.5V17.5ZM19.5 27.5H12.5V20.5H19.5V27.5ZM29.5 17.5H22.5V10.5H29.5V17.5ZM29.5 27.5H22.5V20.5H29.5V27.5Z" stroke="white"/>
</svg>
