<svg width="16" height="16" viewBox="0 0 16 16" fill="none" xmlns="http://www.w3.org/2000/svg">
<path d="M14.8075 7.685L8.0575 0.935C7.7875 0.665 7.4125 0.5 7 0.5H1.75C0.925 0.5 0.25 1.175 0.25 2V7.25C0.25 7.6625 0.415 8.0375 0.6925 8.315L7.4425 15.065C7.7125 15.335 8.0875 15.5 8.5 15.5C8.9125 15.5 9.2875 15.335 9.5575 15.0575L14.8075 9.8075C15.085 9.5375 15.25 9.1625 15.25 8.75C15.25 8.3375 15.0775 7.955 14.8075 7.685ZM8.5 14.0075L1.75 7.25V2H7V1.9925L13.75 8.7425L8.5 14.0075Z" fill="#FFDAD5"/>
</svg>
