<svg width="24" height="24" viewBox="0 0 24 24" fill="none" xmlns="http://www.w3.org/2000/svg">
<circle cx="12" cy="12" r="12" fill="#16FBF0"/>
<g clip-path="url(#clip0_51973_177508)">
<path d="M8.36065 8.20993V13.853L6.66699 14.8295V5.33325L11.6832 8.07436L16.667 5.33325V7.17827L11.6832 10.0825L8.36065 8.20993Z" fill="#1D1C29"/>
<path d="M8.14494 15.9622L8.01074 16.0403H8.14494V15.9622Z" fill="#1D1C29"/>
<path d="M9.09235 16.449H8.5625V16.9705H9.09235V16.449Z" fill="#1D1C29"/>
<path d="M10.0377 15.5188H9.50781V16.0404H10.0377V15.5188Z" fill="#1D1C29"/>
<path d="M10.9849 15.5188H10.4551V16.0404H10.9849V15.5188Z" fill="#1D1C29"/>
<path d="M8.5625 16.0404H9.09235V15.5188H8.90493L8.5625 15.7187V16.0404Z" fill="#1D1C29"/>
<path d="M10.4551 16.449V16.5845L10.7026 16.449H10.4551Z" fill="#1D1C29"/>
<path d="M8.5625 17.3801V17.626L9.01137 17.3801H8.5625Z" fill="#1D1C29"/>
<path d="M7.19684 16.9707V16.5134L6.66699 16.8213V16.9707H7.19684Z" fill="#1D1C29"/>
<path d="M10.0377 16.449H9.50781V16.9705H9.75307L10.0377 16.812V16.449Z" fill="#1D1C29"/>
<path d="M7.19684 17.3799H6.66699V17.9014H7.19684V17.3799Z" fill="#1D1C29"/>
<path d="M8.14544 17.3801H7.61328V17.8994H8.06215L8.14544 17.8557V17.3801Z" fill="#1D1C29"/>
<path d="M10.0378 14.8567L9.60742 15.1094H10.0378V14.8567Z" fill="#1D1C29"/>
<path d="M14.2422 16.0404H14.7743V15.6773L14.4898 15.5188H14.2422V16.0404Z" fill="#1D1C29"/>
<path d="M14.772 16.449H14.2422V16.9705H14.772V16.449Z" fill="#1D1C29"/>
<path d="M13.2959 15.1099H13.7633L13.2959 14.8457V15.1099Z" fill="#1D1C29"/>
<path d="M7.19684 18.3083H6.66699V18.6668L7.19684 18.375V18.3083Z" fill="#1D1C29"/>
<path d="M11.9335 15.5188H11.4014V16.0404H11.4453L11.6513 15.9255L11.8595 16.0404H11.9335V15.5188Z" fill="#1D1C29"/>
<path d="M12.3496 15.1099H12.8795V14.6114L12.8401 14.5884H12.3496V15.1099Z" fill="#1D1C29"/>
<path d="M11.4014 14.1793H11.9335V14.0782L11.6513 13.9197L11.4014 14.0644V14.1793Z" fill="#1D1C29"/>
<path d="M13.8257 15.5188H13.2959V16.0404H13.8257V15.5188Z" fill="#1D1C29"/>
<path d="M11.9312 14.5884H11.4014V15.1099H11.9312V14.5884Z" fill="#1D1C29"/>
<path d="M10.4551 15.1099H10.9849V14.5884H10.5014L10.4551 14.616V15.1099Z" fill="#1D1C29"/>
<path d="M12.8795 15.5188H12.3496V16.0404H12.8795V15.5188Z" fill="#1D1C29"/>
<path d="M8.14313 16.449H7.61328V16.9705H8.14313V16.449Z" fill="#1D1C29"/>
<path d="M15.7203 13.658H15.1904V14.1795H15.7203V13.658Z" fill="#1D1C29"/>
<path d="M15.7203 16.449H15.1904V16.9705H15.7203V16.449Z" fill="#1D1C29"/>
<path d="M12.8804 16.449H12.6074L12.8804 16.5983V16.449Z" fill="#1D1C29"/>
<path d="M15.1904 10.4596H15.7203V9.93799H15.3362L15.1904 10.023V10.4596Z" fill="#1D1C29"/>
<path d="M15.7203 15.5188H15.1904V16.0404H15.7203V15.5188Z" fill="#1D1C29"/>
<path d="M16.6666 9.93799H16.1367V10.4596H16.6666V9.93799Z" fill="#1D1C29"/>
<path d="M15.7203 12.7271H15.1904V13.2486H15.7203V12.7271Z" fill="#1D1C29"/>
<path d="M16.6666 18.3083H16.1367V18.3773L16.6666 18.6668V18.3083Z" fill="#1D1C29"/>
<path d="M16.1367 9.476V9.52884H16.6666V9.17041L16.1367 9.476Z" fill="#1D1C29"/>
<path d="M15.7203 10.8689H15.1904V11.3905H15.7203V10.8689Z" fill="#1D1C29"/>
<path d="M15.7203 11.7966H15.1904V12.3182H15.7203V11.7966Z" fill="#1D1C29"/>
<path d="M15.7203 14.5884H15.1904V15.1099H15.7203V14.5884Z" fill="#1D1C29"/>
<path d="M16.6666 16.449H16.1367V16.9705H16.6666V16.449Z" fill="#1D1C29"/>
<path d="M15.7203 17.3801H15.1904V17.8603L15.2622 17.8994H15.7203V17.3801Z" fill="#1D1C29"/>
<path d="M13.8257 16.449H13.2959V16.8258L13.562 16.9705H13.8257V16.449Z" fill="#1D1C29"/>
<path d="M14.7756 17.3801H14.3105L14.7756 17.6329V17.3801Z" fill="#1D1C29"/>
<path d="M16.6666 17.3801H16.1367V17.9017H16.6666V17.3801Z" fill="#1D1C29"/>
<path d="M16.6666 10.8689H16.1367V11.3905H16.6666V10.8689Z" fill="#1D1C29"/>
<path d="M16.6666 12.7271H16.1367V13.2486H16.6666V12.7271Z" fill="#1D1C29"/>
<path d="M16.6666 11.7966H16.1367V12.3182H16.6666V11.7966Z" fill="#1D1C29"/>
<path d="M16.6666 15.5188H16.1367V16.0404H16.6666V15.5188Z" fill="#1D1C29"/>
<path d="M16.6666 14.5884H16.1367V15.1099H16.6666V14.5884Z" fill="#1D1C29"/>
<path d="M16.6666 13.658H16.1367V14.1795H16.6666V13.658Z" fill="#1D1C29"/>
</g>
<defs>
<clipPath id="clip0_51973_177508">
<rect width="10" height="13.3333" fill="white" transform="translate(6.66699 5.33325)"/>
</clipPath>
</defs>
</svg>
