<svg width="48" height="48" viewBox="0 0 48 48" fill="none" xmlns="http://www.w3.org/2000/svg">
<path d="M38.4287 27.9801C38.4287 25.9157 38.0956 23.9364 37.4848 22.1053C37.0673 27.5006 34.4599 30.2718 31.7354 28.9813C29.1833 27.7719 30.9032 23.0574 31.0302 20.8078C31.2444 16.9943 31.0193 12.6292 24.7399 9C27.3491 14.5064 25.0421 17.9274 22.6226 18.1357C19.938 18.3669 17.4794 15.5907 18.387 11.0854C15.4483 13.4742 15.363 17.4949 16.2696 20.0959C17.2153 22.8071 16.2315 25.0597 13.9254 25.31C11.3479 25.5904 9.91577 22.2655 11.2363 16.9673C8.95103 19.9358 7.57153 23.7802 7.57153 27.9801C7.57153 37.3801 14.479 45 23.0001 45C31.5212 45 38.4287 37.3801 38.4287 27.9801Z" fill="#00504B"/>
<path d="M31.9091 30.0149C32.0359 32.9846 29.714 34.1488 28.4642 33.5864C26.6591 32.7747 27.1434 31.3803 26.6788 28.4915C26.2142 25.6027 24.4288 23.5969 21.7862 22.7139C23.7148 28.8122 20.7174 31.0597 19.1462 31.4612C17.5417 31.8714 15.9294 31.4603 15.7451 27.6027C13.8731 29.6962 12.7142 32.5927 12.7142 35.7935C12.7142 36.1478 12.7339 36.4964 12.7614 36.8431C15.3928 39.7646 19.0074 41.5711 22.9999 41.5711C26.9925 41.5711 30.6071 39.7646 33.2385 36.8431C33.266 36.4964 33.2857 36.1478 33.2857 35.7935C33.2857 33.6875 32.7851 31.7145 31.9091 30.0149Z" fill="#AFFFF9"/>
<path d="M40.5002 12.9997L35.0002 19.9997L41.0002 17.4997L40.5002 12.9997Z" fill="#1EFCF1"/>
<path d="M39.2761 10.7338L34.9993 8.4377L36.7474 11.2635L39.2761 10.7338Z" fill="#1EFCF1"/>
<path d="M7.18666 38.9677L4.34467 30.9999L3.78269 35.1045L7.18666 38.9677Z" fill="#1EFCF1"/>
<path d="M11.0142 10.327L8.00024 9.14659L12.9821 9.19084L13.8252 10.6511L12.2551 13.9914L11.0142 10.327Z" fill="#1EFCF1"/>
</svg>
