<svg width="24" height="24" viewBox="0 0 24 24" fill="none" xmlns="http://www.w3.org/2000/svg">
<path fill-rule="evenodd" clip-rule="evenodd" d="M12 23C18.0751 23 23 18.0751 23 12C23 5.92487 18.0751 1 12 1C5.92487 1 1 5.92487 1 12C1 18.0751 5.92487 23 12 23ZM12 24C18.6274 24 24 18.6274 24 12C24 5.37258 18.6274 0 12 0C5.37258 0 0 5.37258 0 12C0 18.6274 5.37258 24 12 24Z" fill="#B0B8C7"/>
<g clip-path="url(#clip0_6397_234965)">
<path d="M8.36065 8.21002V13.8531L6.66699 14.8296V5.33334L11.6832 8.07445L16.667 5.33334V7.17837L11.6832 10.0826L8.36065 8.21002Z" fill="#B0B8C7"/>
<path d="M14.9733 15.8394L14.9733 10.2931L16.667 9.33335L16.667 18.6667L11.6508 15.9726L6.66699 18.6667L6.66699 16.8533L11.6508 13.9989L14.9733 15.8394Z" fill="#E3EBFB"/>
</g>
<defs>
<clipPath id="clip0_6397_234965">
<rect width="10" height="13.3333" fill="white" transform="translate(6.66699 5.33334)"/>
</clipPath>
</defs>
</svg>
