<svg width="20" height="20" viewBox="0 0 20 20" fill="none" xmlns="http://www.w3.org/2000/svg">
  <path fill-rule="evenodd" clip-rule="evenodd" d="M10 19.1667C15.0626 19.1667 19.1667 15.0626 19.1667 10C19.1667 4.93739 15.0626 0.833333 10 0.833333C4.93739 0.833333 0.833333 4.93739 0.833333 10C0.833333 15.0626 4.93739 19.1667 10 19.1667ZM10 20C15.5228 20 20 15.5228 20 10C20 4.47715 15.5228 0 10 0C4.47715 0 0 4.47715 0 10C0 15.5228 4.47715 20 10 20Z" fill="#B0B8C7" />
  <g clip-path="url(#clip0_1758_44783)">
    <path d="M6.96705 6.84254V11.5451L5.55566 12.3588V4.44531L9.73583 6.72957L13.889 4.44531V5.98283L9.73583 8.40304L6.96705 6.84254Z" fill="#B0B8C7" />
    <path d="M12.4773 13.2005L12.4773 8.57866L13.8887 7.77886L13.8887 15.5566L9.70851 13.3116L5.55534 15.5566L5.55534 14.0455L9.70851 11.6668L12.4773 13.2005Z" fill="#E3EBFB" />
  </g>
  <defs>
    <clipPath id="clip0_1758_44783">
      <rect width="8.33333" height="11.1111" fill="white" transform="translate(5.55566 4.44531)" />
    </clipPath>
  </defs>
</svg>
  