<svg width="64" height="64" viewBox="0 0 64 64" fill="none" xmlns="http://www.w3.org/2000/svg">
<path d="M53.333 10.6666V42.6666H21.333V10.6666H53.333ZM53.333 5.33331H21.333C18.3997 5.33331 15.9997 7.73331 15.9997 10.6666V42.6666C15.9997 45.6 18.3997 48 21.333 48H53.333C56.2663 48 58.6663 45.6 58.6663 42.6666V10.6666C58.6663 7.73331 56.2663 5.33331 53.333 5.33331ZM30.6663 31.12L35.173 37.1466L41.7863 28.88L50.6663 40H23.9997L30.6663 31.12ZM5.33301 16V53.3333C5.33301 56.2666 7.73301 58.6666 10.6663 58.6666H47.9997V53.3333H10.6663V16H5.33301Z" fill="#00A299"/>
</svg>
