<svg width="48" height="48" viewBox="0 0 48 48" fill="none" xmlns="http://www.w3.org/2000/svg">
<path d="M10 21H38V23.3158H10V21ZM27.5 38.3684C27.5 40.9251 26.576 43 24 43C21.4228 43 20.5 40.9251 20.5 38.3684C20.5 35.8118 21.4228 36.0526 24 36.0526C26.576 36.0526 27.5 35.8118 27.5 38.3684Z" fill="#292F33"/>
<path d="M24 39C16.0476 39 12 40.6116 12 42.6V45H36V42.6C36 40.6116 31.9524 39 24 39Z" fill="#66757F"/>
<path d="M24 3C18.4767 3 14 7.78444 14 13.6875V22H34V13.6875C34 7.78444 29.5233 3 24 3Z" fill="#99AAB5"/>
<path d="M21.1155 8.07677C22.0714 8.07677 22.8463 7.30188 22.8463 6.346C22.8463 5.39013 22.0714 4.61523 21.1155 4.61523C20.1597 4.61523 19.3848 5.39013 19.3848 6.346C19.3848 7.30188 20.1597 8.07677 21.1155 8.07677Z" fill="#292F33"/>
<path d="M26.8841 8.07677C27.84 8.07677 28.6149 7.30188 28.6149 6.346C28.6149 5.39013 27.84 4.61523 26.8841 4.61523C25.9282 4.61523 25.1533 5.39013 25.1533 6.346C25.1533 7.30188 25.9282 8.07677 26.8841 8.07677Z" fill="#292F33"/>
<path d="M23.4232 12.692C24.379 12.692 25.1539 11.9171 25.1539 10.9612C25.1539 10.0054 24.379 9.23047 23.4232 9.23047C22.4673 9.23047 21.6924 10.0054 21.6924 10.9612C21.6924 11.9171 22.4673 12.692 23.4232 12.692Z" fill="#292F33"/>
<path d="M29.1917 12.692C30.1476 12.692 30.9225 11.9171 30.9225 10.9612C30.9225 10.0054 30.1476 9.23047 29.1917 9.23047C28.2358 9.23047 27.4609 10.0054 27.4609 10.9612C27.4609 11.9171 28.2358 12.692 29.1917 12.692Z" fill="#292F33"/>
<path d="M17.6536 12.692C18.6095 12.692 19.3844 11.9171 19.3844 10.9612C19.3844 10.0054 18.6095 9.23047 17.6536 9.23047C16.6977 9.23047 15.9229 10.0054 15.9229 10.9612C15.9229 11.9171 16.6977 12.692 17.6536 12.692Z" fill="#292F33"/>
<path d="M21.1155 17.3072C22.0714 17.3072 22.8463 16.5323 22.8463 15.5765C22.8463 14.6206 22.0714 13.8457 21.1155 13.8457C20.1597 13.8457 19.3848 14.6206 19.3848 15.5765C19.3848 16.5323 20.1597 17.3072 21.1155 17.3072Z" fill="#292F33"/>
<path d="M15.346 17.3072C16.3019 17.3072 17.0768 16.5323 17.0768 15.5765C17.0768 14.6206 16.3019 13.8457 15.346 13.8457C14.3901 13.8457 13.6152 14.6206 13.6152 15.5765C13.6152 16.5323 14.3901 17.3072 15.346 17.3072Z" fill="#292F33"/>
<path d="M26.8841 17.3072C27.84 17.3072 28.6149 16.5323 28.6149 15.5765C28.6149 14.6206 27.84 13.8457 26.8841 13.8457C25.9282 13.8457 25.1533 14.6206 25.1533 15.5765C25.1533 16.5323 25.9282 17.3072 26.8841 17.3072Z" fill="#292F33"/>
<path d="M32.6536 17.3072C33.6095 17.3072 34.3844 16.5323 34.3844 15.5765C34.3844 14.6206 33.6095 13.8457 32.6536 13.8457C31.6977 13.8457 30.9229 14.6206 30.9229 15.5765C30.9229 16.5323 31.6977 17.3072 32.6536 17.3072Z" fill="#292F33"/>
<path d="M23.4232 21.9225C24.379 21.9225 25.1539 21.1476 25.1539 20.1917C25.1539 19.2358 24.379 18.4609 23.4232 18.4609C22.4673 18.4609 21.6924 19.2358 21.6924 20.1917C21.6924 21.1476 22.4673 21.9225 23.4232 21.9225Z" fill="#292F33"/>
<path d="M29.1917 21.9225C30.1476 21.9225 30.9225 21.1476 30.9225 20.1917C30.9225 19.2358 30.1476 18.4609 29.1917 18.4609C28.2358 18.4609 27.4609 19.2358 27.4609 20.1917C27.4609 21.1476 28.2358 21.9225 29.1917 21.9225Z" fill="#292F33"/>
<path d="M17.6536 21.9225C18.6095 21.9225 19.3844 21.1476 19.3844 20.1917C19.3844 19.2358 18.6095 18.4609 17.6536 18.4609C16.6977 18.4609 15.9229 19.2358 15.9229 20.1917C15.9229 21.1476 16.6977 21.9225 17.6536 21.9225Z" fill="#292F33"/>
<path d="M14 21V23.1262C14 28.5798 18.4767 33 24 33C29.5233 33 34 28.5798 34 23.1262V21H14Z" fill="#66757F"/>
<path d="M37.8462 20C37.2081 20 36.6923 20.504 36.6923 21.125V23.375C36.6923 30.2083 31.0096 35.75 24 35.75C16.9904 35.75 11.3077 30.2083 11.3077 23.375V21.125C11.3077 20.504 10.7908 20 10.1538 20C9.51692 20 9 20.504 9 21.125V23.375C9 31.4525 15.7154 38 24 38C32.2846 38 39 31.4525 39 23.375V21.125C39 20.504 38.4842 20 37.8462 20Z" fill="#66757F"/>
</svg>
