<svg width="40" height="40" viewBox="0 0 40 40" fill="none" xmlns="http://www.w3.org/2000/svg">
<circle cx="20" cy="20" r="20" fill="#F4B1A3"/>
<path d="M26 15.8149V23.4019C25.4281 23.0717 24.7632 22.9395 24.1084 23.0257C23.4537 23.1119 22.8456 23.4117 22.3787 23.8787C21.9117 24.3457 21.6119 24.9537 21.5257 25.6084C21.4395 26.2632 21.5717 26.9281 21.9019 27.5C22.2322 28.0719 22.7419 28.5189 23.352 28.7716C23.9621 29.0244 24.6386 29.0687 25.2765 28.8977C25.9144 28.7268 26.4781 28.3502 26.8801 27.8262C27.2821 27.3023 27.5 26.6603 27.5 25.9999V10.8889C27.5002 10.6964 27.4541 10.5066 27.3656 10.3356C27.277 10.1646 27.1486 10.0175 26.9912 9.90658C26.8338 9.79567 26.6521 9.72426 26.4613 9.69839C26.2705 9.67251 26.0763 9.69293 25.895 9.75791L16.295 13.1869C16.0623 13.2704 15.861 13.4236 15.7187 13.6258C15.5764 13.828 15.5 14.0692 15.5 14.3164V24.9004C14.9281 24.5702 14.2633 24.438 13.6086 24.5241C12.9539 24.6103 12.3459 24.91 11.8789 25.3769C11.4119 25.8438 11.112 26.4517 11.0257 27.1064C10.9394 27.7611 11.0715 28.4259 11.4016 28.9979C11.7316 29.5698 12.2411 30.0169 12.8511 30.2698C13.4611 30.5227 14.1375 30.5672 14.7754 30.3965C15.4133 30.2259 15.9771 29.8495 16.3793 29.3258C16.7815 28.802 16.9997 28.1603 17 27.4999V19.0294L26 15.8164V15.8149Z" fill="#410001"/>
</svg>
