<svg width="48" height="48" viewBox="0 0 48 48" fill="none" xmlns="http://www.w3.org/2000/svg">
<path d="M21.7147 38.9802C21.9837 41.48 20.2188 42.8433 18.0731 43.3831C15.9274 43.9228 13.9699 42.3336 13.7009 39.8339L12.4842 29.6797C12.2152 27.1799 13.737 24.7155 15.8827 24.1758C18.0284 23.636 22.1653 22.5954 20.2549 27.725C18.3444 32.8545 21.7147 38.9802 21.7147 38.9802Z" fill="#BE1931"/>
<path d="M40.0849 15.7638C41.7629 23.3635 41.6242 29.9047 39.7728 30.3704C37.9224 30.8359 18.5481 29.2033 16.87 21.6035C15.1918 14.0027 31.8444 3.30856 33.6948 2.84309C35.5462 2.37737 38.4066 8.16294 40.0849 15.7638Z" fill="#CCD6DD"/>
<path d="M39.7719 30.3719C41.6226 29.9063 41.7624 23.3667 40.084 15.7652C38.4056 8.16376 35.5446 2.37896 33.6939 2.84453C31.8431 3.31009 31.7034 9.84971 33.3818 17.4512C35.0602 25.0526 37.9211 30.8374 39.7719 30.3719Z" fill="#66757F"/>
<path d="M24.3997 27.8459L10.5579 30.1655C5.70127 31.3872 2.78384 18.1741 7.6405 16.9524L20.996 12.4305C18.8114 16.4668 20.7564 25.2756 24.3997 27.8459Z" fill="#DD2E44"/>
<path d="M36.7704 21.652C37.5751 21.4495 37.7541 19.142 37.1703 16.4979C36.5865 13.8538 35.4609 11.8744 34.6562 12.0768C33.8515 12.2793 33.6725 14.5868 34.2563 17.2309C34.8401 19.875 35.9657 21.8544 36.7704 21.652Z" fill="#99AAB5"/>
</svg>
