<svg width="264" height="302" viewBox="0 0 264 302" fill="none" xmlns="http://www.w3.org/2000/svg">
<path d="M135.165 238.313C191.907 238.313 237.908 192.312 237.908 135.368C237.908 78.4232 191.704 32.4219 135.165 32.4219C78.4232 32.4219 32.4219 78.4232 32.4219 135.368C32.4219 192.312 78.4232 238.313 135.165 238.313Z" fill="#3E3F4D"/>
<path d="M230.41 68.0938C234.999 68.0938 238.719 64.3739 238.719 59.7852C238.719 55.1965 234.999 51.4766 230.41 51.4766C225.821 51.4766 222.102 55.1965 222.102 59.7852C222.102 64.3739 225.821 68.0938 230.41 68.0938Z" fill="#F1F3F9"/>
<path d="M242.569 35.6687C245.702 35.6687 248.243 33.1282 248.243 29.9945C248.243 26.8607 245.702 24.3203 242.569 24.3203C239.435 24.3203 236.895 26.8607 236.895 29.9945C236.895 33.1282 239.435 35.6687 242.569 35.6687Z" fill="#7340D3"/>
<path d="M23.9125 82.278C27.0462 82.278 29.5866 79.7376 29.5866 76.6039C29.5866 73.4701 27.0462 70.9297 23.9125 70.9297C20.7787 70.9297 18.2383 73.4701 18.2383 76.6039C18.2383 79.7376 20.7787 82.278 23.9125 82.278Z" fill="#7340D3"/>
<path d="M55.1198 239.935C60.9396 239.935 65.6575 235.217 65.6575 229.397C65.6575 223.577 60.9396 218.859 55.1198 218.859C49.2999 218.859 44.582 223.577 44.582 229.397C44.582 235.217 49.2999 239.935 55.1198 239.935Z" fill="#7340D3"/>
<path d="M263.443 162.936C263.443 189.121 242.268 210.296 215.855 210.296C215.4 210.296 211.529 210.296 183.067 210.296C163.258 210.296 131.608 210.296 81.0595 210.296H56.9238C25.2742 210.98 0 185.705 0 155.194C0 124.455 25.5019 98.9535 57.6069 100.547C85.158 14.4786 211.301 26.5464 222.003 115.575C245.683 118.535 263.443 138.572 263.443 162.936Z" fill="url(#paint0_linear_1333_274054)"/>
<path d="M215.854 210.299C242.039 210.299 263.442 189.124 263.442 162.939C263.442 136.754 242.039 115.578 215.854 115.578C189.669 115.578 168.266 136.754 168.266 162.939C168.266 189.124 189.669 210.299 215.854 210.299Z" fill="url(#paint1_linear_1333_274054)"/>
<path d="M114.735 128.702L118.696 124.732C119.851 123.574 119.851 121.589 118.696 120.431C117.541 119.273 115.56 119.273 114.405 120.431L110.443 124.401L106.482 120.431C105.327 119.273 103.346 119.273 102.191 120.431C101.035 121.589 101.035 123.574 102.191 124.732L106.152 128.702L102.191 132.673C101.035 133.831 101.035 135.816 102.191 136.974C102.851 137.635 103.511 137.801 104.336 137.801C105.162 137.801 105.822 137.47 106.482 136.974L110.443 133.004L114.405 136.974C115.065 137.635 115.725 137.801 116.55 137.801C117.376 137.801 118.036 137.47 118.696 136.974C119.851 135.816 119.851 133.831 118.696 132.673L114.735 128.702Z" fill="#646B7A"/>
<path d="M156.756 128.702L161.158 124.732C162.441 123.574 162.441 121.589 161.158 120.431C159.874 119.273 157.673 119.273 156.389 120.431L151.988 124.401L147.586 120.431C146.303 119.273 144.102 119.273 142.818 120.431C141.535 121.589 141.535 123.574 142.818 124.732L147.22 128.702L142.818 132.673C141.535 133.831 141.535 135.816 142.818 136.974C143.552 137.635 144.285 137.801 145.202 137.801C146.119 137.801 146.853 137.47 147.586 136.974L151.988 133.004L156.389 136.974C157.123 137.635 157.856 137.801 158.773 137.801C159.69 137.801 160.424 137.47 161.158 136.974C162.441 135.816 162.441 133.831 161.158 132.673L156.756 128.702Z" fill="#646B7A"/>
<path fill-rule="evenodd" clip-rule="evenodd" d="M42.0233 48.7462C42.4983 46.8775 44.3982 45.7477 46.2669 46.2227L59.48 49.5813C61.3486 50.0563 62.4784 51.9562 62.0034 53.8249C61.5284 55.6935 59.6285 56.8233 57.7599 56.3483L44.5468 52.9897C42.6781 52.5148 41.5483 50.6148 42.0233 48.7462Z" fill="#F4B1A3"/>
<path fill-rule="evenodd" clip-rule="evenodd" d="M53.2497 11.5833C54.8449 10.5005 57.016 10.9159 58.0989 12.5112L73.8942 35.7814C74.977 37.3767 74.5616 39.5477 72.9663 40.6306C71.371 41.7134 69.2 41.298 68.1171 39.7027L52.3218 16.4325C51.2389 14.8372 51.6544 12.6662 53.2497 11.5833Z" fill="#F4B1A3"/>
<path fill-rule="evenodd" clip-rule="evenodd" d="M82.5481 1.08677C84.4395 0.712405 86.2763 1.9422 86.6506 3.83359L92.1115 31.423C92.4859 33.3144 91.2561 35.1511 89.3647 35.5255C87.4733 35.8999 85.6365 34.6701 85.2621 32.7787L79.8013 5.1893C79.4269 3.29791 80.6567 1.46114 82.5481 1.08677Z" fill="#F4B1A3"/>
<rect x="109.43" y="156.039" width="46.6093" height="6.07947" fill="#646B7A"/>
<path d="M137.801 158.062H145.907V168.195C145.907 170.433 144.092 172.248 141.854 172.248C139.615 172.248 137.801 170.433 137.801 168.195V158.062Z" fill="#646B7A"/>
<path d="M244.263 68.767C243.399 72.4079 242.103 75.9087 240.519 79.1295C236.343 86.6914 230.151 92.8529 222.375 96.6339C214.31 100.695 204.806 102.095 195.158 100.275C172.693 95.6536 158.148 74.3683 162.9 52.3829C167.652 30.3975 189.397 16.254 212.006 20.8751C220.07 22.5555 227.127 26.3365 233.031 31.7978C242.823 41.6002 247 55.4637 244.263 68.767Z" fill="#373D4A"/>
<path d="M211 64.9993H209.42L208.86 64.4593C211.26 61.6593 212.5 57.8393 211.82 53.7793C210.88 48.2193 206.24 43.7793 200.64 43.0993C192.18 42.0593 185.06 49.1793 186.1 57.6393C186.78 63.2393 191.22 67.8793 196.78 68.8193C200.84 69.4993 204.66 68.2593 207.46 65.8593L208 66.4193V67.9993L216.5 76.4993C217.32 77.3193 218.66 77.3193 219.48 76.4993C220.3 75.6793 220.3 74.3393 219.48 73.5193L211 64.9993ZM199 64.9993C194.02 64.9993 190 60.9793 190 55.9993C190 51.0193 194.02 46.9993 199 46.9993C203.98 46.9993 208 51.0193 208 55.9993C208 60.9793 203.98 64.9993 199 64.9993Z" fill="#646B7A"/>
<path d="M91.6918 277.584V294.936H90.0358C89.7798 294.936 89.5638 294.896 89.3878 294.816C89.2198 294.728 89.0558 294.584 88.8958 294.384L79.8358 282.816C79.8838 283.344 79.9078 283.832 79.9078 284.28V294.936H77.0638V277.584H78.7558C78.8918 277.584 79.0078 277.592 79.1038 277.608C79.2078 277.616 79.2958 277.64 79.3678 277.68C79.4478 277.712 79.5238 277.764 79.5958 277.836C79.6678 277.9 79.7478 277.988 79.8358 278.1L88.9318 289.716C88.9078 289.436 88.8878 289.16 88.8718 288.888C88.8558 288.616 88.8478 288.364 88.8478 288.132V277.584H91.6918ZM100.661 282.432C101.573 282.432 102.401 282.58 103.145 282.876C103.897 283.172 104.537 283.592 105.065 284.136C105.601 284.68 106.013 285.344 106.301 286.128C106.589 286.912 106.733 287.788 106.733 288.756C106.733 289.732 106.589 290.612 106.301 291.396C106.013 292.18 105.601 292.848 105.065 293.4C104.537 293.952 103.897 294.376 103.145 294.672C102.401 294.968 101.573 295.116 100.661 295.116C99.741 295.116 98.905 294.968 98.153 294.672C97.401 294.376 96.757 293.952 96.221 293.4C95.693 292.848 95.281 292.18 94.985 291.396C94.697 290.612 94.553 289.732 94.553 288.756C94.553 287.788 94.697 286.912 94.985 286.128C95.281 285.344 95.693 284.68 96.221 284.136C96.757 283.592 97.401 283.172 98.153 282.876C98.905 282.58 99.741 282.432 100.661 282.432ZM100.661 292.836C101.685 292.836 102.441 292.492 102.929 291.804C103.425 291.116 103.673 290.108 103.673 288.78C103.673 287.452 103.425 286.44 102.929 285.744C102.441 285.048 101.685 284.7 100.661 284.7C99.621 284.7 98.849 285.052 98.345 285.756C97.849 286.452 97.601 287.46 97.601 288.78C97.601 290.1 97.849 291.108 98.345 291.804C98.849 292.492 99.621 292.836 100.661 292.836ZM118.626 284.76C119.01 284.024 119.466 283.448 119.994 283.032C120.522 282.608 121.146 282.396 121.866 282.396C122.434 282.396 122.89 282.52 123.234 282.768L123.042 284.988C123.002 285.132 122.942 285.236 122.862 285.3C122.79 285.356 122.69 285.384 122.562 285.384C122.442 285.384 122.262 285.364 122.022 285.324C121.79 285.284 121.562 285.264 121.338 285.264C121.01 285.264 120.718 285.312 120.462 285.408C120.206 285.504 119.974 285.644 119.766 285.828C119.566 286.004 119.386 286.22 119.226 286.476C119.074 286.732 118.93 287.024 118.794 287.352V294.936H115.83V282.624H117.57C117.874 282.624 118.086 282.68 118.206 282.792C118.326 282.896 118.406 283.088 118.446 283.368L118.626 284.76ZM132.864 287.364C132.864 286.98 132.808 286.62 132.696 286.284C132.592 285.94 132.432 285.64 132.216 285.384C132 285.128 131.724 284.928 131.388 284.784C131.06 284.632 130.676 284.556 130.236 284.556C129.38 284.556 128.704 284.8 128.208 285.288C127.72 285.776 127.408 286.468 127.272 287.364H132.864ZM127.212 289.152C127.26 289.784 127.372 290.332 127.548 290.796C127.724 291.252 127.956 291.632 128.244 291.936C128.532 292.232 128.872 292.456 129.264 292.608C129.664 292.752 130.104 292.824 130.584 292.824C131.064 292.824 131.476 292.768 131.82 292.656C132.172 292.544 132.476 292.42 132.732 292.284C132.996 292.148 133.224 292.024 133.416 291.912C133.616 291.8 133.808 291.744 133.992 291.744C134.24 291.744 134.424 291.836 134.544 292.02L135.396 293.1C135.068 293.484 134.7 293.808 134.292 294.072C133.884 294.328 133.456 294.536 133.008 294.696C132.568 294.848 132.116 294.956 131.652 295.02C131.196 295.084 130.752 295.116 130.32 295.116C129.464 295.116 128.668 294.976 127.932 294.696C127.196 294.408 126.556 293.988 126.012 293.436C125.468 292.876 125.04 292.188 124.728 291.372C124.416 290.548 124.26 289.596 124.26 288.516C124.26 287.676 124.396 286.888 124.668 286.152C124.94 285.408 125.328 284.764 125.832 284.22C126.344 283.668 126.964 283.232 127.692 282.912C128.428 282.592 129.256 282.432 130.176 282.432C130.952 282.432 131.668 282.556 132.324 282.804C132.98 283.052 133.544 283.416 134.016 283.896C134.488 284.368 134.856 284.952 135.12 285.648C135.392 286.336 135.528 287.124 135.528 288.012C135.528 288.46 135.48 288.764 135.384 288.924C135.288 289.076 135.104 289.152 134.832 289.152H127.212ZM145.764 285.024C145.684 285.152 145.6 285.244 145.512 285.3C145.424 285.348 145.312 285.372 145.176 285.372C145.032 285.372 144.876 285.332 144.708 285.252C144.548 285.172 144.36 285.084 144.144 284.988C143.928 284.884 143.68 284.792 143.4 284.712C143.128 284.632 142.804 284.592 142.428 284.592C141.844 284.592 141.384 284.716 141.048 284.964C140.72 285.212 140.556 285.536 140.556 285.936C140.556 286.2 140.64 286.424 140.808 286.608C140.984 286.784 141.212 286.94 141.492 287.076C141.78 287.212 142.104 287.336 142.464 287.448C142.824 287.552 143.188 287.668 143.556 287.796C143.932 287.924 144.3 288.072 144.66 288.24C145.02 288.4 145.34 288.608 145.62 288.864C145.908 289.112 146.136 289.412 146.304 289.764C146.48 290.116 146.568 290.54 146.568 291.036C146.568 291.628 146.46 292.176 146.244 292.68C146.036 293.176 145.724 293.608 145.308 293.976C144.892 294.336 144.376 294.62 143.76 294.828C143.152 295.028 142.448 295.128 141.648 295.128C141.224 295.128 140.808 295.088 140.4 295.008C140 294.936 139.612 294.832 139.236 294.696C138.868 294.56 138.524 294.4 138.204 294.216C137.892 294.032 137.616 293.832 137.376 293.616L138.06 292.488C138.148 292.352 138.252 292.248 138.372 292.176C138.492 292.104 138.644 292.068 138.828 292.068C139.012 292.068 139.184 292.12 139.344 292.224C139.512 292.328 139.704 292.44 139.92 292.56C140.136 292.68 140.388 292.792 140.676 292.896C140.972 293 141.344 293.052 141.792 293.052C142.144 293.052 142.444 293.012 142.692 292.932C142.948 292.844 143.156 292.732 143.316 292.596C143.484 292.46 143.604 292.304 143.676 292.128C143.756 291.944 143.796 291.756 143.796 291.564C143.796 291.276 143.708 291.04 143.532 290.856C143.364 290.672 143.136 290.512 142.848 290.376C142.568 290.24 142.244 290.12 141.876 290.016C141.516 289.904 141.144 289.784 140.76 289.656C140.384 289.528 140.012 289.38 139.644 289.212C139.284 289.036 138.96 288.816 138.672 288.552C138.392 288.288 138.164 287.964 137.988 287.58C137.82 287.196 137.736 286.732 137.736 286.188C137.736 285.684 137.836 285.204 138.036 284.748C138.236 284.292 138.528 283.896 138.912 283.56C139.304 283.216 139.788 282.944 140.364 282.744C140.948 282.536 141.62 282.432 142.38 282.432C143.228 282.432 144 282.572 144.696 282.852C145.392 283.132 145.972 283.5 146.436 283.956L145.764 285.024ZM159.907 282.624V294.936H158.095C157.703 294.936 157.455 294.756 157.351 294.396L157.147 293.412C156.643 293.924 156.087 294.34 155.479 294.66C154.871 294.972 154.155 295.128 153.331 295.128C152.659 295.128 152.063 295.016 151.543 294.792C151.031 294.56 150.599 294.236 150.247 293.82C149.895 293.404 149.627 292.912 149.443 292.344C149.267 291.768 149.179 291.136 149.179 290.448V282.624H152.143V290.448C152.143 291.2 152.315 291.784 152.659 292.2C153.011 292.608 153.535 292.812 154.231 292.812C154.743 292.812 155.223 292.7 155.671 292.476C156.119 292.244 156.543 291.928 156.943 291.528V282.624H159.907ZM166.346 277.104V294.936H163.382V277.104H166.346ZM173.903 295.128C172.831 295.128 172.007 294.828 171.431 294.228C170.863 293.62 170.579 292.784 170.579 291.72V284.844H169.319C169.159 284.844 169.023 284.792 168.911 284.688C168.799 284.584 168.743 284.428 168.743 284.22V283.044L170.723 282.72L171.347 279.36C171.387 279.2 171.463 279.076 171.575 278.988C171.687 278.9 171.831 278.856 172.007 278.856H173.543V282.732H176.831V284.844H173.543V291.516C173.543 291.9 173.635 292.2 173.819 292.416C174.011 292.632 174.271 292.74 174.599 292.74C174.783 292.74 174.935 292.72 175.055 292.68C175.183 292.632 175.291 292.584 175.379 292.536C175.475 292.488 175.559 292.444 175.631 292.404C175.703 292.356 175.775 292.332 175.847 292.332C175.935 292.332 176.007 292.356 176.063 292.404C176.119 292.444 176.179 292.508 176.243 292.596L177.131 294.036C176.699 294.396 176.203 294.668 175.643 294.852C175.083 295.036 174.503 295.128 173.903 295.128ZM186.741 285.024C186.661 285.152 186.577 285.244 186.489 285.3C186.401 285.348 186.289 285.372 186.153 285.372C186.009 285.372 185.853 285.332 185.685 285.252C185.525 285.172 185.337 285.084 185.121 284.988C184.905 284.884 184.657 284.792 184.377 284.712C184.105 284.632 183.781 284.592 183.405 284.592C182.821 284.592 182.361 284.716 182.025 284.964C181.697 285.212 181.533 285.536 181.533 285.936C181.533 286.2 181.617 286.424 181.785 286.608C181.961 286.784 182.189 286.94 182.469 287.076C182.757 287.212 183.081 287.336 183.441 287.448C183.801 287.552 184.165 287.668 184.533 287.796C184.909 287.924 185.277 288.072 185.637 288.24C185.997 288.4 186.317 288.608 186.597 288.864C186.885 289.112 187.113 289.412 187.281 289.764C187.457 290.116 187.545 290.54 187.545 291.036C187.545 291.628 187.437 292.176 187.221 292.68C187.013 293.176 186.701 293.608 186.285 293.976C185.869 294.336 185.353 294.62 184.737 294.828C184.129 295.028 183.425 295.128 182.625 295.128C182.201 295.128 181.785 295.088 181.377 295.008C180.977 294.936 180.589 294.832 180.213 294.696C179.845 294.56 179.501 294.4 179.181 294.216C178.869 294.032 178.593 293.832 178.353 293.616L179.037 292.488C179.125 292.352 179.229 292.248 179.349 292.176C179.469 292.104 179.621 292.068 179.805 292.068C179.989 292.068 180.161 292.12 180.321 292.224C180.489 292.328 180.681 292.44 180.897 292.56C181.113 292.68 181.365 292.792 181.653 292.896C181.949 293 182.321 293.052 182.769 293.052C183.121 293.052 183.421 293.012 183.669 292.932C183.925 292.844 184.133 292.732 184.293 292.596C184.461 292.46 184.581 292.304 184.653 292.128C184.733 291.944 184.773 291.756 184.773 291.564C184.773 291.276 184.685 291.04 184.509 290.856C184.341 290.672 184.113 290.512 183.825 290.376C183.545 290.24 183.221 290.12 182.853 290.016C182.493 289.904 182.121 289.784 181.737 289.656C181.361 289.528 180.989 289.38 180.621 289.212C180.261 289.036 179.937 288.816 179.649 288.552C179.369 288.288 179.141 287.964 178.965 287.58C178.797 287.196 178.713 286.732 178.713 286.188C178.713 285.684 178.813 285.204 179.013 284.748C179.213 284.292 179.505 283.896 179.889 283.56C180.281 283.216 180.765 282.944 181.341 282.744C181.925 282.536 182.597 282.432 183.357 282.432C184.205 282.432 184.977 282.572 185.673 282.852C186.369 283.132 186.949 283.5 187.413 283.956L186.741 285.024Z" fill="#B0B8C7"/>
<defs>
<linearGradient id="paint0_linear_1333_274054" x1="131.722" y1="111.557" x2="131.636" y2="212.124" gradientUnits="userSpaceOnUse">
<stop stop-color="#2D2D39"/>
<stop offset="1" stop-color="#1D1C29"/>
</linearGradient>
<linearGradient id="paint1_linear_1333_274054" x1="163.201" y1="105.381" x2="205.388" y2="151.521" gradientUnits="userSpaceOnUse">
<stop stop-color="#5D6065" stop-opacity="0.03"/>
<stop offset="0.9942" stop-color="#1D1C29" stop-opacity="0"/>
</linearGradient>
</defs>
</svg>
