<svg width="154" height="120" viewBox="0 0 154 120" fill="none" xmlns="http://www.w3.org/2000/svg">
<line x1="23.5" y1="72.5" x2="139.5" y2="72.5" stroke="#B794F6" stroke-width="3" stroke-linecap="round"/>
<line x1="23.5" y1="44.5" x2="139.5" y2="44.5" stroke="#B794F6" stroke-width="3" stroke-linecap="round"/>
<line x1="23.5" y1="16.5" x2="139.5" y2="16.5" stroke="#B794F6" stroke-width="3" stroke-linecap="round"/>
<line x1="28.5" y1="1.5" x2="28.5" y2="78.5" stroke="#B794F6" stroke-width="3" stroke-linecap="round"/>
<line x1="63.5" y1="72.5" x2="63.5" y2="78.5" stroke="#B794F6" stroke-width="3" stroke-linecap="round"/>
<line x1="133.5" y1="72.5" x2="133.5" y2="78.5" stroke="#B794F6" stroke-width="3" stroke-linecap="round"/>
<line x1="98.5" y1="72.5" x2="98.5" y2="78.5" stroke="#B794F6" stroke-width="3" stroke-linecap="round"/>
<path d="M1.2775 101.8H3.2295L8.2215 109.4H8.2535V101.8H10.3495V113H8.3975L3.4055 105.416H3.3735V113H1.2775V101.8ZM12.2938 111.336V106.696L13.9418 105.032H18.5178L20.1658 106.696V111.336L18.5178 113H13.9418L12.2938 111.336ZM17.4938 111.24L18.0538 110.68V107.352L17.4938 106.792H14.9658L14.4058 107.352V110.68L14.9658 111.24H17.4938ZM26.6419 101.8H28.8179V113H26.6419V101.8ZM31.7238 111.368V106.808H30.2838V105.032H31.7558V102.44H33.8358V105.032H36.2678V106.824H33.8358V110.68L34.3798 111.208H36.2678V113H33.3718L31.7238 111.368ZM37.3344 111.368V106.696L38.9824 105.032H43.4784L45.1424 106.696V109.72H39.4464V110.744L39.9584 111.272H42.5664L43.0464 110.776V110.36H45.1264V111.4L43.5424 113H38.9504L37.3344 111.368ZM43.0304 108.248V107.32L42.4864 106.76H39.9904L39.4464 107.32V108.248H43.0304ZM46.9225 105.032H48.8745V106.344L50.1705 105.032H52.1865L53.2745 106.136L54.3625 105.032H57.1465L58.8585 106.76V113H56.7465V107.384L56.2025 106.824H54.8585L54.0105 107.672V113H51.9625V107.352L51.4505 106.824H50.4905L49.0345 108.296V113H46.9225V105.032ZM68.4791 101.8H70.4631L74.5591 113H72.3511L71.4391 110.52H67.5031L66.5911 113H64.3831L68.4791 101.8ZM70.9591 108.728L69.4711 104.472H69.4391L67.9991 108.728H70.9591ZM75.3125 111.368V106.664L76.9285 105.032H81.3125L82.9605 106.696V108.168H80.8485V107.384L80.2885 106.824H77.9845L77.4245 107.384V110.648L77.9845 111.208H80.2885L80.8485 110.648V109.864H82.9605V111.336L81.3125 113H76.9285L75.3125 111.368ZM85.2144 111.368V106.808H83.7744V105.032H85.2464V102.44H87.3264V105.032H89.7584V106.824H87.3264V110.68L87.8704 111.208H89.7584V113H86.8624L85.2144 111.368ZM91.1394 103.368V102.344L91.8754 101.608H92.9954L93.7314 102.344V103.368L92.9954 104.104H91.8754L91.1394 103.368ZM91.3794 105.032H93.4914V113H91.3794V105.032ZM94.7188 105.032H96.9108L98.7668 110.584H98.8307L100.687 105.032H102.879L99.8228 113H97.7748L94.7188 105.032ZM103.855 103.368V102.344L104.591 101.608H105.711L106.447 102.344V103.368L105.711 104.104H104.591L103.855 103.368ZM104.095 105.032H106.207V113H104.095V105.032ZM109.114 111.368V106.808H107.674V105.032H109.146V102.44H111.226V105.032H113.658V106.824H111.226V110.68L111.77 111.208H113.658V113H110.762L109.114 111.368ZM122.609 105.032V114.824L120.881 116.536H116.689L115.201 115.064V113.976H117.313V114.456L117.617 114.776H119.953L120.497 114.216V111.816L119.313 113H116.673L114.961 111.272V105.032H117.073V110.648L117.617 111.208H119.009L120.497 109.624V105.032H122.609ZM136.653 105.032V114.824L134.925 116.536H130.733L129.245 115.064V113.976H131.357V114.456L131.661 114.776H133.997L134.541 114.216V111.816L133.357 113H130.717L129.005 111.272V105.032H131.117V110.648L131.661 111.208H133.053L134.541 109.624V105.032H136.653ZM138.509 111.368V106.696L140.157 105.032H144.653L146.317 106.696V109.72H140.621V110.744L141.133 111.272H143.741L144.221 110.776V110.36H146.301V111.4L144.717 113H140.125L138.509 111.368ZM144.205 108.248V107.32L143.661 106.76H141.165L140.621 107.32V108.248H144.205ZM148.817 111.368V106.808H147.377V105.032H148.849V102.44H150.929V105.032H153.361V106.824H150.929V110.68L151.473 111.208H153.361V113H150.465L148.817 111.368Z" fill="white"/>
<rect x="5.5" y="12.5" width="11" height="5" rx="2.5" fill="#B794F6" stroke="#B794F6" stroke-width="3"/>
<rect x="5.5" y="39.5" width="11" height="5" rx="2.5" fill="#B794F6" stroke="#B794F6" stroke-width="3"/>
<rect x="5.5" y="68.5" width="11" height="5" rx="2.5" fill="#B794F6" stroke="#B794F6" stroke-width="3"/>
</svg>
