<svg width="121" height="104" viewBox="0 0 121 104" fill="none" xmlns="http://www.w3.org/2000/svg">
<path d="M51.5137 104C79.4764 104 102.145 81.3118 102.145 53.325C102.145 25.3382 79.4764 2.65039 51.5137 2.65039C23.5511 2.65039 0.882812 25.3382 0.882812 53.325C0.882812 81.3118 23.5511 104 51.5137 104Z" fill="#464956"/>
<path d="M78.8288 14.4414H22.7403C19.2443 14.4414 16.4102 17.278 16.4102 20.7771H85.1589C85.1589 17.278 82.3248 14.4414 78.8288 14.4414Z" fill="#373D4A"/>
<path d="M16.4102 20.6055H85.1589V73.0108C85.1589 75.3408 84.2342 77.5754 82.588 79.2229C80.9419 80.8705 78.7093 81.796 76.3813 81.796H25.1878C22.8598 81.796 20.6272 80.8705 18.9811 79.2229C17.3349 77.5754 16.4102 75.3408 16.4102 73.0108V20.6055Z" fill="url(#paint0_linear_6873_244563)"/>
<path d="M25.9336 30.1777V67.1046C25.9336 67.6807 26.1622 68.2332 26.5693 68.6406C26.9763 69.0479 27.5283 69.2768 28.1039 69.2768H64.999V64.9325H30.2742V30.1777H25.9336Z" fill="#444B56"/>
<path d="M52.6124 55.6081C52.8138 55.81 53.0529 55.9701 53.3162 56.0794C53.5795 56.1887 53.8618 56.245 54.1468 56.245C54.4318 56.245 54.7141 56.1887 54.9773 56.0794C55.2406 55.9701 55.4798 55.81 55.6812 55.6081L66.5327 44.7472L63.4639 41.6758L54.1468 51.0009L49.1703 46.0201C48.9689 45.8182 48.7297 45.6581 48.4664 45.5488C48.2032 45.4395 47.9209 45.3832 47.6359 45.3832C47.3509 45.3832 47.0686 45.4395 46.8053 45.5488C46.542 45.6581 46.3029 45.8182 46.1015 46.0201L35.25 56.881L38.3188 59.9524L47.6359 50.6273L52.6124 55.6081Z" fill="#444B56"/>
<path d="M98.2041 73.9574L91.7012 81.1328L110.031 97.7735L116.534 90.5981L98.2041 73.9574Z" fill="#444B56"/>
<path fill-rule="evenodd" clip-rule="evenodd" d="M105.077 61.8853C105.077 76.8965 92.9187 89.0655 77.9205 89.0655C62.9222 89.0655 50.7637 76.8965 50.7637 61.8853C50.7637 46.8741 62.9222 34.7051 77.9205 34.7051C92.9187 34.7051 105.077 46.8741 105.077 61.8853ZM100.912 61.8856C100.912 74.5943 90.6185 84.8967 77.9208 84.8967C65.2231 84.8967 54.9295 74.5943 54.9295 61.8856C54.9295 49.177 65.2231 38.8745 77.9208 38.8745C90.6185 38.8745 100.912 49.177 100.912 61.8856Z" fill="#444B56"/>
<g filter="url(#filter0_b_6873_244563)">
<path d="M77.9728 84.6864C90.6948 84.6864 101.008 74.3643 101.008 61.6313C101.008 48.8983 90.6948 38.5762 77.9728 38.5762C65.2507 38.5762 54.9375 48.8983 54.9375 61.6313C54.9375 74.3643 65.2507 84.6864 77.9728 84.6864Z" fill="url(#paint1_linear_6873_244563)" fill-opacity="0.2"/>
</g>
<path d="M83.4785 62.2572L89.9989 55.6403C90.6098 54.9858 90.9445 54.1158 90.9319 53.2153C90.9193 52.3148 90.5604 51.4547 89.9314 50.8179C89.3025 50.1811 88.4531 49.8177 87.5638 49.805C86.6744 49.7922 85.8152 50.1311 85.1687 50.7496L78.6337 57.3665L72.1133 50.7496C71.7995 50.4134 71.4223 50.1443 71.0041 49.9582C70.5858 49.7722 70.1349 49.6729 69.6781 49.6664C69.2213 49.6598 68.7679 49.7461 68.3446 49.9201C67.9213 50.0941 67.5367 50.3522 67.2137 50.6793C66.8906 51.0064 66.6356 51.3958 66.4638 51.8244C66.292 52.253 66.2068 52.7122 66.2132 53.1747C66.2197 53.6372 66.3177 54.0937 66.5015 54.5172C66.6852 54.9408 66.951 55.3227 67.2831 55.6403L73.8144 62.2572L67.2831 68.8741C66.951 69.1918 66.6852 69.5737 66.5015 69.9972C66.3177 70.4207 66.2197 70.8773 66.2132 71.3398C66.2068 71.8023 66.292 72.2615 66.4638 72.6901C66.6356 73.1187 66.8906 73.5081 67.2137 73.8351C67.5367 74.1622 67.9213 74.4204 68.3446 74.5944C68.7679 74.7684 69.2213 74.8547 69.6781 74.8481C70.1349 74.8416 70.5858 74.7423 71.0041 74.5563C71.4223 74.3702 71.7995 74.1011 72.1133 73.7649L78.6483 67.148L85.1833 73.7649C85.8359 74.3469 86.6832 74.6551 87.5524 74.6265C88.4216 74.598 89.2474 74.2349 89.8614 73.6113C90.4755 72.9877 90.8315 72.1505 90.8571 71.2703C90.8826 70.3901 90.5757 69.5332 89.9989 68.8741L83.4785 62.2572Z" fill="#F4B1A3"/>
<g filter="url(#filter1_f_6873_244563)">
<ellipse cx="65.9318" cy="72.6599" rx="16.1935" ry="2.39429" fill="#F4B1A3" fill-opacity="0.5"/>
</g>
<path d="M46.5483 91.3411C46.9463 89.6907 49.2938 89.6907 49.6918 91.3411C49.834 91.9307 50.2944 92.3912 50.884 92.5336C52.5347 92.9324 52.5347 95.2807 50.884 95.6795C50.2944 95.8219 49.834 96.2824 49.6918 96.872C49.2938 98.5224 46.9463 98.5224 46.5483 96.872C46.406 96.2824 45.9457 95.8219 45.3561 95.6795C43.7054 95.2807 43.7054 92.9324 45.3561 92.5336C45.9457 92.3912 46.406 91.9307 46.5483 91.3411Z" fill="#7340D3"/>
<path d="M9.90959 6.51684C10.3076 4.86651 12.6551 4.86651 13.0531 6.51684C13.1954 7.10648 13.6557 7.56695 14.2453 7.7094C15.896 8.10822 15.896 10.4564 14.2453 10.8553C13.6557 10.9977 13.1954 11.4582 13.0531 12.0478C12.6551 13.6982 10.3076 13.6982 9.90959 12.0478C9.76737 11.4582 9.30702 10.9977 8.71743 10.8553C7.0667 10.4564 7.0667 8.10822 8.71743 7.7094C9.30702 7.56695 9.76737 7.10648 9.90959 6.51684Z" fill="#7340D3"/>
<path fill-rule="evenodd" clip-rule="evenodd" d="M49.496 4.2544C50.3497 4.2544 51.0418 3.56176 51.0418 2.70735C51.0418 1.85293 50.3497 1.16029 49.496 1.16029C48.6424 1.16029 47.9503 1.85293 47.9503 2.70735C47.9503 3.56176 48.6424 4.2544 49.496 4.2544ZM49.496 5.41469C50.99 5.41469 52.201 4.20257 52.201 2.70735C52.201 1.21212 50.99 0 49.496 0C48.0021 0 46.791 1.21212 46.791 2.70735C46.791 4.20257 48.0021 5.41469 49.496 5.41469Z" fill="#7340D3"/>
<path d="M5.29438 40.6284C6.60027 40.297 7.77492 41.5047 7.40877 42.8023L7.23738 43.4097C6.87123 44.7074 5.23884 45.1217 4.2991 44.1555L3.85922 43.7033C2.91948 42.7371 3.3772 41.115 4.68312 40.7836L5.29438 40.6284Z" fill="#7340D3"/>
<path d="M79.0131 94.0855C80.319 93.754 81.4937 94.9617 81.1275 96.2594L80.9561 96.8668C80.59 98.1644 78.9576 98.5788 78.0178 97.6126L77.578 97.1603C76.6382 96.1941 77.096 94.5721 78.4019 94.2406L79.0131 94.0855Z" fill="#7340D3"/>
<path fill-rule="evenodd" clip-rule="evenodd" d="M101.141 26.7857C101.994 26.7857 102.686 26.093 102.686 25.2386C102.686 24.3842 101.994 23.6915 101.141 23.6915C100.287 23.6915 99.5948 24.3842 99.5948 25.2386C99.5948 26.093 100.287 26.7857 101.141 26.7857ZM101.141 27.9459C102.634 27.9459 103.846 26.7338 103.846 25.2386C103.846 23.7434 102.634 22.5312 101.141 22.5312C99.6466 22.5312 98.4355 23.7434 98.4355 25.2386C98.4355 26.7338 99.6466 27.9459 101.141 27.9459Z" fill="#7340D3"/>
<path d="M109.914 97.5625L116.429 90.3733L117.411 91.2643C118.363 92.1287 118.933 93.3362 118.996 94.6213C119.058 95.9064 118.608 97.1638 117.744 98.1167C116.881 99.0697 115.674 99.6403 114.39 99.7029C113.106 99.7655 111.85 99.3151 110.898 98.4507L109.917 97.5598L109.914 97.5625Z" fill="#444B56"/>
<defs>
<filter id="filter0_b_6873_244563" x="38.2624" y="21.901" width="79.4206" height="79.4597" filterUnits="userSpaceOnUse" color-interpolation-filters="sRGB">
<feFlood flood-opacity="0" result="BackgroundImageFix"/>
<feGaussianBlur in="BackgroundImage" stdDeviation="8.33757"/>
<feComposite in2="SourceAlpha" operator="in" result="effect1_backgroundBlur_6873_244563"/>
<feBlend mode="normal" in="SourceGraphic" in2="effect1_backgroundBlur_6873_244563" result="shape"/>
</filter>
<filter id="filter1_f_6873_244563" x="28.8944" y="49.4217" width="74.0746" height="46.4769" filterUnits="userSpaceOnUse" color-interpolation-filters="sRGB">
<feFlood flood-opacity="0" result="BackgroundImageFix"/>
<feBlend mode="normal" in="SourceGraphic" in2="BackgroundImageFix" result="shape"/>
<feGaussianBlur stdDeviation="10.422" result="effect1_foregroundBlur_6873_244563"/>
</filter>
<linearGradient id="paint0_linear_6873_244563" x1="50.7845" y1="45.8918" x2="50.7411" y2="82.4557" gradientUnits="userSpaceOnUse">
<stop stop-color="#2D2D39"/>
<stop offset="1" stop-color="#1D1C29"/>
</linearGradient>
<linearGradient id="paint1_linear_6873_244563" x1="77.9728" y1="38.5762" x2="101.22" y2="98.8472" gradientUnits="userSpaceOnUse">
<stop stop-color="white"/>
<stop offset="1" stop-color="#D2F7FF"/>
</linearGradient>
</defs>
</svg>
