<svg width="17" height="17" viewBox="0 0 17 17" fill="none" xmlns="http://www.w3.org/2000/svg">
<path d="M14.6499 3.34984C13.4358 2.13207 11.8617 1.3379 10.1608 1.08503C8.45995 0.832161 6.72287 1.13406 5.20706 1.94598C3.69125 2.75789 2.47739 4.03661 1.7454 5.59259C1.01342 7.14857 0.802263 8.899 1.14324 10.5844C1.48422 12.2698 2.35919 13.8005 3.63844 14.9496C4.9177 16.0987 6.53315 16.805 8.24536 16.9638C9.95757 17.1227 11.6754 16.7256 13.1442 15.8315C14.613 14.9374 15.7546 13.5938 16.3999 11.9998H14.1799C13.5618 13.0915 12.617 13.9621 11.4785 14.4889C10.34 15.0158 9.06494 15.1726 7.8327 14.9372C6.60045 14.7018 5.47299 14.086 4.60887 13.1765C3.74475 12.2671 3.18745 11.1096 3.01533 9.86692C2.84322 8.62425 3.06495 7.35889 3.64935 6.24878C4.23375 5.13868 5.15141 4.23968 6.27328 3.67821C7.39516 3.11674 8.66481 2.92105 9.90368 3.11865C11.1426 3.31626 12.2883 3.89722 13.1799 4.77984L9.99986 7.99984H16.9999V0.999839L14.6499 3.34984Z" fill="#F4B1A3"/>
</svg>
