<svg width="10" height="8" viewBox="0 0 10 8" fill="none" xmlns="http://www.w3.org/2000/svg">
<path d="M9.98782 5.39516L9.96766 5.35887C9.96633 5.34681 9.96633 5.33464 9.96766 5.32258L9.79024 4.87097C9.38701 3.79032 8.9475 2.71371 8.52814 1.64516C8.49957 1.55979 8.44569 1.48513 8.37366 1.43111C8.30164 1.37709 8.21488 1.34627 8.12492 1.34274C7.44347 1.31452 6.76201 1.27823 6.08056 1.24194C6.06604 1.24588 6.05073 1.24588 6.03621 1.24194L4.99992 0.326613L4.79427 0.141129C4.71816 0.0576997 4.61262 0.00709782 4.49992 0C4.41968 0.00546966 4.34144 0.0274328 4.27008 0.0645161C3.95153 0.217742 3.62895 0.366935 3.31443 0.512097C3.08715 0.618618 2.83962 0.675001 2.58863 0.677419C2.12492 0.677419 1.66121 0.677419 1.1975 0.709677L0.657175 0.729839C0.550233 0.729839 0.447671 0.772321 0.372051 0.847941C0.296432 0.92356 0.253949 1.02612 0.253949 1.13306L0.229756 1.53629C0.229756 1.53629 0.0442719 4.65323 -8.29207e-05 5.34677C-0.00437973 5.41343 0.00685935 5.48018 0.032749 5.54175C0.0586387 5.60333 0.0984718 5.65805 0.149111 5.70161L0.729756 6.20968L1.89911 7.22984C1.97017 7.29096 2.05665 7.33141 2.14911 7.34677C2.42734 7.39113 2.70959 7.42742 2.99185 7.46774L6.19347 7.91935C6.28821 7.93474 6.38383 7.94417 6.47976 7.94758C6.52402 7.95157 6.56855 7.95157 6.61282 7.94758C7.11282 7.8629 7.60879 7.77016 8.10476 7.67339L8.72169 7.55645C8.78825 7.54489 8.85126 7.51814 8.9058 7.47828C8.96035 7.43842 9.00497 7.38652 9.03621 7.32661L9.7983 5.9879L9.94347 5.7379L9.96766 5.70161L9.99992 5.66129V5.47581L9.98782 5.39516ZM0.741853 5.24194C0.806369 4.16532 0.866853 3.08871 0.931369 2.01613V1.75L2.26605 2.58871C2.0604 3.125 1.86282 3.65726 1.65718 4.20161L1.49588 4.62903C1.47064 4.68548 1.45759 4.74663 1.45759 4.80847C1.45759 4.87031 1.47064 4.93145 1.49588 4.9879C1.52724 5.04096 1.5692 5.08696 1.61916 5.12304C1.66912 5.15912 1.72599 5.1845 1.78621 5.19758L2.9354 5.54032L2.12895 6.46774L1.69347 6.07661C1.37492 5.79839 1.0604 5.52419 0.741853 5.24194ZM5.2983 1.56048L5.4354 1.67742L4.97572 2.8629L4.86685 3.14113C3.8107 2.62815 2.78361 2.0574 1.79024 1.43145C2.08863 1.43145 2.38701 1.43145 2.68943 1.40726C2.96772 1.40938 3.24306 1.35018 3.49588 1.23387C3.7983 1.09677 4.11282 0.951613 4.4354 0.806452L5.2983 1.56048ZM7.31443 2.01613H7.59669C7.59669 2.01613 7.19347 3.04839 7.01201 3.49194C7.00627 3.50787 6.99811 3.52283 6.98782 3.53629L5.85072 4.47177L5.77411 4.53629C5.77238 4.52021 5.77238 4.50399 5.77411 4.4879C5.70153 4.29032 5.63298 4.08468 5.54427 3.89113C5.50443 3.81022 5.48371 3.72124 5.48371 3.63105C5.48371 3.54086 5.50443 3.45188 5.54427 3.37097C5.70959 2.96774 5.86282 2.56452 6.00798 2.19355L6.10476 1.93952L7.31443 2.01613ZM2.87895 2.93952L4.43943 3.74597L3.45153 4.91935L2.51201 4.64113L2.2983 4.57661L2.87895 2.93952ZM4.89508 4.33871L5.91927 7.125L2.87492 6.70968L4.89508 4.33871ZM7.13701 4.3629L8.1854 6.89516L6.74185 7.16935L6.0483 5.29435L7.13701 4.3629ZM7.72169 3.75C7.85072 3.42742 7.97976 3.10484 8.12492 2.78629L8.15718 2.70565C8.15718 2.70565 8.96363 4.79032 9.24588 5.5L8.74992 6.33468L7.72572 3.80645C7.71363 3.77823 7.71363 3.76613 7.72169 3.75Z" fill="#F4B1A3"/>
</svg>
