<svg width="12" height="12" viewBox="0 0 12 12" fill="none" xmlns="http://www.w3.org/2000/svg">
<path d="M10.9878 7.39516L10.9677 7.35887C10.9663 7.34681 10.9663 7.33464 10.9677 7.32258L10.7902 6.87097C10.387 5.79032 9.9475 4.71371 9.52814 3.64516C9.49957 3.55979 9.44569 3.48513 9.37366 3.43111C9.30164 3.37709 9.21488 3.34627 9.12492 3.34274C8.44347 3.31452 7.76201 3.27823 7.08056 3.24194C7.06604 3.24588 7.05073 3.24588 7.03621 3.24194L5.99992 2.32661L5.79427 2.14113C5.71816 2.0577 5.61262 2.0071 5.49992 2C5.41968 2.00547 5.34144 2.02743 5.27008 2.06452C4.95153 2.21774 4.62895 2.36694 4.31443 2.5121C4.08715 2.61862 3.83962 2.675 3.58863 2.67742C3.12492 2.67742 2.66121 2.67742 2.1975 2.70968L1.65718 2.72984C1.55023 2.72984 1.44767 2.77232 1.37205 2.84794C1.29643 2.92356 1.25395 3.02612 1.25395 3.13306L1.22976 3.53629C1.22976 3.53629 1.04427 6.65323 0.999917 7.34677C0.99562 7.41343 1.00686 7.48018 1.03275 7.54175C1.05864 7.60333 1.09847 7.65805 1.14911 7.70161L1.72976 8.20968L2.89911 9.22984C2.97017 9.29096 3.05665 9.33141 3.14911 9.34677C3.42734 9.39113 3.70959 9.42742 3.99185 9.46774L7.19347 9.91935C7.28821 9.93474 7.38383 9.94417 7.47976 9.94758C7.52402 9.95157 7.56855 9.95157 7.61282 9.94758C8.11282 9.8629 8.60879 9.77016 9.10476 9.67339L9.72169 9.55645C9.78825 9.54489 9.85126 9.51814 9.9058 9.47828C9.96035 9.43842 10.005 9.38652 10.0362 9.32661L10.7983 7.9879L10.9435 7.7379L10.9677 7.70161L10.9999 7.66129V7.47581L10.9878 7.39516ZM1.74185 7.24194C1.80637 6.16532 1.86685 5.08871 1.93137 4.01613V3.75L3.26605 4.58871C3.0604 5.125 2.86282 5.65726 2.65718 6.20161L2.49588 6.62903C2.47064 6.68548 2.45759 6.74663 2.45759 6.80847C2.45759 6.87031 2.47064 6.93145 2.49588 6.9879C2.52724 7.04096 2.5692 7.08696 2.61916 7.12304C2.66912 7.15912 2.72599 7.1845 2.78621 7.19758L3.9354 7.54032L3.12895 8.46774L2.69347 8.07661C2.37492 7.79839 2.0604 7.52419 1.74185 7.24194ZM6.2983 3.56048L6.4354 3.67742L5.97572 4.8629L5.86685 5.14113C4.8107 4.62815 3.78361 4.0574 2.79024 3.43145C3.08863 3.43145 3.38701 3.43145 3.68943 3.40726C3.96772 3.40938 4.24306 3.35018 4.49588 3.23387C4.7983 3.09677 5.11282 2.95161 5.4354 2.80645L6.2983 3.56048ZM8.31443 4.01613H8.59669C8.59669 4.01613 8.19347 5.04839 8.01201 5.49194C8.00627 5.50787 7.99811 5.52283 7.98782 5.53629L6.85072 6.47177L6.77411 6.53629C6.77238 6.52021 6.77238 6.50399 6.77411 6.4879C6.70153 6.29032 6.63298 6.08468 6.54427 5.89113C6.50443 5.81022 6.48371 5.72124 6.48371 5.63105C6.48371 5.54086 6.50443 5.45188 6.54427 5.37097C6.70959 4.96774 6.86282 4.56452 7.00798 4.19355L7.10476 3.93952L8.31443 4.01613ZM3.87895 4.93952L5.43943 5.74597L4.45153 6.91935L3.51201 6.64113L3.2983 6.57661L3.87895 4.93952ZM5.89508 6.33871L6.91927 9.125L3.87492 8.70968L5.89508 6.33871ZM8.13701 6.3629L9.1854 8.89516L7.74185 9.16935L7.0483 7.29435L8.13701 6.3629ZM8.72169 5.75C8.85072 5.42742 8.97976 5.10484 9.12492 4.78629L9.15718 4.70565C9.15718 4.70565 9.96363 6.79032 10.2459 7.5L9.74992 8.33468L8.72572 5.80645C8.71363 5.77823 8.71363 5.76613 8.72169 5.75Z" fill="#F55E55"/>
</svg>
