<svg width="16" height="16" viewBox="0 0 16 16" fill="none" xmlns="http://www.w3.org/2000/svg">
<path d="M11.6625 8.75C12.225 8.75 12.72 8.4425 12.975 7.9775L15.66 3.11C15.9375 2.615 15.5775 2 15.0075 2H3.9075L3.2025 0.5H0.75V2H2.25L4.95 7.6925L3.9375 9.5225C3.39 10.5275 4.11 11.75 5.25 11.75H14.25V10.25H5.25L6.075 8.75H11.6625ZM4.62 3.5H13.7325L11.6625 7.25H6.3975L4.62 3.5ZM5.25 12.5C4.425 12.5 3.7575 13.175 3.7575 14C3.7575 14.825 4.425 15.5 5.25 15.5C6.075 15.5 6.75 14.825 6.75 14C6.75 13.175 6.075 12.5 5.25 12.5ZM12.75 12.5C11.925 12.5 11.2575 13.175 11.2575 14C11.2575 14.825 11.925 15.5 12.75 15.5C13.575 15.5 14.25 14.825 14.25 14C14.25 13.175 13.575 12.5 12.75 12.5Z" fill="#1EFCF1"/>
</svg>
