<svg width="24" height="24" viewBox="0 0 24 24" fill="none" xmlns="http://www.w3.org/2000/svg">
<path fill-rule="evenodd" clip-rule="evenodd" d="M19.1235 12.9364C19.1595 12.6364 19.1835 12.3244 19.1835 12.0004C19.1835 11.6764 19.1595 11.3644 19.1115 11.0644L21.1395 9.48039C21.3195 9.33639 21.3675 9.07239 21.2595 8.86839L19.3395 5.54439C19.2195 5.32839 18.9675 5.25639 18.7515 5.32839L16.3635 6.28839C15.8595 5.90439 15.3315 5.59239 14.7435 5.35239L14.3835 2.80839C14.3475 2.56839 14.1435 2.40039 13.9035 2.40039H10.0635C9.82351 2.40039 9.63151 2.56839 9.59551 2.80839L9.23551 5.35239C8.64751 5.59239 8.10751 5.91639 7.61551 6.28839L5.2275 5.32839C5.0115 5.24439 4.75951 5.32839 4.63951 5.54439L2.71951 8.86839C2.59951 9.08439 2.64751 9.33639 2.83951 9.48039L4.86751 11.0644C4.81951 11.3644 4.7835 11.6884 4.7835 12.0004C4.7835 12.3124 4.8075 12.6364 4.8555 12.9364L2.82751 14.5204C2.64751 14.6644 2.59951 14.9284 2.70751 15.1324L4.62751 18.4564C4.74751 18.6724 4.99951 18.7444 5.21551 18.6724L7.60351 17.7124C8.10751 18.0964 8.63551 18.4084 9.22351 18.6484L9.58351 21.1924C9.63151 21.4324 9.82351 21.6004 10.0635 21.6004H13.9035C14.1435 21.6004 14.3475 21.4324 14.3715 21.1924L14.7315 18.6484C15.3195 18.4084 15.8595 18.0844 16.3515 17.7124L18.7395 18.6724C18.9555 18.7564 19.2075 18.6724 19.3275 18.4564L21.2475 15.1324C21.3675 14.9164 21.3195 14.6644 21.1275 14.5204L19.1235 12.9364V12.9364ZM11.9828 15.6004C10.0028 15.6004 8.38281 13.9804 8.38281 12.0004C8.38281 10.0204 10.0028 8.40039 11.9828 8.40039C13.9628 8.40039 15.5828 10.0204 15.5828 12.0004C15.5828 13.9804 13.9628 15.6004 11.9828 15.6004Z" fill="#1EFCF1"/>
</svg>
