<svg width="24" height="24" viewBox="0 0 24 24" fill="none" xmlns="http://www.w3.org/2000/svg">
<path d="M15 4.24994V19.7459C15 20.8239 13.726 21.3959 12.92 20.6799L8.428 16.6859C8.29086 16.5638 8.11366 16.4962 7.93 16.4959H4.25C3.65344 16.4959 3.08129 16.259 2.65936 15.8373C2.23744 15.4155 2.00027 14.8435 2 14.2469V9.74994C2 9.15321 2.23705 8.58091 2.65901 8.15895C3.08097 7.737 3.65326 7.49994 4.25 7.49994H7.93C8.11366 7.49972 8.29086 7.43212 8.428 7.30994L12.919 3.31694C13.726 2.59894 15 3.16994 15 4.24994ZM18.992 5.89694C19.0712 5.83837 19.1611 5.79597 19.2567 5.77216C19.3523 5.74835 19.4516 5.7436 19.549 5.75818C19.6464 5.77276 19.74 5.80638 19.8244 5.85713C19.9088 5.90788 19.9824 5.97476 20.041 6.05394C21.3162 7.77384 22.0031 9.85889 22 11.9999C22.0028 14.1411 21.3155 16.2261 20.04 17.9459C19.9192 18.0987 19.7437 18.1984 19.5506 18.2241C19.3576 18.2497 19.1621 18.1993 19.0056 18.0834C18.849 17.9676 18.7437 17.7953 18.7119 17.6032C18.6801 17.4111 18.7242 17.2141 18.835 17.0539C19.9192 15.5923 20.5031 13.8199 20.5 11.9999C20.5031 10.18 19.9192 8.40764 18.835 6.94594C18.7764 6.86676 18.734 6.77681 18.7102 6.68124C18.6864 6.58566 18.6817 6.48634 18.6962 6.38893C18.7108 6.29152 18.7444 6.19793 18.7952 6.11352C18.8459 6.02911 18.9128 5.95551 18.992 5.89694ZM17.143 8.36994C17.2297 8.32301 17.3247 8.29362 17.4227 8.28345C17.5208 8.27328 17.6198 8.28253 17.7143 8.31067C17.8087 8.33881 17.8967 8.38529 17.9732 8.44745C18.0497 8.50961 18.1132 8.58624 18.16 8.67295C18.696 9.66294 19 10.7979 19 12.0009C19.0017 13.1629 18.7129 14.3069 18.16 15.3289C18.1131 15.4156 18.0496 15.4922 17.9731 15.5543C17.8967 15.6165 17.8087 15.6629 17.7143 15.6911C17.6198 15.7192 17.5208 15.7285 17.4227 15.7183C17.3247 15.7082 17.2297 15.6788 17.143 15.6319C17.0563 15.5851 16.9797 15.5216 16.9176 15.4451C16.8555 15.3686 16.809 15.2806 16.7809 15.1862C16.7527 15.0918 16.7435 14.9927 16.7536 14.8947C16.7638 14.7967 16.7931 14.7016 16.84 14.6149C17.26 13.8379 17.5 12.9489 17.5 12.0009C17.5 11.0529 17.26 10.1639 16.84 9.38694C16.7931 9.30028 16.7637 9.20522 16.7535 9.10719C16.7433 9.00917 16.7526 8.9101 16.7807 8.81565C16.8089 8.7212 16.8553 8.63322 16.9175 8.55674C16.9797 8.48027 17.0563 8.41679 17.143 8.36994Z" fill="#F4B1A3"/>
</svg>
