<svg width="24" height="24" viewBox="0 0 24 24" fill="none" xmlns="http://www.w3.org/2000/svg">
<path d="M14.3965 3.60723C14.3965 2.55963 13.1485 2.01483 12.3805 2.72763L7.73408 7.03923C7.62325 7.1424 7.4775 7.19984 7.32608 7.20003H4.19648C3.71909 7.20003 3.26126 7.38968 2.92369 7.72724C2.58613 8.06481 2.39648 8.52264 2.39648 9.00003V15C2.39648 15.4774 2.58613 15.9353 2.92369 16.2728C3.26126 16.6104 3.71909 16.8 4.19648 16.8H7.32608C7.47734 16.7999 7.62306 16.8569 7.73408 16.9596L12.3805 21.2724C13.1485 21.984 14.3965 21.4404 14.3965 20.3928V3.60723Z" fill="#F4B1A3"/>
<path d="M15.7722 9.1753C15.8279 9.11942 15.8942 9.07509 15.9671 9.04484C16.0399 9.01459 16.1181 8.99902 16.197 8.99902C16.2759 8.99902 16.3541 9.01459 16.427 9.04484C16.4999 9.07509 16.5661 9.11942 16.6218 9.1753L18.597 11.1517L20.5722 9.1753C20.6847 9.06263 20.8374 8.99927 20.9966 8.99916C21.0754 8.99911 21.1535 9.01458 21.2264 9.0447C21.2992 9.07482 21.3654 9.11899 21.4212 9.1747C21.477 9.2304 21.5213 9.29655 21.5515 9.36937C21.5817 9.44218 21.5973 9.52023 21.5973 9.59907C21.5974 9.67791 21.5819 9.75598 21.5518 9.82884C21.5217 9.9017 21.4775 9.96791 21.4218 10.0237L19.4454 12.0001L21.4218 13.9753C21.4791 14.0306 21.5248 14.0969 21.5563 14.1701C21.5877 14.2433 21.6043 14.322 21.605 14.4017C21.6057 14.4813 21.5905 14.5603 21.5603 14.6341C21.5301 14.7078 21.4856 14.7748 21.4292 14.8311C21.3729 14.8875 21.3059 14.932 21.2322 14.9622C21.1584 14.9924 21.0794 15.0075 20.9998 15.0068C20.9201 15.0062 20.8414 14.9896 20.7682 14.9582C20.695 14.9267 20.6288 14.881 20.5734 14.8237L18.597 12.8485L16.6218 14.8237C16.5661 14.8795 16.5 14.9237 16.4271 14.954C16.3543 14.9842 16.2763 14.9998 16.1974 14.9998C16.1186 14.9999 16.0405 14.9844 15.9677 14.9543C15.8948 14.9242 15.8286 14.88 15.7728 14.8243C15.717 14.7686 15.6728 14.7024 15.6425 14.6296C15.6123 14.5568 15.5967 14.4788 15.5967 14.3999C15.5966 14.3211 15.6121 14.243 15.6422 14.1701C15.6723 14.0973 15.7165 14.0311 15.7722 13.9753L17.7486 12.0001L15.7734 10.0237C15.6609 9.91118 15.5977 9.75859 15.5977 9.5995C15.5977 9.4404 15.6609 9.28781 15.7734 9.1753H15.7722Z" fill="#F4B1A3"/>
</svg>
