<svg width="24" height="24" viewBox="0 0 24 24" fill="none" xmlns="http://www.w3.org/2000/svg">
<rect width="24" height="24" fill="#FFB3AA"/>
<path d="M16.8099 7.35259C16.6405 7.01381 16.2943 6.7998 15.9155 6.7998H7.81823C7.43946 6.7998 7.09319 7.01381 6.9238 7.35259L5.49268 10.2148C5.315 10.5702 5.36454 10.997 5.61889 11.3022L11.0986 17.8779C11.4984 18.3577 12.2353 18.3577 12.6351 17.8779L18.1148 11.3022C18.3692 10.997 18.4187 10.5702 18.241 10.2148L16.8099 7.35259ZM11.8669 10.1331C11.1379 10.1331 10.6638 9.36599 10.9898 8.71398L11.0178 8.65787C11.1786 8.33628 11.5073 8.13314 11.8669 8.13314C12.2264 8.13314 12.5551 8.33628 12.7159 8.65787L12.744 8.71398C13.07 9.36599 12.5958 10.1331 11.8669 10.1331ZM10.2002 11.4665C10.7525 11.4665 11.2002 11.9142 11.2002 12.4665V13.1552C11.2002 14.0908 10.0301 14.514 9.4316 13.7949L8.85834 13.1062C8.31612 12.4548 8.77937 11.4665 9.62693 11.4665H10.2002ZM12.5335 12.4665C12.5335 11.9142 12.9812 11.4665 13.5335 11.4665H14.1068C14.9544 11.4665 15.4176 12.4548 14.8754 13.1062L14.3021 13.7949C13.7036 14.514 12.5335 14.0908 12.5335 13.1552V12.4665ZM16.1352 8.98973C16.3978 9.51505 16.0158 10.1331 15.4285 10.1331C15.1292 10.1331 14.8557 9.96406 14.7218 9.69639L14.5119 9.27655C14.2492 8.75123 14.6312 8.13314 15.2186 8.13314C15.5178 8.13314 15.7914 8.30222 15.9252 8.56988L16.1352 8.98973ZM7.80849 8.56988C7.94232 8.30222 8.2159 8.13314 8.51516 8.13314C9.10249 8.13314 9.48449 8.75123 9.22182 9.27655L9.0119 9.69639C8.87807 9.96406 8.60449 10.1331 8.30523 10.1331C7.71791 10.1331 7.33591 9.51505 7.59857 8.98973L7.80849 8.56988Z" fill="#010B19"/>
</svg>
