<svg width="60" height="60" viewBox="0 0 60 60" fill="#F4B1A3" xmlns="http://www.w3.org/2000/svg">
<rect width="60" height="60" fill="#F4B1A3"/>
<path d="M30 50C41.0457 50 50 41.0457 50 30C50 18.9543 41.0457 10 30 10C18.9543 10 10 18.9543 10 30C10 41.0457 18.9543 50 30 50Z" fill="#F4B1A3"/>
<path d="M23.2801 19.4399L21.1201 21.5999V30.1599L23.2801 32.3199H31.8401V36.6399H27.6001V34.4799H21.1201V38.7999L23.2801 40.9599H36.1601L38.3201 38.7999V30.1599L36.1601 27.9999H27.6001V23.6799H31.9201V25.8399H38.4001V21.5199L36.2401 19.3599H23.2801V19.4399Z" fill="black"/>
</svg>
