<svg width="60" height="60" viewBox="0 0 60 60" fill="#F4B1A3" xmlns="http://www.w3.org/2000/svg">
<rect width="60" height="60" fill="#F4B1A3"/>
<path d="M45.9673 36.8168L44.1507 24.0502C43.684 20.7668 40.8673 18.3335 37.5507 18.3335H22.4507C19.134 18.3335 16.3173 20.7668 15.8507 24.0502L14.034 36.8168C13.6673 39.3835 15.6507 41.6668 18.234 41.6668C19.3673 41.6668 20.434 41.2168 21.234 40.4168L25.0007 36.6668H35.0007L38.7507 40.4168C39.5507 41.2168 40.634 41.6668 41.7507 41.6668C44.3507 41.6668 46.334 39.3835 45.9673 36.8168ZM42.4673 38.0168C42.334 38.1668 42.1173 38.3335 41.7673 38.3335C41.5173 38.3335 41.284 38.2335 41.1173 38.0668L36.384 33.3335H23.6173L18.884 38.0668C18.7173 38.2335 18.484 38.3335 18.234 38.3335C17.884 38.3335 17.6673 38.1668 17.534 38.0168C17.4007 37.8668 17.2673 37.6335 17.3173 37.2835L19.134 24.5168C19.384 22.9002 20.8007 21.6668 22.4507 21.6668H37.5507C39.2007 21.6668 40.6173 22.9002 40.8507 24.5335L42.6673 37.3002C42.7173 37.6335 42.584 37.8668 42.4673 38.0168Z" fill="black"/>
<path d="M25 23.3335H23.3333V26.6668H20V28.3335H23.3333V31.6668H25V28.3335H28.3333V26.6668H25V23.3335Z" fill="black"/>
<path d="M38.3346 31.6668C39.2551 31.6668 40.0013 30.9206 40.0013 30.0002C40.0013 29.0797 39.2551 28.3335 38.3346 28.3335C37.4142 28.3335 36.668 29.0797 36.668 30.0002C36.668 30.9206 37.4142 31.6668 38.3346 31.6668Z" fill="black"/>
<path d="M35.0007 26.6668C35.9211 26.6668 36.6673 25.9206 36.6673 25.0002C36.6673 24.0797 35.9211 23.3335 35.0007 23.3335C34.0802 23.3335 33.334 24.0797 33.334 25.0002C33.334 25.9206 34.0802 26.6668 35.0007 26.6668Z" fill="black"/>
</svg>
