<svg width="60" height="60" viewBox="0 0 60 60" fill="#F4B1A3" xmlns="http://www.w3.org/2000/svg">
<rect width="60" height="60" fill="#F4B1A3"/>
<path d="M35.9673 37.9998L30.0007 34.1665L24.034 37.9998L25.834 31.1332L20.3507 26.6665L27.434 26.2332L30.0007 19.6665L32.5673 26.2332L39.6507 26.6665L34.1673 31.1332L35.9673 37.9998ZM43.334 29.9998C43.334 28.1498 44.834 26.6665 46.6673 26.6665V19.9998C46.6673 18.1498 45.1673 16.6665 43.334 16.6665H16.6673C15.7833 16.6665 14.9354 17.0177 14.3103 17.6428C13.6852 18.2679 13.334 19.1158 13.334 19.9998V26.6665C15.184 26.6665 16.6673 28.1665 16.6673 29.9998C16.6673 30.8839 16.3161 31.7317 15.691 32.3569C15.0659 32.982 14.218 33.3332 13.334 33.3332V39.9998C13.334 40.8839 13.6852 41.7317 14.3103 42.3569C14.9354 42.982 15.7833 43.3332 16.6673 43.3332H43.334C44.218 43.3332 45.0659 42.982 45.691 42.3569C46.3161 41.7317 46.6673 40.8839 46.6673 39.9998V33.3332C45.7833 33.3332 44.9354 32.982 44.3103 32.3569C43.6852 31.7317 43.334 30.8839 43.334 29.9998Z" fill="black"/>
</svg>
