<svg width="25" height="24" viewBox="0 0 25 24" fill="none" xmlns="http://www.w3.org/2000/svg">
<rect x="0.169922" width="24" height="24" fill="#FFB3AA"/>
<path fill-rule="evenodd" clip-rule="evenodd" d="M19.4534 10.2315C19.9057 10.6121 20.1698 11.2079 20.1698 11.8398V15.4903C20.1698 16.3878 19.6407 17.183 18.8605 17.4321C18.8604 17.4321 18.8604 17.4321 18.8603 17.4322L12.3306 19.5201C12.3303 19.5202 12.3299 19.5203 12.3296 19.5204C11.7821 19.6974 11.1929 19.5758 10.7398 19.1908C10.2875 18.8101 10.0234 18.2144 10.0234 17.5825V13.9321C10.0234 13.0373 10.5532 12.2427 11.3327 11.9939C11.3328 11.9939 11.3329 11.9938 11.333 11.9938L17.8626 9.90221C17.8629 9.90213 17.8632 9.90204 17.8634 9.90195C18.411 9.72488 19.0002 9.84643 19.4534 10.2315ZM18.8443 11.1135C18.6448 10.9436 18.3858 10.8899 18.1437 10.9683L18.1423 10.9688L11.6101 13.0612C11.2663 13.1709 11.0255 13.5247 11.0255 13.9321V17.5825C11.0255 17.8716 11.1463 18.1386 11.3463 18.3067L11.3476 18.3078L11.3489 18.3088C11.5485 18.4787 11.8074 18.5324 12.0495 18.454L12.0512 18.4535L18.5828 16.3649L18.5831 16.3648C18.9262 16.2553 19.1677 15.9021 19.1677 15.4903V11.8398C19.1677 11.5507 19.047 11.2837 18.8469 11.1156L18.8456 11.1146L18.8443 11.1135Z" fill="#1F1A1B"/>
<path fill-rule="evenodd" clip-rule="evenodd" d="M16.1924 9.00964C16.6074 8.87608 17.0487 8.91623 17.4385 9.13L17.014 10.1566C16.8445 10.0636 16.6493 10.0437 16.4599 10.1041L10.0263 12.2415C9.68819 12.3536 9.45021 12.7152 9.45021 13.1368V16.8737C9.45021 17.1697 9.5692 17.443 9.76634 17.6151L9.7698 17.6181L9.77322 17.6212C9.80022 17.6456 9.83559 17.6712 9.87742 17.6955L9.4322 18.7104C9.34646 18.6605 9.25442 18.5972 9.16664 18.5183C8.72228 18.1286 8.46289 17.5196 8.46289 16.8737V13.1368C8.46289 12.218 8.98418 11.404 9.75288 11.149C9.75297 11.149 9.75306 11.1489 9.75315 11.1489L16.1904 9.01028L16.1924 9.00964Z" fill="#1F1A1B"/>
<path fill-rule="evenodd" clip-rule="evenodd" d="M11.1799 8.75311C11.4455 8.69222 11.6228 8.39683 11.5775 8.08527C11.5314 7.76816 11.2723 7.55438 10.9988 7.60779C10.9485 7.61761 10.9027 7.63305 10.8716 7.64476L5.00103 9.60903C4.54798 9.76066 4.22749 10.218 4.17619 10.7522L4.17585 10.7557L4.17555 10.7592C4.12933 11.3006 4.37091 11.8227 4.78468 12.0755C4.78482 12.0756 4.78496 12.0757 4.7851 12.0758L6.07438 12.8654C6.31965 13.0156 6.62351 12.9069 6.75309 12.6226C6.88266 12.3382 6.78888 11.986 6.54361 11.8357L5.25373 11.0457L5.25312 11.0454C5.20308 11.0148 5.17009 10.9481 5.17491 10.8774C5.18358 10.7999 5.22917 10.7448 5.27946 10.7279M5.27946 10.7279L7.42381 10.0108L11.1699 8.75701L11.1799 8.75311" fill="#1F1A1B"/>
<path fill-rule="evenodd" clip-rule="evenodd" d="M4.68932 12.4883C4.97618 12.4883 5.20873 12.7534 5.20873 13.0805C5.20873 13.1449 5.24043 13.2051 5.29082 13.2355L6.62475 14.039C6.87839 14.1918 6.97537 14.5501 6.84138 14.8393C6.70738 15.1284 6.39314 15.239 6.1395 15.0862L4.80557 14.2828C4.41588 14.0479 4.16992 13.5855 4.16992 13.0805C4.16992 12.7534 4.40247 12.4883 4.68932 12.4883Z" fill="#1F1A1B"/>
<path fill-rule="evenodd" clip-rule="evenodd" d="M4.16992 12.9332V10.7109H5.34065V12.9332H4.16992Z" fill="#1F1A1B"/>
<path fill-rule="evenodd" clip-rule="evenodd" d="M15.3845 8.95998C15.2366 8.85705 15.0635 8.81652 14.8895 8.8467C14.6145 8.8944 14.3602 8.6588 14.3214 8.32046C14.2826 7.98212 14.4741 7.66917 14.7491 7.62146C15.1362 7.5543 15.5306 7.64252 15.8728 7.8783L19.1215 9.98929C19.367 10.1489 19.461 10.5231 19.3313 10.8253C19.2016 11.1274 18.8974 11.243 18.6518 11.0834L15.3908 8.9644L15.3845 8.95998Z" fill="#1F1A1B"/>
<path fill-rule="evenodd" clip-rule="evenodd" d="M10.2278 9.93091C10.2281 9.93099 10.2285 9.93108 10.2288 9.93117L10.6442 10.0327L10.6458 10.0331C11.1697 10.1655 11.703 10.1862 12.2323 10.1009L12.3648 11.2332C11.7266 11.336 11.0797 11.3117 10.4425 11.1509L10.0262 11.0491C9.50171 10.9182 8.96054 10.9409 8.44319 11.1147C8.10918 11.2277 7.87526 11.5917 7.87526 12.0108V15.771C7.87526 16.0618 7.9906 16.3373 8.18648 16.5156C8.22304 16.5473 8.25297 16.5711 8.27733 16.5878L11.51 18.5891L11.0557 19.6L7.8082 17.5897L7.80155 17.5852C7.72604 17.5349 7.6573 17.478 7.60308 17.4309L7.59972 17.4279L7.5964 17.4249C7.15935 17.0311 6.90137 16.4196 6.90137 15.771V12.0108C6.90137 11.09 7.41638 10.2722 8.17408 10.0162L8.17472 10.016C8.84402 9.79107 9.54657 9.76105 10.2278 9.93091Z" fill="#1F1A1B"/>
<path fill-rule="evenodd" clip-rule="evenodd" d="M8.44744 4.49718C8.51047 4.82192 8.36773 5.15456 8.12862 5.24016C8.08464 5.25591 8.05461 5.27205 8.03216 5.28885L8.0299 5.29055L8.02761 5.29221C7.88696 5.39463 7.79683 5.59726 7.79683 5.81763V8.32476C7.79683 8.66059 7.59637 8.93284 7.3491 8.93284C7.10182 8.93284 6.90137 8.66059 6.90137 8.32476V5.81763C6.90137 5.15004 7.17219 4.53661 7.60225 4.22202C7.70742 4.14373 7.81077 4.09626 7.90038 4.06418C8.13949 3.97858 8.38442 4.17244 8.44744 4.49718Z" fill="#1F1A1B"/>
<path fill-rule="evenodd" clip-rule="evenodd" d="M9.29681 3.66508C9.71766 3.52738 10.1743 3.6089 10.5434 3.89072L10.5459 3.89261L13.0948 5.88872C13.0949 5.88883 13.0951 5.88895 13.0952 5.88906C13.8613 6.48644 14.3158 7.47646 14.3158 8.53515V10.1725H13.3073V8.53515C13.3073 7.84758 13.0125 7.21175 12.5233 6.83046L12.5224 6.82973L9.9779 4.83709C9.85503 4.74427 9.70857 4.72067 9.57842 4.76258L9.38548 4.82796L11.4511 6.44559C11.9211 6.80943 12.2735 7.32396 12.4737 7.91026C12.6003 8.27737 12.6723 8.67865 12.6723 9.09222V10.7107H11.6638V9.09222C11.6638 8.82865 11.6177 8.56783 11.5341 8.32545L11.5334 8.32342C11.405 7.94712 11.1796 7.61933 10.8814 7.38872L10.8801 7.38777L8.33289 5.39293C8.21968 5.30573 8.07846 5.278 7.94676 5.31478L7.68164 4.21238L9.29451 3.66583L9.29681 3.66508Z" fill="#1F1A1B"/>
<path fill-rule="evenodd" clip-rule="evenodd" d="M8.85313 4.48828C9.06866 4.48828 9.24338 4.72909 9.24338 5.02615V7.50597C9.24338 7.80302 9.06866 8.04384 8.85313 8.04384C8.63761 8.04384 8.46289 7.80302 8.46289 7.50597V5.02615C8.46289 4.72909 8.63761 4.48828 8.85313 4.48828Z" fill="#1F1A1B"/>
<path fill-rule="evenodd" clip-rule="evenodd" d="M17.4184 14.2354C17.4952 14.5385 17.3416 14.855 17.0754 14.9424L13.7862 16.022C13.52 16.1094 13.242 15.9345 13.1653 15.6314C13.0885 15.3283 13.2421 15.0118 13.5083 14.9244L16.7975 13.8448C17.0637 13.7574 17.3417 13.9323 17.4184 14.2354Z" fill="#1F1A1B"/>
</svg>
