<svg width="18" height="18" viewBox="0 0 18 18" fill="none" xmlns="http://www.w3.org/2000/svg">
<path d="M8.16602 4.83268H9.83268V6.49935H8.16602V4.83268ZM8.16602 8.16602H9.83268V13.166H8.16602V8.16602ZM8.99935 0.666016C4.39935 0.666016 0.666016 4.39935 0.666016 8.99935C0.666016 13.5993 4.39935 17.3327 8.99935 17.3327C13.5993 17.3327 17.3327 13.5993 17.3327 8.99935C17.3327 4.39935 13.5993 0.666016 8.99935 0.666016ZM8.99935 15.666C5.32435 15.666 2.33268 12.6743 2.33268 8.99935C2.33268 5.32435 5.32435 2.33268 8.99935 2.33268C12.6743 2.33268 15.666 5.32435 15.666 8.99935C15.666 12.6743 12.6743 15.666 8.99935 15.666Z" fill="#F4B1A3"/>
</svg>
