<svg width="21" height="31" viewBox="0 0 21 31" fill="none" xmlns="http://www.w3.org/2000/svg">
<path fill-rule="evenodd" clip-rule="evenodd" d="M10.0873 1.46978L0.466337 15.2141L0.265625 15.5008L0.466337 15.7875L10.0913 29.5375L10.501 30.1227L10.9106 29.5375L20.5356 15.7875L20.7363 15.5008L20.5356 15.2141L10.9146 1.46983C10.9121 1.46619 10.9096 1.4626 10.907 1.45903L10.501 0.878906L10.0948 1.45908C10.0923 1.46261 10.0898 1.46618 10.0873 1.46978ZM10.001 3.33699L10.001 11.7344L2.28495 15.0412L1.60357 15.3333L10.001 3.33699ZM11.001 11.7328L11.001 3.33699L19.3968 15.3311L18.7205 15.0412L11.001 11.7328ZM10.001 12.8223L3.75121 15.5008L10.001 18.1793V12.8223ZM11.001 18.1808V12.8208L17.2543 15.5008L11.001 18.1808ZM10.278 19.386C10.2951 19.3945 10.3128 19.4021 10.3309 19.4087L10.5027 19.4823L10.6997 19.3979L18.7205 15.9604L19.3968 15.6705L10.501 28.3789L1.60357 15.6684L2.28495 15.9604L10.278 19.386Z" fill="#F4B1A3"/>
</svg>
