<svg width="24" height="24" viewBox="0 0 24 24" fill="none" xmlns="http://www.w3.org/2000/svg">
<rect x="6" y="6" width="12.5" height="11" fill="white"/>
<path d="M9.98594 10.5C9.43497 10.5 9 10.9505 9 11.5C9 12.0495 9.44464 12.5 9.98594 12.5C10.5369 12.5 10.9719 12.0495 10.9719 11.5C10.9815 10.9505 10.5369 10.5 9.98594 10.5ZM13.5141 10.5C12.9631 10.5 12.5281 10.9505 12.5281 11.5C12.5281 12.0495 12.9728 12.5 13.5141 12.5C14.065 12.5 14.5 12.0495 14.5 11.5C14.5 10.9505 14.065 10.5 13.5141 10.5Z" fill="#7289DA"/>
<path d="M18.0671 2.5H5.43286C4.36743 2.5 3.5 3.374 3.5 4.457V17.301C3.5 18.384 4.36743 19.258 5.43286 19.258H16.1249L15.6251 17.5005L16.832 18.631L17.9729 19.695L20 21.5V4.457C20 3.374 19.1326 2.5 18.0671 2.5ZM14.4277 14.907C14.4277 14.907 14.0883 14.4985 13.8054 14.1375C15.0406 13.786 15.512 13.007 15.512 13.007C15.1254 13.2635 14.7577 13.444 14.4277 13.5675C13.9563 13.767 13.5037 13.9 13.0606 13.976C12.1554 14.147 11.3257 14.0995 10.6186 13.9665C10.0811 13.862 9.61914 13.71 9.23257 13.558C9.01571 13.4725 8.78 13.368 8.54429 13.235C8.516 13.216 8.48771 13.2065 8.45943 13.1875C8.44057 13.178 8.43114 13.1685 8.42171 13.159C8.252 13.064 8.15771 12.9975 8.15771 12.9975C8.15771 12.9975 8.61029 13.7575 9.80771 14.1185C9.52486 14.4795 9.176 14.907 9.176 14.907C7.09229 14.8405 6.30029 13.463 6.30029 13.463C6.30029 10.404 7.658 7.9245 7.658 7.9245C9.01571 6.8985 10.3074 6.927 10.3074 6.927L10.4017 7.041C8.70457 7.535 7.922 8.2855 7.922 8.2855C7.922 8.2855 8.12943 8.1715 8.47829 8.01C9.48714 7.5635 10.2886 7.44 10.6186 7.4115C10.6751 7.402 10.7223 7.3925 10.7789 7.3925C11.354 7.3165 12.0046 7.2975 12.6834 7.3735C13.5791 7.478 14.5409 7.744 15.5214 8.2855C15.5214 8.2855 14.7766 7.573 13.1737 7.079L13.3057 6.927C13.3057 6.927 14.5974 6.8985 15.9551 7.9245C15.9551 7.9245 17.3129 10.404 17.3129 13.463C17.3129 13.463 16.5114 14.8405 14.4277 14.907Z" fill="#7289DA"/>
</svg>
