<svg width="24" height="24" viewBox="0 0 24 24" fill="none" xmlns="http://www.w3.org/2000/svg">
<path d="M12 2.5C9.48044 2.5 7.06408 3.50089 5.28249 5.28249C3.50089 7.06408 2.5 9.48044 2.5 12C2.5 14.5196 3.50089 16.9359 5.28249 18.7175C7.06408 20.4991 9.48044 21.5 12 21.5C14.5196 21.5 16.9359 20.4991 18.7175 18.7175C20.4991 16.9359 21.5 14.5196 21.5 12C21.5 9.48044 20.4991 7.06408 18.7175 5.28249C16.9359 3.50089 14.5196 2.5 12 2.5Z" fill="#039BE5"/>
<path d="M13.286 14.5159H15.7445L16.1305 12.0184H13.2855V10.6534C13.2855 9.61594 13.6245 8.69594 14.595 8.69594H16.1545V6.51644C15.8805 6.47944 15.301 6.39844 14.206 6.39844C11.9195 6.39844 10.579 7.60594 10.579 10.3569V12.0184H8.22852V14.5159H10.579V21.3804C11.0445 21.4504 11.516 21.4979 12 21.4979C12.4375 21.4979 12.8645 21.4579 13.286 21.4009V14.5159Z" fill="white"/>
</svg>
