<svg width="30" height="30" viewBox="0 0 30 30" fill="none" xmlns="http://www.w3.org/2000/svg">
<circle cx="15" cy="15" r="14.5" fill="white"/>
<path d="M14.9985 0C6.7155 0 0 6.75672 0 15.0906C0 22.6215 5.484 28.8636 12.6555 30V19.4537H8.8455V15.0906H12.6555V11.7658C12.6555 7.98068 14.895 5.89345 18.3195 5.89345C19.9605 5.89345 21.6795 6.18775 21.6795 6.18775V9.89888H19.7835C17.9235 9.89888 17.3415 11.064 17.3415 12.2578V15.0875H21.498L20.8335 19.4507H17.3415V29.997C24.513 28.8666 29.997 22.623 29.997 15.0906C29.997 6.75672 23.2815 0 14.9985 0V0Z" fill="#1977F3"/>
</svg>
