<svg width="25" height="24" viewBox="0 0 25 24" fill="none" xmlns="http://www.w3.org/2000/svg">
<rect x="0.169922" width="24" height="24" fill="#F4B1A3"/>
<path d="M18.5565 14.7263L17.8298 9.61968C17.6431 8.30634 16.5165 7.33301 15.1898 7.33301H9.1498C7.82314 7.33301 6.69647 8.30634 6.5098 9.61968L5.78314 14.7263C5.63647 15.753 6.4298 16.6663 7.46314 16.6663C7.91647 16.6663 8.34314 16.4863 8.66314 16.1663L10.1698 14.6663H14.1698L15.6698 16.1663C15.9898 16.4863 16.4231 16.6663 16.8698 16.6663C17.9098 16.6663 18.7031 15.753 18.5565 14.7263ZM17.1565 15.2063C17.1031 15.2663 17.0165 15.333 16.8765 15.333C16.7765 15.333 16.6831 15.293 16.6165 15.2263L14.7231 13.333H9.61647L7.72314 15.2263C7.65647 15.293 7.56314 15.333 7.46314 15.333C7.32314 15.333 7.23647 15.2663 7.18314 15.2063C7.1298 15.1463 7.07647 15.053 7.09647 14.913L7.82314 9.80634C7.92314 9.15968 8.4898 8.66634 9.1498 8.66634H15.1898C15.8498 8.66634 16.4165 9.15968 16.5098 9.81301L17.2365 14.9197C17.2565 15.053 17.2031 15.1463 17.1565 15.2063Z" fill="#010B19"/>
<path d="M10.1699 9.33301H9.50326V10.6663H8.16992V11.333H9.50326V12.6663H10.1699V11.333H11.5033V10.6663H10.1699V9.33301Z" fill="#010B19"/>
<path d="M15.5036 12.6663C15.8718 12.6663 16.1702 12.3679 16.1702 11.9997C16.1702 11.6315 15.8718 11.333 15.5036 11.333C15.1354 11.333 14.8369 11.6315 14.8369 11.9997C14.8369 12.3679 15.1354 12.6663 15.5036 12.6663Z" fill="#010B19"/>
<path d="M14.1696 10.6663C14.5378 10.6663 14.8363 10.3679 14.8363 9.99967C14.8363 9.63148 14.5378 9.33301 14.1696 9.33301C13.8014 9.33301 13.5029 9.63148 13.5029 9.99967C13.5029 10.3679 13.8014 10.6663 14.1696 10.6663Z" fill="#010B19"/>
</svg>
