<svg width="24" height="24" viewBox="0 0 24 24" fill="none" xmlns="http://www.w3.org/2000/svg">
<path d="M21.3152 10.1394H20.55V10.1H12V13.9H17.3689C16.5857 16.1121 14.4809 17.7 12 17.7C8.85217 17.7 6.3 15.1478 6.3 12C6.3 8.85217 8.85217 6.3 12 6.3C13.453 6.3 14.775 6.84815 15.7815 7.74352L18.4685 5.05645C16.7718 3.47517 14.5023 2.5 12 2.5C6.75362 2.5 2.5 6.75362 2.5 12C2.5 17.2464 6.75362 21.5 12 21.5C17.2464 21.5 21.5 17.2464 21.5 12C21.5 11.363 21.4345 10.7413 21.3152 10.1394Z" fill="#FFC107"/>
<path d="M3.5957 7.57823L6.71693 9.86725C7.56148 7.7763 9.60683 6.3 12.0004 6.3C13.4534 6.3 14.7753 6.84815 15.7818 7.74353L18.4689 5.05645C16.7722 3.47518 14.5027 2.5 12.0004 2.5C8.3514 2.5 5.18695 4.56008 3.5957 7.57823Z" fill="#FF3D00"/>
<path d="M12.0003 21.5001C14.4542 21.5001 16.6838 20.5611 18.3696 19.0339L15.4294 16.5459C14.4756 17.2684 13.29 17.7001 12.0003 17.7001C9.52939 17.7001 7.43132 16.1246 6.64092 13.9258L3.54297 16.3127C5.11522 19.3892 8.30817 21.5001 12.0003 21.5001Z" fill="#4CAF50"/>
<path d="M21.3152 10.141H20.55V10.1016H12V13.9016H17.3689C16.9927 14.9641 16.3092 15.8804 15.4276 16.5478C15.4281 16.5473 15.4286 16.5473 15.429 16.5468L18.3693 19.0349C18.1612 19.2239 21.5 16.7516 21.5 12.0016C21.5 11.3646 21.4345 10.7428 21.3152 10.141Z" fill="#1976D2"/>
</svg>
