<svg width="24" height="24" viewBox="0 0 24 24" fill="none" xmlns="http://www.w3.org/2000/svg">
<rect width="24" height="24" fill="#FFB3AA"/>
<path d="M4 10.1111C4 10.6634 4.44772 11.1111 5 11.1111H10.1072C10.6594 11.1111 11.1072 10.6634 11.1072 10.1111V5C11.1072 4.44771 10.6594 4 10.1072 4H5C4.44772 4 4 4.44772 4 5V10.1111ZM5.77679 6.77778C5.77679 6.22549 6.22451 5.77778 6.77679 5.77778H8.33037C8.88266 5.77778 9.33037 6.22549 9.33037 6.77778V8.33333C9.33037 8.88562 8.88266 9.33333 8.33037 9.33333H6.77679C6.22451 9.33333 5.77679 8.88562 5.77679 8.33333V6.77778ZM4 19C4 19.5523 4.44772 20 5 20H10.1072C10.6594 20 11.1072 19.5523 11.1072 19V13.8889C11.1072 13.3366 10.6594 12.8889 10.1072 12.8889H5C4.44772 12.8889 4 13.3366 4 13.8889V19ZM5.77679 15.6667C5.77679 15.1144 6.22451 14.6667 6.77679 14.6667H8.33037C8.88266 14.6667 9.33037 15.1144 9.33037 15.6667V17.2222C9.33037 17.7745 8.88266 18.2222 8.33037 18.2222H6.77679C6.22451 18.2222 5.77679 17.7745 5.77679 17.2222V15.6667ZM13.884 4C13.3317 4 12.884 4.44772 12.884 5V10.1111C12.884 10.6634 13.3317 11.1111 13.884 11.1111H18.9911C19.5434 11.1111 19.9911 10.6634 19.9911 10.1111V5C19.9911 4.44771 19.5434 4 18.9911 4H13.884ZM18.2143 8.33333C18.2143 8.88562 17.7666 9.33333 17.2143 9.33333H15.6607C15.1085 9.33333 14.6607 8.88562 14.6607 8.33333V6.77778C14.6607 6.22549 15.1085 5.77778 15.6607 5.77778H17.2143C17.7666 5.77778 18.2143 6.22549 18.2143 6.77778V8.33333Z" fill="#010B19"/>
<mask id="path-3-inside-1_2402_272155" fill="white">
<rect x="12.7998" y="12.7998" width="7.2" height="7.2" rx="1"/>
</mask>
<rect x="12.7998" y="12.7998" width="7.2" height="7.2" rx="1" fill="#010B19" stroke="#010B19" stroke-width="7.2" mask="url(#path-3-inside-1_2402_272155)"/>
<path fill-rule="evenodd" clip-rule="evenodd" d="M16.1 16.684C15.7823 16.9969 15.2722 16.9969 14.9545 16.684L14.5699 16.305C14.4656 16.2023 14.2981 16.2023 14.1938 16.305C14.0872 16.41 14.0872 16.5818 14.1938 16.6868L14.8255 17.3091C15.2148 17.6926 15.8398 17.6926 16.229 17.3091L18.6062 14.9674C18.7128 14.8624 18.7128 14.6906 18.6062 14.5856C18.5019 14.4829 18.3344 14.4829 18.2301 14.5856L16.1 16.684Z" fill="#FFB3AA"/>
</svg>
