<svg width="18" height="19" viewBox="0 0 18 19" fill="none" xmlns="http://www.w3.org/2000/svg">
  <path fill-rule="evenodd" clip-rule="evenodd" d="M17.25 9.1709C17.25 13.7272 13.5563 17.4209 9 17.4209C4.44365 17.4209 0.75 13.7272 0.75 9.1709C0.75 4.61455 4.44365 0.920898 9 0.920898C13.5563 0.920898 17.25 4.61455 17.25 9.1709ZM9.74035 6.80972L4.18467 9.09876L4.18412 9.09882C3.20649 9.48025 3.77877 9.83789 3.77877 9.83789C3.77877 9.83789 4.61332 10.124 5.3286 10.3386C6.04387 10.5532 6.42543 10.3147 6.42543 10.3147L9.78745 8.04956C10.9796 7.23879 10.6935 7.90642 10.4074 8.19256C9.78751 8.81248 8.76218 9.79011 7.90377 10.577C7.52227 10.9107 7.71298 11.1969 7.87991 11.3399C8.36524 11.7506 9.50807 12.4973 10.0274 12.8365C10.1714 12.9307 10.2675 12.9935 10.2882 13.009C10.4074 13.1044 11.0743 13.5335 11.4803 13.4382C11.8864 13.3428 11.9341 12.7944 11.9341 12.7944L12.5302 9.05097C12.5827 8.70305 12.6352 8.36234 12.6843 8.04428C12.8133 7.2072 12.9182 6.52704 12.9355 6.28516C13.0071 5.47453 12.1487 5.80831 12.1487 5.80831C12.1487 5.80831 10.2888 6.5713 9.74035 6.80972Z" fill="#F4B1A3" />
</svg>
  