<svg width="20" height="12" viewBox="0 0 20 12" fill="none" xmlns="http://www.w3.org/2000/svg">
<path d="M11.2812 6C11.2812 9.31333 8.75625 12 5.64 12C4.90033 12.001 4.16771 11.8467 3.48396 11.5457C2.80022 11.2448 2.17875 10.8031 1.65502 10.246C1.1313 9.6888 0.715587 9.02707 0.431617 8.29855C0.147648 7.57003 0.000984258 6.78898 0 6C0 2.68534 2.525 7.25851e-06 5.64 7.25851e-06C6.37978 -0.00121929 7.11253 0.153012 7.79642 0.453892C8.48031 0.754773 9.10193 1.19641 9.62579 1.75358C10.1496 2.31075 10.5655 2.97253 10.8495 3.70114C11.1336 4.42975 11.2803 5.21091 11.2812 6ZM17.4688 6C17.4688 9.12 16.2062 11.648 14.6488 11.648C13.0912 11.648 11.8288 9.11866 11.8288 6C11.8288 2.88 13.0912 0.352007 14.6488 0.352007C16.2062 0.352007 17.4688 2.88134 17.4688 6ZM20 6C20 8.79466 19.5562 11.06 19.0075 11.06C18.46 11.06 18.0163 8.79333 18.0163 6C18.0163 3.20534 18.46 0.940006 19.0087 0.940006C19.5562 0.940006 20 3.20534 20 6Z" fill="#F4B1A3"/>
</svg>
