<svg width="24" height="25" viewBox="0 0 24 25" fill="none" xmlns="http://www.w3.org/2000/svg">
<path d="M17.6938 12.7237C17.691 11.8273 17.595 10.9336 17.4072 10.057H19.8072C19.6836 9.69141 19.5343 9.33497 19.3605 8.99036H17.1272C16.7073 7.58774 16.0561 6.26509 15.2005 5.07703C14.6538 4.84717 14.0838 4.67728 13.5005 4.57036C14.6727 5.82986 15.5575 7.32882 16.0938 8.9637H12.5005V4.45703H11.5005V8.97036H7.90716C8.44454 7.33253 9.33171 5.83116 10.5072 4.57036C9.92634 4.6755 9.3586 4.84314 8.81383 5.07036C7.9548 6.25345 7.29913 7.57153 6.87383 8.97036H4.62716C4.45021 9.32126 4.2987 9.68441 4.17383 10.057H6.59383C6.40602 10.9336 6.30995 11.8273 6.30716 12.7237C6.309 13.7042 6.42081 14.6814 6.64049 15.637H4.28049C4.41841 16.0107 4.58329 16.3739 4.77383 16.7237H6.92716C7.3353 18.0009 7.94037 19.2065 8.72049 20.297C9.27914 20.5366 9.86274 20.7133 10.4605 20.8237C9.37244 19.6369 8.53567 18.2422 8.00049 16.7237H11.5072V20.9504H12.5072V16.7237H16.0005C15.4635 18.2429 14.6244 19.6376 13.5338 20.8237C14.1344 20.7095 14.7203 20.5283 15.2805 20.2837C16.0594 19.1973 16.6644 17.9962 17.0738 16.7237H19.2072C19.3968 16.3804 19.5617 16.0239 19.7005 15.657H17.3338C17.564 14.6959 17.6847 13.7119 17.6938 12.7237ZM11.5005 15.637H7.67383C7.20448 13.8023 7.18389 11.8814 7.61383 10.037H11.5005V15.637ZM16.3272 15.637H12.5005V10.057H16.3872C16.5787 10.9329 16.6726 11.8272 16.6672 12.7237C16.6726 13.705 16.5584 14.6833 16.3272 15.637Z" fill="#F4B1A3"/>
<path d="M12.0007 2.05469C9.89099 2.05469 7.8287 2.68028 6.07457 3.85234C4.32045 5.02441 2.95328 6.69032 2.14594 8.6394C1.33861 10.5885 1.12737 12.7332 1.53895 14.8023C1.95052 16.8714 2.96642 18.7721 4.45818 20.2638C5.94994 21.7556 7.85056 22.7715 9.91969 23.1831C11.9888 23.5946 14.1335 23.3834 16.0826 22.5761C18.0317 21.7687 19.6976 20.4016 20.8697 18.6474C22.0417 16.8933 22.6673 14.831 22.6673 12.7214C22.6673 9.89238 21.5435 7.17927 19.5431 5.17888C17.5427 3.17849 14.8296 2.05469 12.0007 2.05469ZM12.0007 22.0547C10.1547 22.0547 8.35019 21.5073 6.81533 20.4817C5.28048 19.4562 4.0842 17.9985 3.37778 16.2931C2.67136 14.5876 2.48653 12.711 2.84666 10.9005C3.20679 9.09002 4.0957 7.42698 5.40099 6.12169C6.70628 4.8164 8.36932 3.92749 10.1798 3.56736C11.9903 3.20723 13.8669 3.39206 15.5724 4.09848C17.2778 4.8049 18.7355 6.00117 19.761 7.53603C20.7866 9.07089 21.334 10.8754 21.334 12.7214C21.334 15.1967 20.3507 17.5707 18.6003 19.321C16.85 21.0714 14.476 22.0547 12.0007 22.0547Z" fill="#F4B1A3"/>
</svg>
