<svg width="20" height="20" viewBox="0 0 20 20" fill="none" xmlns="http://www.w3.org/2000/svg">
<path d="M19.1831 6.91745C18.1137 5.89461 16.3888 5.88211 15.2601 6.85112C13.946 6.24837 12.4255 5.86481 10.7923 5.77348C11.3965 3.98351 12.639 1.48121 13.8906 1.24088C14.3115 1.16109 14.7707 1.37258 15.253 1.87246C15.2178 2.00512 15.1916 2.14163 15.1916 2.28294C15.1916 3.16832 15.9448 3.88738 16.8722 3.88738C17.7995 3.88738 18.5527 3.17024 18.5527 2.28294C18.5527 1.39757 17.7995 0.680431 16.8722 0.680431C16.5701 0.680431 16.2871 0.763104 16.0414 0.897688C15.2782 0.173817 14.4726 -0.1165 13.6389 0.042117C11.2051 0.510278 9.73199 4.87081 9.45307 5.76675C7.73423 5.84078 6.13421 6.23395 4.76377 6.86938C3.63701 5.87827 1.89501 5.88692 0.816587 6.91649C-0.24573 7.93068 -0.265868 9.55722 0.722942 10.6358C0.40173 11.3385 0.221488 12.0893 0.221488 12.8699C0.221488 16.8007 4.6228 20 10.0331 20C15.4433 20 19.8466 16.8017 19.8466 12.8699C19.8466 12.0711 19.6563 11.3049 19.321 10.5868C20.2655 9.51012 20.2293 7.91626 19.1831 6.91745ZM1.2687 7.34908C2.04907 6.6031 3.28156 6.55407 4.15558 7.17797C2.80226 7.91722 1.71679 8.89872 1.03308 10.0398C0.435965 9.20923 0.509471 8.07295 1.2687 7.34908ZM10.0331 18.7753C5.32766 18.7753 1.5013 16.1269 1.5013 12.8699C1.5013 9.61586 5.32766 6.96552 10.0331 6.96552C14.7395 6.96552 18.5658 9.61586 18.5658 12.8699C18.5658 16.1288 14.7395 18.7753 10.0331 18.7753ZM15.8723 7.15778C16.7463 6.55503 17.9576 6.61271 18.73 7.35004C19.4771 8.06142 19.5607 9.16789 19.0018 9.9927C18.3111 8.86027 17.2256 7.88742 15.8723 7.15778ZM6.45945 12.7699C5.57637 12.7699 4.85943 12.0864 4.85943 11.2424C4.85943 10.3993 5.57536 9.71488 6.45945 9.71488C7.34354 9.71488 8.05947 10.3984 8.05947 11.2424C8.05947 12.0864 7.34253 12.7699 6.45945 12.7699ZM15.1936 11.2415C15.1936 12.0845 14.4777 12.769 13.5936 12.769C12.7105 12.769 11.9936 12.0855 11.9936 11.2415C11.9936 10.3974 12.7095 9.71392 13.5936 9.71392C14.4767 9.71392 15.1936 10.3974 15.1936 11.2415ZM13.8463 15.2963C14.0648 15.5606 14.0145 15.9461 13.7335 16.1547C12.3984 17.143 11.1014 17.4765 9.9656 17.4765C7.69496 17.4765 6.06473 16.1519 6.04056 16.1307C5.77473 15.9115 5.74755 15.5232 5.97914 15.2694C6.21174 15.0156 6.61351 14.9896 6.87934 15.2088C6.99816 15.3059 9.78334 17.5352 12.9481 15.1896C13.2261 14.981 13.6278 15.0319 13.8463 15.2963Z" fill="#F4B1A3"/>
</svg>
