<svg width="28" height="22" viewBox="0 0 28 22" fill="none" xmlns="http://www.w3.org/2000/svg">
<path d="M9.05337 21.6654C19.1168 21.6654 24.62 13.4587 24.62 6.34208C24.62 6.10901 24.6152 5.87699 24.6046 5.64594C25.6753 4.88328 26.5994 3.93894 27.3337 2.85717C26.3534 3.28614 25.2984 3.57488 24.1919 3.70507C25.3213 3.03827 26.1885 1.98363 26.5977 0.7263C25.5236 1.35349 24.3487 1.7956 23.1235 2.03357C22.1251 0.986768 20.7039 0.332031 19.1299 0.332031C16.1086 0.332031 13.6585 2.74389 13.6585 5.71685C13.6585 6.13948 13.7065 6.55058 13.8004 6.94484C9.25328 6.71961 5.2212 4.57659 2.52272 1.31797C2.0367 2.13979 1.78105 3.07389 1.78188 4.02482C1.78188 5.89328 2.74777 7.54277 4.21656 8.50774C3.34776 8.48165 2.49802 8.25065 1.73875 7.83415C1.73794 7.85679 1.73794 7.87881 1.73794 7.90295C1.73794 10.5111 3.62382 12.6888 6.12723 13.1822C5.65705 13.3083 5.17188 13.3721 4.68457 13.3718C4.33946 13.3716 3.99515 13.339 3.6563 13.2746C4.35285 15.4145 6.3726 16.9717 8.7672 17.0152C6.89465 18.4599 4.53575 19.3204 1.97203 19.3204C1.53096 19.3204 1.09526 19.2958 0.666992 19.2459C3.08835 20.7737 5.96348 21.6651 9.05364 21.6651" fill="#1DA1F2"/>
</svg>
