<svg width="22" height="18" viewBox="0 0 22 18" fill="none" xmlns="http://www.w3.org/2000/svg">
<path d="M18.6239 1.517C17.2217 0.873607 15.7181 0.399584 14.1459 0.128092C14.1173 0.122852 14.0887 0.135947 14.0739 0.162136C13.8805 0.506083 13.6663 0.95479 13.5163 1.30747C11.8254 1.05432 10.1431 1.05432 8.48679 1.30747C8.33676 0.946951 8.11478 0.506083 7.92053 0.162136C7.90578 0.13682 7.87718 0.123726 7.84855 0.128092C6.27725 0.398717 4.7736 0.872739 3.37052 1.517C3.35838 1.52224 3.34797 1.53097 3.34106 1.54231C0.488942 5.80331 -0.292371 9.95958 0.0909151 14.0643C0.0926494 14.0844 0.103922 14.1036 0.119532 14.1158C2.00127 15.4977 3.82406 16.3367 5.61301 16.8927C5.64164 16.9015 5.67197 16.891 5.69019 16.8674C6.11337 16.2895 6.49059 15.6802 6.81402 15.0394C6.83311 15.0019 6.81489 14.9574 6.77588 14.9425C6.17754 14.7155 5.6078 14.4388 5.05975 14.1245C5.0164 14.0992 5.01293 14.0372 5.05281 14.0075C5.16814 13.9211 5.2835 13.8312 5.39363 13.7404C5.41355 13.7238 5.44131 13.7203 5.46474 13.7308C9.06518 15.3746 12.9631 15.3746 16.521 13.7308C16.5445 13.7195 16.5722 13.723 16.593 13.7395C16.7032 13.8303 16.8185 13.9211 16.9347 14.0075C16.9746 14.0372 16.972 14.0992 16.9286 14.1245C16.3806 14.4449 15.8108 14.7155 15.2116 14.9416C15.1726 14.9565 15.1553 15.0019 15.1744 15.0394C15.5047 15.6793 15.882 16.2886 16.2973 16.8666C16.3147 16.891 16.3459 16.9015 16.3745 16.8927C18.1721 16.3367 19.9949 15.4977 21.8766 14.1158C21.8931 14.1036 21.9035 14.0853 21.9053 14.0652C22.364 9.31966 21.1369 5.19747 18.6525 1.54318C18.6465 1.53097 18.6361 1.52224 18.6239 1.517ZM7.35169 11.565C6.26771 11.565 5.37454 10.5698 5.37454 9.3476C5.37454 8.12543 6.25039 7.13025 7.35169 7.13025C8.46163 7.13025 9.34616 8.13416 9.32881 9.3476C9.32881 10.5698 8.45296 11.565 7.35169 11.565ZM14.6619 11.565C13.5779 11.565 12.6847 10.5698 12.6847 9.3476C12.6847 8.12543 13.5606 7.13025 14.6619 7.13025C15.7718 7.13025 16.6563 8.13416 16.639 9.3476C16.639 10.5698 15.7718 11.565 14.6619 11.565Z" fill="#F4B1A3"/>
</svg>
