<svg width="18" height="19" viewBox="0 0 18 19" fill="none" xmlns="http://www.w3.org/2000/svg">
  <path d="M0.75 14.3307C2.24378 15.2779 4.01588 15.8267 5.91593 15.8267C11.2524 15.8267 15.5778 11.5003 15.5778 6.16488C15.5778 6.03133 15.5755 5.8989 15.5699 5.76759C15.763 5.61608 16.9571 4.65876 17.25 4.04374C17.25 4.04374 16.2803 4.44664 15.332 4.54092C15.3298 4.54092 15.3275 4.54092 15.3264 4.54092C15.3264 4.54092 15.3286 4.5398 15.3309 4.53755C15.4184 4.47919 16.6406 3.64645 16.8056 2.65546C16.8056 2.65546 16.1198 3.02133 15.1603 3.34118C15.0009 3.39393 14.8348 3.44556 14.6631 3.49382C14.0447 2.83278 13.1648 2.4209 12.1884 2.4209C10.3153 2.4209 8.79799 3.93824 8.79799 5.80911C8.79799 6.07285 8.82829 6.32986 8.88553 6.57676C8.62403 6.56666 4.63763 6.3422 1.92617 3.05949C1.92617 3.05949 0.30557 5.27153 2.89246 7.54643C2.89246 7.54643 2.10573 7.515 1.42787 7.10986C1.42787 7.10986 1.17872 9.7899 4.10791 10.4756C4.10791 10.4756 3.53217 10.6933 2.61189 10.5385C2.61189 10.5385 3.1259 12.7045 5.72851 12.9065C5.72738 12.9076 3.67021 14.7662 0.75 14.3307Z" fill="#F4B1A3" />
</svg>
  