<svg width="20" height="20" viewBox="0 0 20 20" fill="none" xmlns="http://www.w3.org/2000/svg">
<path fill-rule="evenodd" clip-rule="evenodd" d="M4.28501 19.9971H0V7.14258H4.28501V19.9971Z" fill="#F4B1A3"/>
<path fill-rule="evenodd" clip-rule="evenodd" d="M2.12976 4.28493H2.10542C0.826682 4.28493 0 3.33229 0 2.14173C0 0.925983 0.851859 0 2.15486 0C3.45787 0 4.26029 0.925983 4.28501 2.14173C4.28501 3.33229 3.45787 4.28493 2.12976 4.28493Z" fill="#F4B1A3"/>
<path fill-rule="evenodd" clip-rule="evenodd" d="M19.9994 19.9968H15.7887V13.2776C15.7887 11.5898 15.1794 10.4382 13.6551 10.4382C12.4918 10.4382 11.7988 11.2146 11.4945 11.9644C11.3832 12.2332 11.3558 12.6076 11.3558 12.983V19.9971H7.14453C7.14453 19.9971 7.20003 8.61633 7.14453 7.43783H11.3558V9.21674C11.9147 8.36159 12.9157 7.14258 15.1513 7.14258C17.9222 7.14258 19.9996 8.938 19.9996 12.7957L19.9994 19.9968Z" fill="#F4B1A3"/>
</svg>
