<svg width="24" height="24" viewBox="0 0 24 24" fill="none" xmlns="http://www.w3.org/2000/svg">
<path d="M12.0034 2.84375C8.18791 2.84375 7.07203 2.84766 6.85512 2.86554C6.07212 2.93022 5.58489 3.05272 5.05408 3.31534C4.645 3.51719 4.32238 3.75116 4.00398 4.07915C3.42411 4.67729 3.07267 5.41317 2.94545 6.2879C2.8836 6.71255 2.86561 6.79915 2.86195 8.96823C2.86055 9.69125 2.86195 10.6428 2.86195 11.9191C2.86195 15.7075 2.86617 16.8152 2.88444 17.0303C2.9477 17.7874 3.06719 18.2638 3.32023 18.7848C3.8038 19.7822 4.72738 20.5309 5.81543 20.8103C6.19217 20.9067 6.60827 20.9597 7.14245 20.9849C7.36878 20.9947 9.67561 21.0016 11.9838 21.0016C14.2921 21.0016 16.6003 20.9989 16.821 20.9877C17.4396 20.9588 17.7987 20.9108 18.1958 20.8089C18.7353 20.6714 19.2381 20.4185 19.6691 20.068C20.1001 19.7174 20.4488 19.2776 20.691 18.7792C20.9392 18.2707 21.065 17.7762 21.1219 17.0587C21.1343 16.9022 21.1395 14.4078 21.1395 11.9168C21.1395 9.42529 21.1339 6.93549 21.1215 6.77904C21.0638 6.04987 20.938 5.55956 20.6819 5.04132C20.4717 4.61709 20.2384 4.30028 19.8996 3.97634C19.2951 3.4025 18.5557 3.05328 17.6745 2.927C17.2475 2.86568 17.1625 2.84752 14.9779 2.84375H12.0034Z" fill="url(#paint0_radial_53000_27438)"/>
<path d="M11.9432 2.84375C8.15286 2.84375 7.04432 2.84766 6.82884 2.86554C6.05099 2.93022 5.56697 3.05272 5.03965 3.31534C4.63327 3.51719 4.31277 3.75116 3.99646 4.07915C3.42041 4.67729 3.07128 5.41317 2.9449 6.2879C2.88345 6.71255 2.86558 6.79915 2.86195 8.96823C2.86055 9.69125 2.86195 10.6428 2.86195 11.9191C2.86195 15.7075 2.86614 16.8152 2.88429 17.0303C2.94714 17.7874 3.06584 18.2638 3.31721 18.7848C3.7976 19.7822 4.7151 20.5309 5.79599 20.8103C6.17025 20.9067 6.58362 20.9597 7.11429 20.9849C7.33912 20.9947 9.63078 21.0016 11.9238 21.0016C14.2169 21.0016 16.5099 20.9989 16.7292 20.9877C17.3436 20.9588 17.7004 20.9108 18.095 20.8089C18.6309 20.6714 19.1304 20.4185 19.5585 20.068C19.9867 19.7174 20.3331 19.2776 20.5737 18.7792C20.8202 18.2707 20.9452 17.7762 21.0018 17.0587C21.0141 16.9022 21.0192 14.4078 21.0192 11.9168C21.0192 9.42529 21.0136 6.93549 21.0013 6.77904C20.9441 6.04987 20.8191 5.55956 20.5647 5.04132C20.3559 4.61709 20.1241 4.30028 19.7875 3.97634C19.187 3.4025 18.4525 3.05328 17.577 2.927C17.1529 2.86568 17.0684 2.84752 14.8982 2.84375H11.9432Z" fill="url(#paint1_radial_53000_27438)"/>
<path d="M12.0016 5.21094C10.167 5.21094 9.93676 5.21891 9.21623 5.25148C8.4971 5.28419 8.00623 5.39729 7.57672 5.56324C7.13244 5.73464 6.75556 5.96391 6.3801 6.33705C6.00435 6.71004 5.77355 7.08443 5.60045 7.52565C5.43298 7.95247 5.31899 8.44024 5.28662 9.15435C5.25454 9.87014 5.24609 10.099 5.24609 11.9215C5.24609 13.7439 5.25426 13.972 5.28691 14.6877C5.31998 15.4021 5.43383 15.8898 5.60073 16.3164C5.77341 16.7578 6.00421 17.1322 6.37981 17.5052C6.75514 17.8785 7.13202 18.1083 7.57602 18.2797C8.00581 18.4456 8.49681 18.5587 9.2158 18.5914C9.93634 18.624 10.1664 18.632 12.0008 18.632C13.8355 18.632 14.0651 18.624 14.7856 18.5914C15.5047 18.5587 15.9962 18.4456 16.426 18.2797C16.8701 18.1083 17.2464 17.8785 17.6217 17.5052C17.9975 17.1322 18.2283 16.7578 18.4014 16.3166C18.5674 15.8898 18.6814 15.402 18.7152 14.6879C18.7476 13.9721 18.756 13.7439 18.756 11.9215C18.756 10.099 18.7476 9.87028 18.7152 9.15449C18.6814 8.4401 18.5674 7.95247 18.4014 7.52579C18.2283 7.08443 17.9975 6.71004 17.6217 6.33705C17.246 5.96377 16.8702 5.7345 16.4255 5.56324C15.9949 5.39729 15.5038 5.28419 14.7846 5.25148C14.0641 5.21891 13.8347 5.21094 11.9996 5.21094H12.0016ZM11.3956 6.42023C11.5754 6.41995 11.7761 6.42023 12.0016 6.42023C13.8051 6.42023 14.0189 6.42666 14.7312 6.45882C15.3898 6.48873 15.7472 6.59806 15.9853 6.68991C16.3006 6.81154 16.5253 6.95693 16.7616 7.1918C16.998 7.42667 17.1444 7.65035 17.2671 7.96351C17.3596 8.19978 17.4698 8.55488 17.4997 9.20915C17.5321 9.91655 17.5391 10.1291 17.5391 11.9199C17.5391 13.7108 17.5321 13.9233 17.4997 14.6307C17.4696 15.285 17.3596 15.6401 17.2671 15.8763C17.1447 16.1895 16.998 16.4125 16.7616 16.6472C16.5252 16.8821 16.3007 17.0275 15.9853 17.1491C15.7475 17.2414 15.3898 17.3504 14.7312 17.3803C14.0191 17.4125 13.8051 17.4195 12.0016 17.4195C10.1978 17.4195 9.98405 17.4125 9.27195 17.3803C8.61334 17.3501 8.25588 17.2408 8.01763 17.149C7.70239 17.0273 7.47723 16.8819 7.2408 16.6471C7.00437 16.4122 6.85801 16.1891 6.7353 15.8758C6.64284 15.6395 6.53265 15.2844 6.50267 14.6301C6.4703 13.9227 6.46383 13.7102 6.46383 11.9182C6.46383 10.1263 6.4703 9.91488 6.50267 9.20748C6.53279 8.5532 6.64284 8.1981 6.7353 7.96155C6.85773 7.6484 7.00437 7.42471 7.2408 7.18984C7.47723 6.95498 7.70239 6.80958 8.01763 6.68767C8.25574 6.5954 8.61334 6.48636 9.27195 6.4563C9.89511 6.42834 10.1366 6.41995 11.3956 6.41855V6.42023ZM15.6073 7.53446C15.447 7.53446 15.2903 7.58169 15.157 7.67019C15.0236 7.75868 14.9198 7.88447 14.8584 8.03162C14.7971 8.17878 14.781 8.34071 14.8123 8.49692C14.8436 8.65314 14.9209 8.79662 15.0343 8.90923C15.1476 9.02183 15.2921 9.09851 15.4494 9.12954C15.6066 9.16058 15.7696 9.1446 15.9177 9.08361C16.0658 9.02262 16.1924 8.91936 16.2815 8.7869C16.3705 8.65444 16.418 8.49872 16.4179 8.33944C16.4179 7.89487 16.0549 7.53418 15.6073 7.53418V7.53446ZM12.0016 8.47533C10.0858 8.47533 8.53256 10.0183 8.53256 11.9215C8.53256 13.8246 10.0858 15.3669 12.0016 15.3669C13.9173 15.3669 15.4701 13.8246 15.4701 11.9215C15.4701 10.0183 13.9173 8.47533 12.0016 8.47533ZM12.0016 9.68462C13.245 9.68462 14.2532 10.686 14.2532 11.9215C14.2532 13.1568 13.245 14.1583 12.0016 14.1583C10.7579 14.1583 9.74987 13.1568 9.74987 11.9215C9.74987 10.686 10.7579 9.68462 12.0016 9.68462Z" fill="white"/>
<defs>
<radialGradient id="paint0_radial_53000_27438" cx="0" cy="0" r="1" gradientUnits="userSpaceOnUse" gradientTransform="translate(7.71649 22.4002) rotate(-90) scale(17.9958 16.8484)">
<stop stop-color="#FFDD55"/>
<stop offset="0.1" stop-color="#FFDD55"/>
<stop offset="0.5" stop-color="#FF543E"/>
<stop offset="1" stop-color="#C837AB"/>
</radialGradient>
<radialGradient id="paint1_radial_53000_27438" cx="0" cy="0" r="1" gradientUnits="userSpaceOnUse" gradientTransform="translate(-0.180215 4.15181) rotate(78.6806) scale(8.0442 33.1586)">
<stop stop-color="#3771C8"/>
<stop offset="0.128" stop-color="#3771C8"/>
<stop offset="1" stop-color="#6600FF" stop-opacity="0"/>
</radialGradient>
</defs>
</svg>
