<svg width="24" height="31" viewBox="0 0 24 31" fill="none" xmlns="http://www.w3.org/2000/svg">
<path d="M3.86486 19.7834V6.72028L11.6923 11.0483L23.058 4.40708V0L11.6563 6.34792L0 0V21.9844L3.86486 19.7834Z" fill="white"/>
<mask id="mask0_51337_52787" style="mask-type:alpha" maskUnits="userSpaceOnUse" x="0" y="8" width="24" height="23">
<path d="M19.1937 11.1278L19.1937 24.1909L11.3663 19.8628L0.000593574 26.5041L0.000593185 30.9111L11.4023 24.5632L23.0586 30.9111L23.0586 8.92677L19.1937 11.1278Z" fill="white"/>
</mask>
<g mask="url(#mask0_51337_52787)">
<path d="M1.13361 25.8125H-0.03125V26.9678H1.13361V25.8125Z" fill="white"/>
<path d="M3.32892 25.8125H2.16406V26.9678H3.32892V25.8125Z" fill="white"/>
<path d="M5.52618 25.8125H4.36133V26.9678H5.52618V25.8125Z" fill="white"/>
<path d="M7.71954 25.8125H6.55469V26.9678H7.71954V25.8125Z" fill="white"/>
<path d="M9.91681 25.8125H8.75195V26.9678H9.91681V25.8125Z" fill="white"/>
<path d="M12.1102 25.8125H10.9453V26.9678H12.1102V25.8125Z" fill="white"/>
<path d="M14.3055 25.8125H13.1406V26.9678H14.3055V25.8125Z" fill="white"/>
<path d="M16.5008 25.8125H15.3359V26.9678H16.5008V25.8125Z" fill="white"/>
<path d="M18.6961 25.8125H17.5312V26.9678H18.6961V25.8125Z" fill="white"/>
<path d="M20.8914 25.8125H19.7266V26.9678H20.8914V25.8125Z" fill="white"/>
<path d="M23.0887 25.8125H21.9238V26.9678H23.0887V25.8125Z" fill="white"/>
<path d="M1.13361 23.6855H-0.03125V24.8409H1.13361V23.6855Z" fill="white"/>
<path d="M3.32892 23.6855H2.16406V24.8409H3.32892V23.6855Z" fill="white"/>
<path d="M5.52618 23.6855H4.36133V24.8409H5.52618V23.6855Z" fill="white"/>
<path d="M7.71954 23.6855H6.55469V24.8409H7.71954V23.6855Z" fill="white"/>
<path d="M9.91681 23.6855H8.75195V24.8409H9.91681V23.6855Z" fill="white"/>
<path d="M12.1102 23.6855H10.9453V24.8409H12.1102V23.6855Z" fill="white"/>
<path d="M14.3055 23.6855H13.1406V24.8409H14.3055V23.6855Z" fill="white"/>
<path d="M16.5008 23.6855H15.3359V24.8409H16.5008V23.6855Z" fill="white"/>
<path d="M18.6961 23.6855H17.5312V24.8409H18.6961V23.6855Z" fill="white"/>
<path d="M20.8914 23.6855H19.7266V24.8409H20.8914V23.6855Z" fill="white"/>
<path d="M23.0887 23.6855H21.9238V24.8409H23.0887V23.6855Z" fill="white"/>
<path d="M1.13361 21.5586H-0.03125V22.7139H1.13361V21.5586Z" fill="white"/>
<path d="M3.32892 21.5586H2.16406V22.7139H3.32892V21.5586Z" fill="white"/>
<path d="M5.52618 21.5586H4.36133V22.7139H5.52618V21.5586Z" fill="white"/>
<path d="M7.71954 21.5586H6.55469V22.7139H7.71954V21.5586Z" fill="white"/>
<path d="M9.91681 21.5586H8.75195V22.7139H9.91681V21.5586Z" fill="white"/>
<path d="M12.1102 21.5586H10.9453V22.7139H12.1102V21.5586Z" fill="white"/>
<path d="M14.3055 21.5586H13.1406V22.7139H14.3055V21.5586Z" fill="white"/>
<path d="M16.5008 21.5586H15.3359V22.7139H16.5008V21.5586Z" fill="white"/>
<path d="M18.6961 21.5586H17.5312V22.7139H18.6961V21.5586Z" fill="white"/>
<path d="M20.8914 21.5586H19.7266V22.7139H20.8914V21.5586Z" fill="white"/>
<path d="M23.0887 21.5586H21.9238V22.7139H23.0887V21.5586Z" fill="white"/>
<path d="M1.13361 19.4287H-0.03125V20.584H1.13361V19.4287Z" fill="white"/>
<path d="M3.32892 19.4287H2.16406V20.584H3.32892V19.4287Z" fill="white"/>
<path d="M5.52618 19.4287H4.36133V20.584H5.52618V19.4287Z" fill="white"/>
<path d="M7.71954 19.4287H6.55469V20.584H7.71954V19.4287Z" fill="white"/>
<path d="M9.91681 19.4287H8.75195V20.584H9.91681V19.4287Z" fill="white"/>
<path d="M12.1102 19.4287H10.9453V20.584H12.1102V19.4287Z" fill="white"/>
<path d="M14.3055 19.4287H13.1406V20.584H14.3055V19.4287Z" fill="white"/>
<path d="M16.5008 19.4287H15.3359V20.584H16.5008V19.4287Z" fill="white"/>
<path d="M18.6961 19.4287H17.5312V20.584H18.6961V19.4287Z" fill="white"/>
<path d="M20.8914 19.4287H19.7266V20.584H20.8914V19.4287Z" fill="white"/>
<path d="M23.0887 19.4287H21.9238V20.584H23.0887V19.4287Z" fill="white"/>
<path d="M1.13361 17.3018H-0.03125V18.4571H1.13361V17.3018Z" fill="white"/>
<path d="M3.32892 17.3018H2.16406V18.4571H3.32892V17.3018Z" fill="white"/>
<path d="M5.52618 17.3018H4.36133V18.4571H5.52618V17.3018Z" fill="white"/>
<path d="M7.71954 17.3027H6.55469V18.4581H7.71954V17.3027Z" fill="white"/>
<path d="M9.91681 17.3027H8.75195V18.4581H9.91681V17.3027Z" fill="white"/>
<path d="M12.1102 17.3018H10.9453V18.4571H12.1102V17.3018Z" fill="white"/>
<path d="M14.3055 17.3027H13.1406V18.4581H14.3055V17.3027Z" fill="white"/>
<path d="M16.5008 17.3018H15.3359V18.4571H16.5008V17.3018Z" fill="white"/>
<path d="M18.6961 17.3018H17.5312V18.4571H18.6961V17.3018Z" fill="white"/>
<path d="M20.8914 17.3018H19.7266V18.4571H20.8914V17.3018Z" fill="white"/>
<path d="M23.0887 17.3018H21.9238V18.4571H23.0887V17.3018Z" fill="white"/>
<path d="M1.13361 15.1748H-0.03125V16.3301H1.13361V15.1748Z" fill="white"/>
<path d="M3.32892 15.1748H2.16406V16.3301H3.32892V15.1748Z" fill="white"/>
<path d="M5.52618 15.1748H4.36133V16.3301H5.52618V15.1748Z" fill="white"/>
<path d="M7.71954 15.1748H6.55469V16.3301H7.71954V15.1748Z" fill="white"/>
<path d="M9.91681 15.1748H8.75195V16.3301H9.91681V15.1748Z" fill="white"/>
<path d="M12.1102 15.1748H10.9453V16.3301H12.1102V15.1748Z" fill="white"/>
<path d="M14.3055 15.1748H13.1406V16.3301H14.3055V15.1748Z" fill="white"/>
<path d="M16.5008 15.1748H15.3359V16.3301H16.5008V15.1748Z" fill="white"/>
<path d="M18.6961 15.1748H17.5312V16.3301H18.6961V15.1748Z" fill="white"/>
<path d="M20.8914 15.1748H19.7266V16.3301H20.8914V15.1748Z" fill="white"/>
<path d="M23.0887 15.1748H21.9238V16.3301H23.0887V15.1748Z" fill="white"/>
<path d="M1.13361 13.0479H-0.03125V14.2032H1.13361V13.0479Z" fill="white"/>
<path d="M3.32892 13.0479H2.16406V14.2032H3.32892V13.0479Z" fill="white"/>
<path d="M5.52618 13.0479H4.36133V14.2032H5.52618V13.0479Z" fill="white"/>
<path d="M7.71954 13.0479H6.55469V14.2032H7.71954V13.0479Z" fill="white"/>
<path d="M9.91681 13.0479H8.75195V14.2032H9.91681V13.0479Z" fill="white"/>
<path d="M12.1102 13.0479H10.9453V14.2032H12.1102V13.0479Z" fill="white"/>
<path d="M14.3055 13.0479H13.1406V14.2032H14.3055V13.0479Z" fill="white"/>
<path d="M16.5008 13.0479H15.3359V14.2032H16.5008V13.0479Z" fill="white"/>
<path d="M18.6961 13.0479H17.5312V14.2032H18.6961V13.0479Z" fill="white"/>
<path d="M20.8914 13.0479H19.7266V14.2032H20.8914V13.0479Z" fill="white"/>
<path d="M23.0887 13.0479H21.9238V14.2032H23.0887V13.0479Z" fill="white"/>
<path d="M1.13361 10.9209H-0.03125V12.0762H1.13361V10.9209Z" fill="white"/>
<path d="M3.32892 10.9209H2.16406V12.0762H3.32892V10.9209Z" fill="white"/>
<path d="M5.52618 10.9209H4.36133V12.0762H5.52618V10.9209Z" fill="white"/>
<path d="M7.71954 10.9209H6.55469V12.0762H7.71954V10.9209Z" fill="white"/>
<path d="M9.91681 10.9209H8.75195V12.0762H9.91681V10.9209Z" fill="white"/>
<path d="M12.1102 10.9209H10.9453V12.0762H12.1102V10.9209Z" fill="white"/>
<path d="M14.3055 10.9209H13.1406V12.0762H14.3055V10.9209Z" fill="white"/>
<path d="M16.5008 10.9209H15.3359V12.0762H16.5008V10.9209Z" fill="white"/>
<path d="M18.6961 10.9209H17.5312V12.0762H18.6961V10.9209Z" fill="white"/>
<path d="M20.8914 10.9209H19.7266V12.0762H20.8914V10.9209Z" fill="white"/>
<path d="M23.0887 10.9209H21.9238V12.0762H23.0887V10.9209Z" fill="white"/>
<path d="M1.13361 8.79395H-0.03125V9.94927H1.13361V8.79395Z" fill="white"/>
<path d="M3.32892 8.79395H2.16406V9.94927H3.32892V8.79395Z" fill="white"/>
<path d="M5.52618 8.79395H4.36133V9.94927H5.52618V8.79395Z" fill="white"/>
<path d="M7.71954 8.79395H6.55469V9.94927H7.71954V8.79395Z" fill="white"/>
<path d="M9.91681 8.79395H8.75195V9.94927H9.91681V8.79395Z" fill="white"/>
<path d="M12.1102 8.79395H10.9453V9.94927H12.1102V8.79395Z" fill="white"/>
<path d="M14.3055 8.79395H13.1406V9.94927H14.3055V8.79395Z" fill="white"/>
<path d="M16.5008 8.79395H15.3359V9.94927H16.5008V8.79395Z" fill="white"/>
<path d="M18.6961 8.79395H17.5312V9.94927H18.6961V8.79395Z" fill="white"/>
<path d="M20.8914 8.79395H19.7266V9.94927H20.8914V8.79395Z" fill="white"/>
<path d="M23.0887 8.79395H21.9238V9.94927H23.0887V8.79395Z" fill="white"/>
<path d="M1.13361 27.9395H-0.03125V29.0948H1.13361V27.9395Z" fill="white"/>
<path d="M3.32892 27.9395H2.16406V29.0948H3.32892V27.9395Z" fill="white"/>
<path d="M5.52618 27.9395H4.36133V29.0948H5.52618V27.9395Z" fill="white"/>
<path d="M7.71954 27.9395H6.55469V29.0948H7.71954V27.9395Z" fill="white"/>
<path d="M9.91681 27.9395H8.75195V29.0948H9.91681V27.9395Z" fill="white"/>
<path d="M12.1102 27.9395H10.9453V29.0948H12.1102V27.9395Z" fill="white"/>
<path d="M14.3055 27.9395H13.1406V29.0948H14.3055V27.9395Z" fill="white"/>
<path d="M16.5008 27.9395H15.3359V29.0948H16.5008V27.9395Z" fill="white"/>
<path d="M18.6961 27.9395H17.5312V29.0948H18.6961V27.9395Z" fill="white"/>
<path d="M20.8914 27.9395H19.7266V29.0948H20.8914V27.9395Z" fill="white"/>
<path d="M23.0887 27.9395H21.9238V29.0948H23.0887V27.9395Z" fill="white"/>
<path d="M1.13361 30.0664H-0.03125V31.2217H1.13361V30.0664Z" fill="white"/>
<path d="M3.32892 30.0664H2.16406V31.2217H3.32892V30.0664Z" fill="white"/>
<path d="M5.52618 30.0664H4.36133V31.2217H5.52618V30.0664Z" fill="white"/>
<path d="M7.71954 30.0664H6.55469V31.2217H7.71954V30.0664Z" fill="white"/>
<path d="M9.91681 30.0664H8.75195V31.2217H9.91681V30.0664Z" fill="white"/>
<path d="M12.1102 30.0664H10.9453V31.2217H12.1102V30.0664Z" fill="white"/>
<path d="M14.3055 30.0664H13.1406V31.2217H14.3055V30.0664Z" fill="white"/>
<path d="M16.5008 30.0664H15.3359V31.2217H16.5008V30.0664Z" fill="white"/>
<path d="M18.6961 30.0664H17.5312V31.2217H18.6961V30.0664Z" fill="white"/>
<path d="M20.8914 30.0664H19.7266V31.2217H20.8914V30.0664Z" fill="white"/>
<path d="M23.0887 30.0664H21.9238V31.2217H23.0887V30.0664Z" fill="white"/>
</g>
</svg>
