<svg width="20" height="20" viewBox="0 0 20 20" fill="none" xmlns="http://www.w3.org/2000/svg">
<path d="M18.7585 18.759C18.3757 19.1418 17.9138 19.3332 17.373 19.3332C16.8322 19.3332 16.3735 19.1448 15.9967 18.7681L11.7493 14.5207C11.2875 14.0589 11.1053 13.5059 11.2025 12.8618L7.75716 9.4165C6.83355 10.1578 5.83095 10.7412 4.74935 11.1665C2.96289 10.2429 1.60178 8.88178 0.666016 7.08317C1.24935 5.62484 2.10308 4.33664 3.22721 3.21859C4.35135 2.10053 5.64258 1.24984 7.10091 0.666504C8.88737 1.60227 10.2485 2.96338 11.1842 4.74984C10.7467 5.84359 10.1573 6.84619 9.41602 7.75765L12.8613 11.203C13.5054 11.1057 14.0584 11.288 14.5202 11.7498L18.7676 15.9972C19.1443 16.374 19.3327 16.8327 19.3327 17.3735C19.3327 17.9143 19.1413 18.3761 18.7585 18.759Z" fill="#F4B1A3"/>
</svg>
